<?xml version="1.0" encoding="utf-8"?>
<!-- Generator: Adobe Illustrator 16.0.0, SVG Export Plug-In . SVG Version: 6.00 Build 0)  -->
<!DOCTYPE svg PUBLIC "-//W3C//DTD SVG 1.1//EN" "http://www.w3.org/Graphics/SVG/1.1/DTD/svg11.dtd">
<svg version="1.1" id="Layer_1" xmlns="http://www.w3.org/2000/svg" xmlns:xlink="http://www.w3.org/1999/xlink" x="0px" y="0px"
	 width="550.8px" height="550.694px" viewBox="30.6 44.206 550.8 550.694" enable-background="new 30.6 44.206 550.8 550.694"
	 xml:space="preserve">
<g>
	<path fill="#FFFFFF" d="M306,56.34c145.044,0,263.16,118.116,263.16,263.16S451.044,582.66,306,582.66S42.84,464.544,42.84,319.5
		S160.956,56.34,306,56.34 M306,44.1c-151.776,0-275.4,123.012-275.4,275.4c0,152.388,123.624,275.4,275.4,275.4
		c151.776,0,275.4-123.013,275.4-275.4C581.4,167.112,457.776,44.1,306,44.1L306,44.1z"/>
</g>
<g>
	<g>
		<path fill="#FFFFFF" d="M231.336,460.872V178.128L455.328,319.5L231.336,460.872z M243.576,200.16v238.68L432.072,319.5
			L243.576,200.16z"/>
	</g>
</g>
</svg>
