<?xml version="1.0" encoding="UTF-8" standalone="no"?>
<!DOCTYPE svg  PUBLIC '-//W3C//DTD SVG 1.1//EN'  'http://www.w3.org/Graphics/SVG/1.1/DTD/svg11.dtd'>
<svg xmlns="http://www.w3.org/2000/svg">
<defs>
<font id="Bree-Bold" horiz-adv-x="535">
<font-face underline-position="-50" font-weight="700" descent="-200" panose-1="2 0 8 6 0 0 0 2 0 4" units-per-em="1000" unicode-range="U+0020-25CA" bbox="-102 -266 1000 919" x-height="512" underline-thickness="50" font-family="Bree" ascent="800" cap-height="665"/>
<missing-glyph horiz-adv-x="1000"/>
<glyph glyph-name=".notdef" horiz-adv-x="1000"/>
<glyph glyph-name=".null" horiz-adv-x="0"/>
<glyph glyph-name=".null" horiz-adv-x="0"/>
<glyph glyph-name="nonmarkingreturn" horiz-adv-x="333"/>
<glyph glyph-name="space" horiz-adv-x="200" unicode=" "/>
<glyph glyph-name="exclam" horiz-adv-x="266" unicode="!" d="M47 63q0 32 23 55t59 23q40 0 62.5 -21.5t22.5 -56.5q0 -33 -22 -56.5t-60 -23.5q-40 0 -62.5 22.5t-22.5 57.5zM60 529v106q0 27 17.5 43.5t54.5 16.5q74 0 74 -61v-105l-24 -333h-97z"/>
<glyph glyph-name="quotedbl" horiz-adv-x="348" unicode='&quot;' d="M191 665h112l-11 -236h-91zM45 665h112l-11 -236h-91z"/>
<glyph glyph-name="numbersign" horiz-adv-x="529" unicode="#" d="M218 371l-12 -139h94l13 139h-95zM281 0l13 152h-95l-13 -152h-86l13 152h-89v80h95l13 139h-89v80h96l14 154h86l-14 -154h94l15 154h86l-14 -154h90v-80h-97l-12 -139h90v-80h-97l-13 -152h-86z"/>
<glyph glyph-name="dollar" d="M356 747v-99q88 -22 155 -87l-89 -103q-88 65 -143 65q-24 0 -38.5 -12.5t-14.5 -35.5q0 -26 24 -41.5t82 -35.5q35 -12 60.5 -25t52.5 -35t41.5 -55.5t14.5 -76.5q0 -74 -39 -123.5t-106 -69.5v-111h-155v102q-112 17 -181 66l58 131q38 -24 90 -43t92 -19q30 0 46 14.5 t16 38.5q0 28 -22 43t-69 30q-32 10 -50 17t-46.5 23t-44 34t-27.5 49t-12 70q0 71 40 121t110 68v100h155z" unicode="$"/>
<glyph glyph-name="percent" horiz-adv-x="819" unicode="%" d="M315 -14l-103 44l292 626l105 -43zM193 371q24 0 36.5 23t12.5 81q0 57 -11.5 80t-34.5 23q-24 0 -36 -24t-12 -84q0 -99 45 -99zM198 657q73 0 115.5 -45t42.5 -135q0 -93 -43 -138.5t-121 -45.5q-157 0 -157 182q0 90 44.5 136t118.5 46zM622 62q24 0 36.5 23t12.5 81 q0 57 -11.5 80t-34.5 23q-24 0 -36 -24t-12 -84q0 -99 45 -99zM627 348q73 0 115.5 -44.5t42.5 -134.5q0 -94 -43 -139.5t-121 -45.5q-157 0 -157 182q0 90 44.5 136t118.5 46z"/>
<glyph glyph-name="ampersand" horiz-adv-x="831" unicode="&amp;" d="M304 444q-32 0 -55.5 -35t-23.5 -91q52 4 85.5 28t33.5 56q0 42 -40 42zM376 124q57 0 112 39t67 113q-119 -55 -312 -55h-10q19 -97 143 -97zM796 595q-32 -106 -79 -178.5t-121 -117.5h183v-126h-98q-49 -93 -126 -140.5t-198 -47.5q-80 0 -140 23.5t-94.5 65t-51 93 t-16.5 113.5q0 118 67 202t199 84q76 0 120.5 -32.5t44.5 -87.5q0 -51 -34 -96q130 85 194 290z"/>
<glyph glyph-name="quotesingle" horiz-adv-x="202" unicode="&apos;" d="M45 665h112l-11 -236h-91z"/>
<glyph glyph-name="parenleft" horiz-adv-x="329" unicode="(" d="M49 260q0 120 37 245t104 236l131 -57q-106 -212 -106 -413q0 -190 107 -407l-129 -64q-144 227 -144 460z"/>
<glyph glyph-name="parenright" horiz-adv-x="329" unicode=")" d="M280 290q0 -120 -37 -245t-104 -236l-131 57q106 212 106 413q0 190 -107 407l129 64q144 -227 144 -460z"/>
<glyph glyph-name="asterisk" horiz-adv-x="448" unicode="*" d="M224 588q-55 55 -55 106q0 67 56 67q29 0 42 -15.5t13 -49.5q0 -28 -17 -58.5t-39 -49.5zM198 567q-45 -22 -84 -22q-20 0 -35 6q-48 17 -48 53q0 12 4 23q13 36 45 36q15 0 35 -7q26 -10 49 -36t34 -53zM207 542q1 -9 1 -26q0 -61 -26 -92q-24 -30 -50 -30q-18 0 -37 15 q-22 19 -22 39q0 21 22 46q18 21 50.5 33.5t61.5 14.5zM250 567q11 27 34 53t49 36q20 7 35 7q32 0 45 -36q4 -11 4 -23q0 -36 -48 -53q-15 -6 -35 -6q-39 0 -84 22zM243 542q29 -2 61.5 -14.5t50.5 -33.5q22 -25 22 -46t-22 -39q-18 -15 -37 -15q-26 0 -50 30 q-26 31 -26 92q0 17 1 26z"/>
<glyph glyph-name="plus" d="M199 377v147h137v-147h135v-134h-135v-145h-137v145h-135v134h135z" unicode="+"/>
<glyph glyph-name="comma" horiz-adv-x="234" unicode="," d="M220 75l-123 -252l-79 25q14 164 32 228q16 53 64 53q28 0 59 -18t47 -36z"/>
<glyph glyph-name="hyphen" horiz-adv-x="322" unicode="-" d="M30 222v123h262v-123h-262z"/>
<glyph glyph-name="period" horiz-adv-x="232" unicode="." d="M33 63q0 34 22 56.5t59 22.5q41 0 63 -21t22 -57q0 -35 -21.5 -57.5t-60.5 -22.5q-41 0 -62.5 21.5t-21.5 57.5z"/>
<glyph glyph-name="slash" horiz-adv-x="462" unicode="/" d="M155 -119l-141 51l292 836l143 -50z"/>
<glyph glyph-name="zero" d="M267 123q37 0 57 45t20 158q0 108 -19 151.5t-56 43.5q-38 0 -57.5 -46t-19.5 -160q0 -192 75 -192zM271 657q240 0 240 -329q0 -175 -62.5 -256t-183.5 -81q-122 0 -181.5 81t-59.5 253q0 168 66 250t181 82z" unicode="0"/>
<glyph glyph-name="one" horiz-adv-x="491" unicode="1" d="M91 126h109v335l-105 -53l-62 110l206 126h139l-10 -123v-395h104v-126h-381v126z"/>
<glyph glyph-name="two" horiz-adv-x="521" unicode="2" d="M113 436l-92 111q110 110 244 110q100 0 153.5 -50.5t53.5 -136.5q0 -98 -88 -196l-124 -139h232v-135h-466v101l207 234q35 40 48.5 63t13.5 53q0 27 -16 41t-40 14q-53 0 -126 -70z"/>
<glyph glyph-name="three" horiz-adv-x="516" unicode="3" d="M103 453l-80 108q23 21 52 39.5t85 37.5t115 19q87 0 136.5 -44t49.5 -113q0 -88 -78 -142q87 -71 87 -167q0 -85 -59 -142.5t-175 -57.5q-58 0 -116 15t-98 37l45 132q35 -18 82.5 -31t77.5 -13q74 0 74 52q0 37 -40 87q-47 -16 -108 -27l-39 121q86 18 131.5 39.5 t45.5 59.5q0 50 -53 50q-54 0 -135 -60z"/>
<glyph glyph-name="four" horiz-adv-x="556" unicode="4" d="M355 431h95v-160h83v-132h-83v-139h-168v141h-246v108l193 415l133 -66l-155 -327h89z"/>
<glyph glyph-name="five" horiz-adv-x="523" unicode="5" d="M75 290l44 354h348v-137h-219l-12 -104q235 -28 235 -207q0 -83 -59.5 -144t-179.5 -61q-117 0 -215 50l50 130q86 -43 154 -43q77 0 77 69q0 93 -223 93z"/>
<glyph glyph-name="six" horiz-adv-x="534" unicode="6" d="M332 213q0 87 -57 87q-40 0 -72 -20v-8q0 -154 65 -154q64 0 64 95zM386 675l33 -124q-177 -26 -206 -163q19 12 51.5 20t58.5 8q83 0 127.5 -51.5t44.5 -143.5q0 -107 -58 -169t-169 -62q-228 0 -228 289q0 55 9 105t33 101t62 89.5t100 65.5t142 35z"/>
<glyph glyph-name="seven" horiz-adv-x="492" unicode="7" d="M32 507v137h456v-110q-202 -164 -202 -471v-63h-176v71q0 52 5 96.5t20.5 104t50 120t86.5 115.5h-240z"/>
<glyph glyph-name="eight" horiz-adv-x="538" unicode="8" d="M273 543q-23 0 -39.5 -13.5t-16.5 -37.5q0 -41 62 -82q51 45 51 84q0 49 -57 49zM329 178q0 44 -75 91q-55 -45 -55 -94q0 -26 16.5 -43.5t47.5 -17.5t48.5 17.5t17.5 46.5zM40 166q0 95 104 173q-85 61 -85 142q0 78 59 127t160 49q102 0 151.5 -44.5t49.5 -111.5 q0 -75 -80 -150q107 -74 107 -170q0 -82 -60.5 -136t-179.5 -54q-64 0 -110.5 15.5t-70.5 42t-34.5 55.5t-10.5 62z"/>
<glyph glyph-name="nine" d="M201 434q0 -42 15.5 -65.5t42.5 -23.5q39 0 72 23v8q0 154 -65 154q-29 0 -47 -24t-18 -72zM148 -13l-33 125q90 14 142 48t66 102q-49 -30 -112 -30q-83 0 -127.5 51t-44.5 143q0 106 59.5 168.5t171.5 62.5q224 0 224 -288q0 -346 -346 -382z" unicode="9"/>
<glyph glyph-name="colon" horiz-adv-x="232" unicode=":" d="M33 418q0 34 22 56.5t59 22.5q41 0 63 -21t22 -57q0 -35 -21.5 -57.5t-60.5 -22.5q-41 0 -62.5 21.5t-21.5 57.5zM33 63q0 34 22 56.5t59 22.5q41 0 63 -21t22 -57q0 -35 -21.5 -57.5t-60.5 -22.5q-41 0 -62.5 21.5t-21.5 57.5z"/>
<glyph glyph-name="semicolon" horiz-adv-x="234" unicode=";" d="M220 75l-123 -252l-79 25q14 164 32 228q16 53 64 53q28 0 59 -18t47 -36zM54 418q0 34 22 56.5t59 22.5q41 0 63 -21t22 -57q0 -35 -21.5 -57.5t-60.5 -22.5q-41 0 -62.5 21.5t-21.5 57.5z"/>
<glyph glyph-name="less" d="M435 556l56 -123l-242 -111l243 -120l-57 -125l-375 192v98z" unicode="&lt;"/>
<glyph glyph-name="equal" d="M470 262v-133h-405v133h405zM470 474v-133h-405v133h405z" unicode="="/>
<glyph glyph-name="greater" d="M117 77l-56 123l242 111l-243 120l57 125l375 -192v-98z" unicode="&gt;"/>
<glyph glyph-name="question" horiz-adv-x="405" unicode="?" d="M207 521q0 55 -59 55q-32 0 -86 -15l-23 110q57 24 140 24q48 0 84 -11t55.5 -27t32 -38t16 -39.5t3.5 -35.5q0 -71 -31.5 -110.5t-103.5 -86.5q-42 -27 -42 -80v-71h-125q-10 73 -10 111q0 39 13 66.5t28.5 40.5t42.5 29q6 3 9 5q29 18 42.5 33t13.5 40zM47 63 q0 32 23 55t59 23q40 0 62.5 -21.5t22.5 -56.5q0 -33 -22 -56.5t-60 -23.5q-40 0 -62.5 22.5t-22.5 57.5z"/>
<glyph glyph-name="at" horiz-adv-x="950" unicode="@" d="M531 335q-17 5 -38 5q-27 0 -44 -24t-22 -51t-5 -57q0 -112 59 -112q15 0 25 5t15 10.5t7 18t2.5 19t0.5 21.5v165zM774 277q0 126 -69 196.5t-207 70.5q-155 0 -236 -90.5t-81 -233.5q0 -138 71 -226.5t201 -88.5q81 0 142 26l29 -94q-73 -31 -174 -31q-80 0 -145.5 22 t-110 60.5t-75 91t-44 111.5t-13.5 125q0 134 59.5 233.5t158 148.5t221.5 49q171 0 279 -93.5t108 -267.5q0 -136 -67.5 -211t-176.5 -75h-82l-8 50l-5 1q-39 -52 -104 -52q-154 0 -154 200q0 108 56.5 171.5t160.5 63.5q80 0 155 -30v-311q48 2 79.5 46.5t31.5 137.5z"/>
<glyph glyph-name="A" horiz-adv-x="647" unicode="A" d="M312 505l-69 -237h140l-67 237h-4zM169 0h-165l216 665h193l230 -665h-183l-45 142h-201z"/>
<glyph glyph-name="B" horiz-adv-x="593" unicode="B" d="M228 540v-137h49q42 0 63 19.5t21 50.5q0 67 -78 67h-55zM228 281v-150h64q94 0 94 78q0 72 -89 72h-69zM56 665h255q224 0 224 -171q0 -82 -75 -136q108 -43 108 -153q0 -100 -70 -152.5t-201 -52.5h-241v665z"/>
<glyph glyph-name="C" horiz-adv-x="593" unicode="C" d="M351 129q69 0 140 66l87 -112q-104 -95 -236 -95q-143 0 -225.5 87.5t-82.5 251.5q0 94 27.5 164.5t74 109.5t99.5 57.5t112 18.5q152 0 241 -138l-122 -88q-60 83 -127 83q-58 0 -93 -51t-35 -146q0 -98 34.5 -153t105.5 -55z"/>
<glyph glyph-name="D" horiz-adv-x="646" unicode="D" d="M228 531v-398h67q68 0 106.5 52t38.5 153q0 193 -156 193h-56zM56 0v665h233q153 0 238 -77.5t85 -232.5q0 -182 -90.5 -268.5t-228.5 -86.5h-237z"/>
<glyph glyph-name="E" horiz-adv-x="528" unicode="E" d="M56 0v665h435v-150h-263v-101h226v-150h-226v-114h270v-150h-442z"/>
<glyph glyph-name="F" horiz-adv-x="539" unicode="F" d="M56 665h459v-150h-287v-109h238v-150h-238v-256h-172v665z"/>
<glyph glyph-name="G" horiz-adv-x="640" unicode="G" d="M589 343v-287q-95 -68 -248 -68q-144 0 -225.5 87t-81.5 256q0 93 27 162.5t72.5 108t97.5 57t109 18.5q160 0 252 -132l-125 -92q-61 80 -129 80q-60 0 -93.5 -49t-33.5 -143q0 -215 135 -215q44 0 70 12v205h173z"/>
<glyph glyph-name="H" horiz-adv-x="667" unicode="H" d="M438 665h173v-665h-173v258h-210v-258h-172v665h172v-256h210v256z"/>
<glyph glyph-name="I" horiz-adv-x="292" unicode="I" d="M232 0h-172v665h172v-665z"/>
<glyph glyph-name="J" horiz-adv-x="443" unicode="J" d="M2 37l48 127q54 -32 98 -32q71 0 71 79v454h172v-439q0 -68 -6 -97q-14 -65 -68 -103t-132 -38q-49 0 -100 14t-83 35z"/>
<glyph glyph-name="K" horiz-adv-x="596" unicode="K" d="M599 665l-191 -275l194 -390h-196l-120 246l-59 -81v-165h-171v665h171v-268l182 268h190z"/>
<glyph glyph-name="L" horiz-adv-x="515" unicode="L" d="M56 0v665h173v-514h265v-151h-438z"/>
<glyph glyph-name="M" horiz-adv-x="783" unicode="M" d="M397 287l135 378h177l35 -665h-164l-19 351h-3l-107 -284h-120l-106 274h-4l-19 -341h-163l38 665h179l137 -378h4z"/>
<glyph glyph-name="N" horiz-adv-x="663" unicode="N" d="M436 665h171v-665h-152l-226 369h-3v-369h-170v665h159l219 -362h2v362z"/>
<glyph glyph-name="O" horiz-adv-x="666" unicode="O" d="M211 338q0 -208 126 -208q64 0 91.5 56t27.5 142q0 36 -5.5 68.5t-18 65.5t-38 52.5t-61.5 19.5q-63 0 -92.5 -56.5t-29.5 -139.5zM631 331q0 -167 -81 -255t-220 -88q-141 0 -218.5 87.5t-77.5 255.5q0 74 18.5 134t48.5 98.5t70.5 65t83.5 37.5t88 11q60 0 110.5 -19 t91 -58.5t63.5 -108t23 -160.5z"/>
<glyph glyph-name="P" horiz-adv-x="572" unicode="P" d="M228 354h39q53 0 80.5 20t27.5 69t-24.5 68t-74.5 19h-48v-176zM228 221v-221h-172v665h244q119 0 185.5 -54.5t66.5 -156.5q0 -113 -74.5 -173t-198.5 -60h-51z"/>
<glyph glyph-name="Q" horiz-adv-x="670" unicode="Q" d="M334 85q-42 30 -84 30q-47 0 -47 -37q0 -14 11 -24.5t35 -10.5q51 0 85 42zM320 352l-26 -89q-22 -2 -32 -2q-93 0 -154 50.5t-61 139.5q0 104 72.5 165t187.5 61q132 0 217 -79t85 -237q0 -142 -71 -259q66 -62 124 -99t130 -47l-32 -129q-82 11 -165.5 59t-147.5 116 q-94 -79 -204 -79q-99 0 -144 43.5t-45 107.5q0 66 49.5 109t136.5 43q83 0 159 -40q34 73 34 159q0 84 -31.5 137.5t-98.5 53.5q-42 0 -66.5 -22.5t-24.5 -64.5q0 -43 27 -65.5t81 -31.5z"/>
<glyph glyph-name="R" horiz-adv-x="608" unicode="R" d="M228 381h65q82 0 82 81q0 39 -23 54t-72 15h-52v-150zM228 249v-249h-172v665h238q123 0 190 -44t67 -145q0 -59 -30 -103t-73 -66q28 -14 44 -52l112 -255h-184l-92 211q-17 38 -53 38h-47z"/>
<glyph glyph-name="S" horiz-adv-x="544" unicode="S" d="M12 57l58 141q37 -23 93 -42t97 -19q69 0 69 58q0 19 -15 33.5t-32.5 21.5t-53.5 17q-40 12 -67 24.5t-59 35t-48.5 58t-16.5 83.5q0 98 67.5 153.5t174.5 55.5q69 0 133.5 -27t110.5 -72l-89 -113q-92 68 -155 68q-26 0 -44.5 -13t-18.5 -39q0 -20 16 -35t34.5 -22 t57.5 -20q42 -13 69.5 -26t58 -35.5t46 -58t15.5 -83.5q0 -102 -70 -157.5t-184 -55.5q-69 0 -139 22t-108 47z"/>
<glyph glyph-name="T" horiz-adv-x="563" unicode="T" d="M16 665h532v-150h-184v-515h-171v515h-177v150z"/>
<glyph glyph-name="U" horiz-adv-x="629" unicode="U" d="M51 665h172v-435q0 -99 94 -99q40 0 64.5 24t24.5 70v440h172v-460q0 -100 -73 -158.5t-192 -58.5q-132 0 -197 56t-65 176v445z"/>
<glyph glyph-name="V" horiz-adv-x="621" unicode="V" d="M398 0h-181l-214 665h175l131 -455h6l134 455h169z"/>
<glyph glyph-name="W" horiz-adv-x="814" unicode="W" d="M496 0l-80 351h-4l-83 -351h-183l-141 665h172l79 -411h5l72 361h167l70 -362h5l62 412h172l-133 -665h-180z"/>
<glyph glyph-name="X" horiz-adv-x="651" unicode="X" d="M451 665h193l-213 -315l227 -350h-198l-132 210l-135 -210h-201l234 349l-207 316h198l115 -189z"/>
<glyph glyph-name="Y" horiz-adv-x="594" unicode="Y" d="M422 665h179l-222 -409v-256h-171v255l-215 410h189l115 -240h4z"/>
<glyph glyph-name="Z" horiz-adv-x="525" unicode="Z" d="M497 565l-275 -433h285v-132h-485v106l269 428h-264v131h470v-100z"/>
<glyph glyph-name="bracketleft" horiz-adv-x="303" unicode="[" d="M59 -179v906h238v-105h-86v-696h86v-105h-238z"/>
<glyph glyph-name="backslash" horiz-adv-x="462" unicode="\" d="M17 719l141 51l294 -837l-143 -49z"/>
<glyph glyph-name="bracketright" horiz-adv-x="303" unicode="]" d="M244 727v-906h-238v105h86v696h-86v105h238z"/>
<glyph glyph-name="asciicircum" horiz-adv-x="575" unicode="^" d="M534 295l-136 -20l-107 233l-107 -233l-136 21l190 390h108z"/>
<glyph glyph-name="underscore" horiz-adv-x="500" unicode="_" d="M0 -164v90h500v-90h-500z"/>
<glyph glyph-name="grave" horiz-adv-x="500" unicode="`" d="M235 820l124 -205l-48 -41q-95 70 -135 111q-34 34 -34 58q0 53 93 77z"/>
<glyph glyph-name="a" horiz-adv-x="541" unicode="a" d="M324 161v241q-19 7 -46 7q-45 0 -66 -46t-21 -118q0 -141 72 -141q28 0 44.5 17t16.5 40zM490 487v-379l11 -108h-142l-7 47l-6 1q-40 -63 -129 -63q-192 0 -192 248q0 136 69 215t202 79q89 0 194 -40z"/>
<glyph glyph-name="b" d="M218 361v-251q25 -10 50 -10q46 0 63 39t17 117q0 71 -17 112t-62 41q-22 0 -36.5 -13.5t-14.5 -34.5zM50 26v669h168v-192q41 24 96 24q95 0 148 -63t53 -186q0 -145 -66 -219.5t-189 -74.5q-56 0 -116 12t-94 30z" unicode="b"/>
<glyph glyph-name="c" horiz-adv-x="462" unicode="c" d="M293 117q48 0 105 40l59 -113q-75 -59 -188 -59q-114 0 -179 68.5t-65 196.5q0 71 21.5 126t57.5 87t78.5 48t89.5 16q130 0 196 -104l-102 -87q-43 59 -87 59q-41 0 -63.5 -35.5t-22.5 -102.5q0 -140 100 -140z"/>
<glyph glyph-name="d" horiz-adv-x="541" unicode="d" d="M324 159v242q-19 7 -39 7q-94 0 -94 -164q0 -140 70 -140q28 0 45.5 17t17.5 38zM276 527q28 0 48 -5v173h166v-586l11 -109h-140l-9 48h-6q-39 -63 -124 -63q-197 0 -197 246q0 132 67 214t184 82z"/>
<glyph glyph-name="e" horiz-adv-x="470" unicode="e" d="M312 369q0 19 -10.5 30t-28.5 11q-37 0 -60.5 -33t-25.5 -85q47 3 86 23t39 54zM282 527q81 0 128 -39.5t47 -116.5q0 -51 -26 -87.5t-69.5 -55t-82.5 -26.5t-84 -11q3 -36 29 -59t70 -23q60 0 124 42l44 -110q-6 -6 -26.5 -17.5t-68 -25.5t-97.5 -14q-126 0 -185.5 68.5 t-59.5 189.5q0 75 27.5 138.5t87.5 105t142 41.5z"/>
<glyph glyph-name="f" horiz-adv-x="358" unicode="f" d="M220 381v-591h-167v731q0 32 3 56.5t14.5 53t31 46.5t55 30.5t84.5 12.5q37 0 84.5 -9.5t75.5 -24.5l-39 -110q-44 22 -92 22q-50 0 -50 -59v-27h138v-131h-138z"/>
<glyph glyph-name="g" horiz-adv-x="537" unicode="g" d="M222 -95q0 -50 46 -50q36 0 47.5 33.5t11.5 110.5v51q-47 -27 -76 -66t-29 -79zM325 204v199q-20 5 -41 5q-48 0 -70.5 -40.5t-22.5 -100.5q0 -28 2.5 -48t9 -41t22 -32t38.5 -11q26 0 44 18.5t18 50.5zM252 -265q-88 0 -134 38t-46 106q0 98 105 174q-64 9 -108.5 66.5 t-44.5 145.5q0 126 71.5 194t190.5 68q113 0 205 -40v-389q0 -75 -3 -117q-8 -118 -67 -182t-169 -64z"/>
<glyph glyph-name="h" d="M213 0h-167v695h167v-211q48 43 114 43q162 0 162 -180v-347h-167v325q0 37 -10 55.5t-36 18.5q-30 0 -46.5 -20t-16.5 -51v-328z" unicode="h"/>
<glyph glyph-name="i" horiz-adv-x="267" unicode="i" d="M48 658q0 35 24.5 59t64.5 24q39 0 64 -24t25 -59q0 -36 -25 -59.5t-64 -23.5q-41 0 -65 23t-24 60zM221 0h-168v512h168v-512z"/>
<glyph glyph-name="j" horiz-adv-x="266" unicode="j" d="M51 658q0 35 24.5 59t64.5 24q39 0 64 -24t25 -59q0 -36 -25 -59.5t-65 -23.5t-64 23t-24 60zM53 -14v526h167v-536q0 -35 -2 -58.5t-11.5 -53t-27 -47t-49.5 -29.5t-78 -12q-87 0 -154 39l42 115q36 -18 64 -18q49 0 49 74z"/>
<glyph glyph-name="k" horiz-adv-x="529" unicode="k" d="M345 370q0 37 -36 37q-33 0 -58 -38t-30 -87q50 4 87 29.5t37 58.5zM341 -2l-97 222q-2 -1 -25 -4v-216h-169v695h169v-286h4q56 118 167 118q52 0 87 -30.5t35 -89.5q0 -52 -30.5 -94t-75.5 -67l129 -248h-194z"/>
<glyph glyph-name="l" horiz-adv-x="347" unicode="l" d="M51 695h167v-514q0 -35 10 -50.5t33 -15.5q19 0 58 17l36 -111q-56 -37 -140 -37q-45 0 -76.5 10.5t-48.5 26t-26 42t-11 48.5t-2 57v527z"/>
<glyph glyph-name="m" horiz-adv-x="801" unicode="m" d="M220 0h-167v409l-12 103h138l11 -54q51 69 138 69q93 0 132 -66q48 66 137 66q76 0 117 -44t41 -133v-350h-167v321q0 39 -9 58.5t-37 19.5q-55 0 -55 -74v-325h-167v321q0 39 -8.5 58.5t-36.5 19.5q-55 0 -55 -75v-324z"/>
<glyph glyph-name="n" horiz-adv-x="542" unicode="n" d="M219 0h-166v409l-12 103h139l10 -55q52 70 146 70q76 0 118 -44t42 -133v-350h-168v321q0 40 -8.5 59t-35.5 19q-30 0 -47.5 -21t-17.5 -54v-324z"/>
<glyph glyph-name="o" horiz-adv-x="521" unicode="o" d="M24 252q0 75 22.5 131t59.5 86t78 44t85 14q29 0 55.5 -4t61 -20t59 -42t41.5 -76t17 -117q0 -136 -70 -210t-178 -74q-110 0 -170.5 67t-60.5 201zM262 106q36 0 52 36t16 111q0 79 -15.5 116.5t-52.5 37.5q-68 0 -68 -136q0 -77 14 -121t54 -44z"/>
<glyph glyph-name="p" horiz-adv-x="541" unicode="p" d="M348 252q0 150 -90 150q-20 0 -40 -6v-273q25 -13 47 -13q45 0 64 42t19 100zM218 -2v-208h-168v699q111 38 223 38q243 0 243 -268q0 -132 -59.5 -203.5t-164.5 -71.5q-41 0 -74 14z"/>
<glyph glyph-name="q" horiz-adv-x="539" unicode="q" d="M322 163v239q-18 5 -36 5q-49 0 -71.5 -45.5t-22.5 -113.5q0 -35 1.5 -55.5t8 -43.5t21.5 -34t39 -11q26 0 43 17.5t17 41.5zM488 490v-700h-167v231h-3q-38 -36 -97 -36q-93 0 -144.5 64.5t-51.5 192.5t69 206.5t193 78.5q107 0 201 -37z"/>
<glyph glyph-name="r" horiz-adv-x="389" unicode="r" d="M221 313v-313h-167v414l-13 98h136l13 -71q19 44 51.5 65t68.5 21q45 0 83 -19l-27 -139q-32 17 -72 17q-33 0 -52.5 -19.5t-20.5 -53.5z"/>
<glyph glyph-name="s" horiz-adv-x="436" unicode="s" d="M10 40l43 118q31 -20 74 -36t75 -16q48 0 48 38q0 20 -16 30.5t-49 20.5q-37 12 -59.5 21.5t-48 28t-38 46.5t-12.5 67q0 80 56.5 124.5t143.5 44.5q119 0 201 -75l-76 -96q-67 52 -116 52q-46 0 -46 -36q0 -20 17 -32t52 -23t57 -21t48 -28.5t39 -46.5t13 -66 q0 -82 -55 -126.5t-149 -44.5q-63 0 -118 17.5t-84 38.5z"/>
<glyph glyph-name="t" horiz-adv-x="371" unicode="t" d="M50 695h169v-183h125v-131h-125v-202q0 -69 60 -69q24 0 54 16l36 -105q-57 -37 -142 -37q-49 0 -83.5 12t-52.5 28.5t-27.5 46t-11.5 52.5t-2 60v512z"/>
<glyph glyph-name="u" horiz-adv-x="545" unicode="u" d="M326 512h167v-415l11 -97h-141l-7 48h-4q-46 -61 -132 -61q-170 0 -170 181v344h168v-322q0 -39 9 -57.5t38 -18.5q26 0 43.5 19t17.5 49v330z"/>
<glyph glyph-name="v" horiz-adv-x="525" unicode="v" d="M297 512h164q34 -114 34 -230q0 -145 -64.5 -220t-189.5 -75q-97 0 -144 45t-47 137v343h168v-323q0 -40 8 -56.5t34 -16.5q71 0 71 161q0 97 -34 235z"/>
<glyph glyph-name="w" horiz-adv-x="779" unicode="w" d="M551 512h164q34 -118 34 -230q0 -141 -57.5 -218t-168.5 -77q-96 0 -137 66q-57 -66 -155 -66q-181 0 -181 181v344h168v-329q0 -36 8 -52t31 -16q25 0 39.5 17t14.5 46v334h167v-320q0 -29 1.5 -42.5t10.5 -24t27 -10.5q66 0 66 164q0 103 -32 233z"/>
<glyph glyph-name="x" horiz-adv-x="504" unicode="x" d="M336 512h172l-163 -249l170 -263h-182l-81 138l-82 -138h-181l174 261l-158 251h178l74 -130z"/>
<glyph glyph-name="y" horiz-adv-x="540" unicode="y" d="M226 -100q0 -21 11 -34.5t34 -13.5q59 0 59 110v85q-104 -62 -104 -147zM494 113q0 -110 -3 -140q-22 -239 -241 -239q-84 0 -129 36.5t-45 101.5q0 98 99 170q-125 24 -125 159v311h168v-288q0 -47 9 -67.5t42 -20.5q25 0 41 18t16 49v309h168v-399z"/>
<glyph glyph-name="z" horiz-adv-x="429" unicode="z" d="M424 512v-93l-202 -201l54 -23q149 -64 152 -210q0 -41 -7 -73q-19 -84 -83 -130.5t-147 -46.5q-93 0 -141 43t-48 120q0 132 146 211q-21 12 -89 39v87l153 148h-196v129h408zM150 -83q0 -59 53 -59q33 0 52 29t19 73q0 58 -36 86q-39 -24 -63.5 -58t-24.5 -71z"/>
<glyph glyph-name="braceleft" horiz-adv-x="339" unicode="{" d="M176 281q38 -12 54 -38.5t16 -78.5q0 -26 -6.5 -87t-6.5 -82q0 -38 9.5 -56t39.5 -18q15 0 38 4l12 -101q-47 -10 -94 -10q-127 0 -149 106q-4 16 -4 38q0 32 10 157q2 24 2 32q0 41 -15.5 61t-51.5 21v104q38 1 53.5 23t15.5 69q0 3 -0.5 10.5t-0.5 11.5q-8 122 -8 142 q0 23 4 39q11 48 49 75.5t100 27.5q48 0 93 -10l-12 -99q-23 4 -38 4q-30 0 -39.5 -18t-9.5 -55q0 -21 5 -72t5 -77q0 -92 -71 -123z"/>
<glyph glyph-name="bar" horiz-adv-x="332" unicode="|" d="M95 -88v835h142v-835h-142z"/>
<glyph glyph-name="braceright" horiz-adv-x="339" unicode="}" d="M163 281q-71 31 -71 123q0 26 5 77t5 72q0 37 -9.5 55t-39.5 18q-15 0 -38 -4l-12 99q45 10 93 10q62 0 100 -27.5t49 -75.5q4 -16 4 -39q0 -20 -8 -142q0 -4 -0.5 -11.5t-0.5 -10.5q0 -47 15.5 -69t53.5 -23v-104q-36 -1 -51.5 -21t-15.5 -61q0 -8 2 -32 q10 -125 10 -157q0 -22 -4 -38q-22 -106 -149 -106q-47 0 -94 10l12 101q23 -4 38 -4q30 0 39.5 18t9.5 56q0 21 -6.5 82t-6.5 87q0 52 16 78.5t54 38.5z"/>
<glyph glyph-name="asciitilde" horiz-adv-x="625" unicode="~" d="M430 214q-53 0 -124 36t-94 36q-42 0 -99 -70l-95 81q40 57 80.5 90t94.5 33q43 0 115 -37.5t106 -37.5q50 0 96 69l97 -79q-64 -121 -177 -121z"/>
<glyph glyph-name="uni00A0" horiz-adv-x="216" unicode=" "/>
<glyph glyph-name="exclamdown" horiz-adv-x="267" unicode="¡" d="M223 432q0 -32 -23 -55t-59 -23q-40 0 -62.5 21.5t-22.5 56.5q0 33 22 56.5t60 23.5q40 0 62.5 -22.5t22.5 -57.5zM210 -34v-106q0 -27 -17.5 -43.5t-54.5 -16.5q-74 0 -74 61v105l24 333h97z"/>
<glyph glyph-name="cent" d="M226 -60v126q-76 20 -121 81t-45 166q0 193 166 254v118h155v-120q75 -22 122 -95l-102 -85q-41 58 -87 58q-38 0 -61.5 -33.5t-23.5 -91.5q0 -126 87 -126q46 0 90 50l95 -91q-51 -66 -120 -85v-126h-155z" unicode="¢"/>
<glyph glyph-name="sterling" horiz-adv-x="586" unicode="£" d="M46 128v112h87l43 206q24 113 75.5 162t153.5 49q59 0 108.5 -26t77.5 -57l-81 -96q-55 49 -98 49q-35 0 -50.5 -20.5t-26.5 -71.5l-41 -195h139v-111h-160l-11 -47q-18 -78 -79 -130l2 -3q51 18 86 18q32 0 88 -10.5t86 -10.5q45 0 81 14l-17 -134q-37 -9 -74 -9 q-48 0 -142.5 17.5t-143.5 17.5q-76 0 -147 -34v128q36 15 59 40t34 71l17 71h-66z"/>
<glyph glyph-name="yen" horiz-adv-x="558" unicode="¥" d="M188 125h-135v98h135v62h-135v98h81l-127 261h171l100 -230h4l104 230h167l-136 -261h79v-98h-137v-62h137v-98h-137v-125h-171v125z"/>
<glyph glyph-name="brokenbar" horiz-adv-x="333" unicode="¦" d="M95 401v346h142v-346h-142zM95 -88v372h142v-372h-142z"/>
<glyph glyph-name="section" horiz-adv-x="563" unicode="§" d="M522 96v17q0 60 -18 111.5t-44.5 85t-57.5 63t-57.5 49t-44.5 40.5t-18 39q0 24 17 37t46 13q32 0 76 -16l22 110q-57 22 -127 22q-54 0 -92.5 -16t-57.5 -42t-27 -50.5t-8 -49.5q0 -62 30 -108l3 1v-5q18 -27 51 -55t62.5 -51.5t57.5 -53.5t45.5 -73t18.5 -98q1 0 2 -2 l1 -2zM164 397q1 -55 18.5 -98t45.5 -73t57.5 -53.5t62.5 -51.5t51 -55v-5l3 1q30 -46 30 -108q0 -25 -8 -49.5t-27 -50.5t-57.5 -42t-92.5 -16q-70 0 -127 22l22 110q44 -16 76 -16q29 0 46 13t17 37q0 18 -18 39t-44.5 40.5t-57.5 49t-57.5 63t-44.5 85t-18 111.5v17 l120 34q1 -1 3 -4z"/>
<glyph glyph-name="dieresis" horiz-adv-x="500" unicode="¨" d="M64 677q0 30 21 51t56 21q34 0 55.5 -21t21.5 -51q0 -32 -21.5 -52.5t-55.5 -20.5q-35 0 -56 20.5t-21 52.5zM282 677q0 30 21.5 51t56.5 21q34 0 55.5 -21t21.5 -51q0 -32 -22 -52.5t-56 -20.5q-35 0 -56 20.5t-21 52.5z"/>
<glyph glyph-name="copyright" horiz-adv-x="815" unicode="©" d="M681 326q0 122 -78.5 200t-198.5 78q-122 0 -195.5 -77.5t-73.5 -200.5q0 -121 75 -197.5t194 -76.5q123 0 200 75.5t77 198.5zM765 332q0 -155 -101.5 -253.5t-260.5 -98.5q-162 0 -257.5 96.5t-95.5 249.5q0 152 99 251t254 99q158 0 260 -98t102 -246zM567 456 l-72 -57q-37 47 -84 47q-37 0 -58 -31.5t-21 -85.5q0 -56 23 -87.5t60 -31.5q29 0 49.5 10t45.5 32l52 -66q-62 -66 -148 -66q-52 0 -91 19t-60 51t-30.5 66t-9.5 70q0 101 52.5 156.5t138.5 55.5q51 0 92.5 -24.5t60.5 -57.5z"/>
<glyph glyph-name="ordfeminine" horiz-adv-x="438" unicode="ª" d="M254 373v150q-16 4 -30 4q-29 0 -43 -27.5t-14 -70.5q0 -89 48 -89q18 0 28.5 9.5t10.5 23.5zM375 585v-246l8 -75h-103l-6 40h-4q-33 -48 -89 -48q-71 0 -103 46t-32 118q0 87 50.5 139t140.5 52q65 0 138 -26z"/>
<glyph glyph-name="guillemotleft" horiz-adv-x="594" unicode="«" d="M562 410l-111 -148l104 -159l-60 -56q-51 37 -110.5 93t-79.5 91q-11 18 -11 36q0 28 33 58q85 81 174 145zM315 410l-111 -148l104 -159l-60 -56q-51 37 -110.5 93t-79.5 91q-11 18 -11 36q0 28 33 58q85 81 174 145z"/>
<glyph glyph-name="logicalnot" d="M352 140v150h-300v132h429v-282h-129z" unicode="¬"/>
<glyph glyph-name="uni00AD" horiz-adv-x="322" unicode="­" d="M34 222v124h254v-124h-254z"/>
<glyph glyph-name="registered" horiz-adv-x="463" unicode="®" d="M376 481q0 63 -42 104t-105 41q-64 0 -103 -40.5t-39 -104.5t40 -105t102 -41q64 0 105.5 40.5t41.5 105.5zM433 483q0 -86 -57 -141.5t-147 -55.5q-91 0 -145 54.5t-54 140.5q0 85 56 140.5t143 55.5q89 0 146.5 -55.5t57.5 -138.5zM212 500h6q36 0 36 28q0 14 -9 18.5 t-27 4.5h-6v-51zM287 459l36 -81h-55l-31 70q-6 14 -16 14h-9v-84h-50v211h76q70 0 70 -57q0 -42 -34 -58q8 -4 13 -15z"/>
<glyph glyph-name="macron" horiz-adv-x="500" unicode="¯" d="M90 618v113h318v-113h-318z"/>
<glyph glyph-name="degree" horiz-adv-x="298" unicode="°" d="M101 599q0 -24 13 -40t35 -16t35 16t13 40q0 25 -12.5 40.5t-35.5 15.5q-48 0 -48 -56zM27 599q0 54 34.5 89.5t87.5 35.5q56 0 89 -34.5t33 -84.5q0 -57 -35 -94t-90 -37t-87 35.5t-32 89.5z"/>
<glyph glyph-name="plusminus" d="M198 366v146h138v-146h134v-134h-134v-99h134v-133h-405v133h133v99h-133v134h133z" unicode="±"/>
<glyph glyph-name="twosuperior" horiz-adv-x="377" unicode="²" d="M93 599l-60 72q76 66 160 66q66 0 101 -29.5t35 -78.5q0 -63 -59 -125l-65 -69h134v-94h-290v71l122 135q33 41 33 63q0 30 -31 30q-30 0 -80 -41z"/>
<glyph glyph-name="threesuperior" horiz-adv-x="377" unicode="³" d="M94 612l-50 70q71 55 162 55q57 0 89.5 -27t32.5 -70q0 -53 -42 -83q47 -52 47 -100q0 -52 -38 -86.5t-114 -34.5q-66 0 -138 32l32 84q53 -29 102 -29q41 0 41 31q0 14 -21 48q-16 -6 -75 -16l-25 73q35 7 75 20q40 16 40 41q0 24 -29 24q-33 0 -89 -32z"/>
<glyph glyph-name="acute" horiz-adv-x="500" unicode="´" d="M140 615l124 205q35 -9 63.5 -28t28.5 -49q0 -24 -33 -58q-49 -48 -135 -111z"/>
<glyph glyph-name="mu" horiz-adv-x="578" unicode="µ" d="M516 512v-382q0 -32 25 -32q10 0 28 6l14 -93q-49 -24 -101 -24q-75 0 -91 71q-11 -34 -37.5 -53.5t-61.5 -19.5q-53 0 -81 39v-240h-149v728h157v-294q0 -64 12.5 -90t54.5 -26q38 0 54.5 34t16.5 104v272h159z"/>
<glyph glyph-name="paragraph" horiz-adv-x="565" unicode="¶" d="M349 75v473h-69v-337q-106 1 -175 55t-69 165q0 119 69.5 176.5t185.5 57.5h218v-572q0 -70 -9.5 -114t-38 -83.5t-83.5 -63.5t-143 -40l-33 139q86 17 116.5 48.5t30.5 95.5z"/>
<glyph glyph-name="periodcentered" horiz-adv-x="315" unicode="·" d="M74 307q0 35 22 57t60 22q40 0 62 -21t22 -57q0 -35 -21.5 -57.5t-59.5 -22.5q-41 0 -63 22t-22 57z"/>
<glyph glyph-name="cedilla" horiz-adv-x="500" unicode="¸" d="M212 3h69l-17 -60q45 -5 71.5 -27.5t26.5 -59.5q0 -58 -40.5 -82t-92.5 -24q-53 0 -99 18l20 68q36 -13 67 -13q50 0 50 31q0 35 -92 35z"/>
<glyph glyph-name="onesuperior" horiz-adv-x="377" unicode="¹" d="M74 431h71v182l-72 -30l-35 72l132 76h97l-6 -79v-221h65v-90h-252v90z"/>
<glyph glyph-name="ordmasculine" horiz-adv-x="414" unicode="º" d="M40 430q0 49 16 86t43 56.5t55.5 29t58.5 9.5q28 0 52.5 -6t52.5 -22.5t44.5 -52.5t16.5 -88q0 -88 -49.5 -137t-124.5 -49q-77 0 -121 44.5t-44 129.5zM209 342q24 0 35 21t11 69q0 50 -10.5 72t-35.5 22q-45 0 -45 -81q0 -50 9.5 -76.5t35.5 -26.5z"/>
<glyph glyph-name="guillemotright" horiz-adv-x="595" unicode="»" d="M391 262l-112 148l62 60q94 -68 174 -145q33 -30 33 -58q0 -18 -11 -36q-20 -35 -79.5 -91t-110.5 -93l-60 56zM144 262l-112 148l62 60q94 -68 174 -145q33 -30 33 -58q0 -18 -11 -36q-20 -35 -79.5 -91t-110.5 -93l-60 56z"/>
<glyph glyph-name="onequarter" horiz-adv-x="850" unicode="¼" d="M700 260h70v-99h52v-82h-53v-80h-114v82h-155v62l121 261l91 -44l-95 -199h47zM336 -14l-103 44l292 626l105 -43zM52 351h71v182l-72 -30l-35 72l132 76h97l-6 -79v-221h65v-90h-252v90z"/>
<glyph glyph-name="onehalf" horiz-adv-x="850" unicode="½" d="M585 258l-60 72q76 66 160 66q66 0 101 -29.5t35 -78.5q0 -63 -59 -125l-65 -69h134v-94h-290v71l122 135q33 41 33 63q0 30 -31 30q-30 0 -80 -41zM339 -14l-103 44l292 626l105 -43zM60 351h71v182l-72 -30l-35 72l132 76h97l-6 -79v-221h65v-90h-252v90z"/>
<glyph glyph-name="threequarters" horiz-adv-x="850" unicode="¾" d="M709 260h70v-99h52v-82h-53v-80h-114v82h-155v62l121 261l91 -44l-95 -199h47zM331 -14l-103 44l292 626l105 -43zM71 532l-50 70q71 55 162 55q57 0 89.5 -27t32.5 -70q0 -53 -42 -83q47 -52 47 -100q0 -52 -38 -86.5t-114 -34.5q-66 0 -138 32l32 84q53 -29 102 -29 q41 0 41 31q0 14 -21 48q-16 -6 -75 -16l-25 73q35 7 75 20q40 16 40 41q0 24 -29 24q-33 0 -89 -32z"/>
<glyph glyph-name="questiondown" horiz-adv-x="377" unicode="¿" d="M183 -26q0 -55 59 -55q32 0 86 15l23 -110q-57 -24 -140 -24q-48 0 -84 11t-55.5 27t-32 38t-16 39.5t-3.5 35.5q0 71 31.5 110.5t103.5 86.5q42 27 42 80v71h125q10 -72 10 -111t-13 -66.5t-28.5 -40.5t-42.5 -29q-6 -3 -9 -5q-29 -18 -42.5 -33t-13.5 -40zM343 432 q0 -32 -23 -55t-59 -23q-40 0 -62.5 21.5t-22.5 56.5q0 33 22 56.5t60 23.5q40 0 62.5 -22.5t22.5 -57.5z"/>
<glyph glyph-name="Agrave" horiz-adv-x="647" unicode="À" d="M261 917l174 -166l-37 -51q-117 51 -158 75q-48 28 -48 61q0 42 69 81zM312 505l-69 -237h140l-67 237h-4zM169 0h-165l216 665h193l230 -665h-183l-45 142h-201z"/>
<glyph glyph-name="Aacute" horiz-adv-x="647" unicode="Á" d="M206 751l174 168q69 -39 69 -82q0 -19 -11 -32.5t-37 -29.5q-65 -37 -158 -74zM312 505l-69 -237h140l-67 237h-4zM169 0h-165l216 665h193l230 -665h-183l-45 142h-201z"/>
<glyph glyph-name="Acircumflex" horiz-adv-x="647" unicode="Â" d="M197 699l-50 43q84 102 114 129q28 25 52 25q26 0 50 -23q68 -64 118 -129l-49 -45l-119 85zM312 505l-69 -237h140l-67 237h-4zM169 0h-165l216 665h193l230 -665h-183l-45 142h-201z"/>
<glyph glyph-name="Atilde" horiz-adv-x="647" unicode="Ã" d="M175 726l-10 89q39 31 87 31q28 0 72.5 -13.5t67.5 -13.5q32 0 65 19l9 -94q-34 -20 -70 -20q-24 0 -74 12t-70 12q-39 0 -77 -22zM312 505l-69 -237h140l-67 237h-4zM169 0h-165l216 665h193l230 -665h-183l-45 142h-201z"/>
<glyph glyph-name="Adieresis" horiz-adv-x="647" unicode="Ä" d="M126 784q0 31 21 51.5t56 20.5q34 0 55.5 -20.5t21.5 -51.5t-21.5 -51.5t-55.5 -20.5q-35 0 -56 20.5t-21 51.5zM345 784q0 31 21.5 51.5t56.5 20.5q34 0 55.5 -20.5t21.5 -51.5t-22 -51.5t-56 -20.5q-35 0 -56 20.5t-21 51.5zM312 505l-69 -237h140l-67 237h-4zM169 0 h-165l216 665h193l230 -665h-183l-45 142h-201z"/>
<glyph glyph-name="Aring" horiz-adv-x="647" unicode="Å" d="M285 692q0 -37 32 -37q31 0 31 37t-31 37q-32 0 -32 -37zM312 505l-69 -237h140l-67 237h-4zM218 692q0 42 28 70.5t71 28.5q47 0 73 -27.5t26 -67.5q0 -18 -4 -30l231 -666h-183l-45 142h-201l-45 -142h-165l217 665q-3 13 -3 27z"/>
<glyph glyph-name="AE" horiz-adv-x="836" unicode="Æ" d="M311 499l-64 -214h130l-62 214h-4zM458 0l-52 159h-189l-50 -159h-165l222 665h575v-150h-312l35 -101h240v-150h-209l39 -114h214v-150h-348z"/>
<glyph glyph-name="Ccedilla" horiz-adv-x="593" unicode="Ç" d="M351 129q69 0 140 66l87 -112q-101 -92 -229 -95l-12 -45q45 -5 71.5 -27.5t26.5 -59.5q0 -58 -40.5 -82t-92.5 -24q-53 0 -99 18l20 68q36 -13 67 -13q50 0 50 31q0 35 -92 35l33 104q-116 17 -181.5 102.5t-65.5 231.5q0 94 27.5 164.5t74 109.5t99.5 57.5t112 18.5 q152 0 241 -138l-122 -88q-60 83 -127 83q-58 0 -93 -51t-35 -146q0 -98 34.5 -153t105.5 -55z"/>
<glyph glyph-name="Egrave" horiz-adv-x="528" unicode="È" d="M203 917l174 -166l-37 -51q-117 51 -158 75q-48 28 -48 61q0 42 69 81zM56 0v665h435v-150h-263v-101h226v-150h-226v-114h270v-150h-442z"/>
<glyph glyph-name="Eacute" horiz-adv-x="528" unicode="É" d="M167 751l174 168q69 -39 69 -82q0 -19 -11 -32.5t-37 -29.5q-65 -37 -158 -74zM56 0v665h435v-150h-263v-101h226v-150h-226v-114h270v-150h-442z"/>
<glyph glyph-name="Ecircumflex" horiz-adv-x="528" unicode="Ê" d="M154 699l-50 43q84 102 114 129q28 25 52 25q26 0 50 -23q68 -64 118 -129l-49 -45l-119 85zM56 0v665h435v-150h-263v-101h226v-150h-226v-114h270v-150h-442z"/>
<glyph glyph-name="Edieresis" horiz-adv-x="528" unicode="Ë" d="M81 784q0 31 21 51.5t56 20.5q34 0 55.5 -20.5t21.5 -51.5t-21.5 -51.5t-55.5 -20.5q-35 0 -56 20.5t-21 51.5zM300 784q0 31 21.5 51.5t56.5 20.5q34 0 55.5 -20.5t21.5 -51.5t-22 -51.5t-56 -20.5q-35 0 -56 20.5t-21 51.5zM56 0v665h435v-150h-263v-101h226v-150h-226 v-114h270v-150h-442z"/>
<glyph glyph-name="Igrave" horiz-adv-x="292" unicode="Ì" d="M81 917l174 -166l-37 -51q-117 51 -158 75q-48 28 -48 61q0 42 69 81zM232 0h-172v665h172v-665z"/>
<glyph glyph-name="Iacute" horiz-adv-x="292" unicode="Í" d="M35 751l174 168q69 -39 69 -82q0 -19 -11 -32.5t-37 -29.5q-65 -37 -158 -74zM232 0h-172v665h172v-665z"/>
<glyph glyph-name="Icircumflex" horiz-adv-x="292" unicode="Î" d="M29 699l-50 43q84 102 114 129q28 25 52 25q26 0 50 -23q68 -64 118 -129l-49 -45l-119 85zM232 0h-172v665h172v-665z"/>
<glyph glyph-name="Idieresis" horiz-adv-x="292" unicode="Ï" d="M-40 784q0 31 21 51.5t56 20.5q34 0 55.5 -20.5t21.5 -51.5t-21.5 -51.5t-55.5 -20.5q-35 0 -56 20.5t-21 51.5zM179 784q0 31 21.5 51.5t56.5 20.5q34 0 55.5 -20.5t21.5 -51.5t-22 -51.5t-56 -20.5q-35 0 -56 20.5t-21 51.5zM232 0h-172v665h172v-665z"/>
<glyph glyph-name="Eth" horiz-adv-x="657" unicode="Ð" d="M239 531v-142h133v-115h-133v-141h67q68 0 106.5 52t38.5 153q0 193 -156 193h-56zM5 274v115h62v276h233q153 0 238 -77.5t85 -232.5q0 -182 -90.5 -268.5t-228.5 -86.5h-237v274h-62z"/>
<glyph glyph-name="Ntilde" horiz-adv-x="663" unicode="Ñ" d="M195 726l-10 89q39 31 87 31q28 0 72.5 -13.5t67.5 -13.5q32 0 65 19l9 -94q-34 -20 -70 -20q-24 0 -74 12t-70 12q-39 0 -77 -22zM436 665h171v-665h-152l-226 369h-3v-369h-170v665h159l219 -362h2v362z"/>
<glyph glyph-name="Ograve" horiz-adv-x="666" unicode="Ò" d="M271 917l174 -166l-37 -51q-117 51 -158 75q-48 28 -48 61q0 42 69 81zM211 338q0 -208 126 -208q64 0 91.5 56t27.5 142q0 36 -5.5 68.5t-18 65.5t-38 52.5t-61.5 19.5q-63 0 -92.5 -56.5t-29.5 -139.5zM631 331q0 -167 -81 -255t-220 -88q-141 0 -218.5 87.5 t-77.5 255.5q0 74 18.5 134t48.5 98.5t70.5 65t83.5 37.5t88 11q60 0 110.5 -19t91 -58.5t63.5 -108t23 -160.5z"/>
<glyph glyph-name="Oacute" horiz-adv-x="666" unicode="Ó" d="M226 751l174 168q69 -39 69 -82q0 -19 -11 -32.5t-37 -29.5q-65 -37 -158 -74zM211 338q0 -208 126 -208q64 0 91.5 56t27.5 142q0 36 -5.5 68.5t-18 65.5t-38 52.5t-61.5 19.5q-63 0 -92.5 -56.5t-29.5 -139.5zM631 331q0 -167 -81 -255t-220 -88q-141 0 -218.5 87.5 t-77.5 255.5q0 74 18.5 134t48.5 98.5t70.5 65t83.5 37.5t88 11q60 0 110.5 -19t91 -58.5t63.5 -108t23 -160.5z"/>
<glyph glyph-name="Ocircumflex" horiz-adv-x="666" unicode="Ô" d="M219 699l-50 43q84 102 114 129q28 25 52 25q26 0 50 -23q68 -64 118 -129l-49 -45l-119 85zM211 338q0 -208 126 -208q64 0 91.5 56t27.5 142q0 36 -5.5 68.5t-18 65.5t-38 52.5t-61.5 19.5q-63 0 -92.5 -56.5t-29.5 -139.5zM631 331q0 -167 -81 -255t-220 -88 q-141 0 -218.5 87.5t-77.5 255.5q0 74 18.5 134t48.5 98.5t70.5 65t83.5 37.5t88 11q60 0 110.5 -19t91 -58.5t63.5 -108t23 -160.5z"/>
<glyph glyph-name="Otilde" horiz-adv-x="666" unicode="Õ" d="M192 726l-10 89q39 31 87 31q28 0 72.5 -13.5t67.5 -13.5q32 0 65 19l9 -94q-34 -20 -70 -20q-23 0 -73 12t-71 12q-39 0 -77 -22zM211 338q0 -208 126 -208q64 0 91.5 56t27.5 142q0 36 -5.5 68.5t-18 65.5t-38 52.5t-61.5 19.5q-63 0 -92.5 -56.5t-29.5 -139.5z M631 331q0 -167 -81 -255t-220 -88q-141 0 -218.5 87.5t-77.5 255.5q0 74 18.5 134t48.5 98.5t70.5 65t83.5 37.5t88 11q60 0 110.5 -19t91 -58.5t63.5 -108t23 -160.5z"/>
<glyph glyph-name="Odieresis" horiz-adv-x="666" unicode="Ö" d="M147 784q0 31 21 51.5t56 20.5q34 0 55.5 -20.5t21.5 -51.5t-21.5 -51.5t-55.5 -20.5q-35 0 -56 20.5t-21 51.5zM366 784q0 31 21.5 51.5t56.5 20.5q34 0 55.5 -20.5t21.5 -51.5t-22 -51.5t-56 -20.5q-35 0 -56 20.5t-21 51.5zM211 338q0 -208 126 -208q64 0 91.5 56 t27.5 142q0 36 -5.5 68.5t-18 65.5t-38 52.5t-61.5 19.5q-63 0 -92.5 -56.5t-29.5 -139.5zM631 331q0 -167 -81 -255t-220 -88q-141 0 -218.5 87.5t-77.5 255.5q0 74 18.5 134t48.5 98.5t70.5 65t83.5 37.5t88 11q60 0 110.5 -19t91 -58.5t63.5 -108t23 -160.5z"/>
<glyph glyph-name="multiply" d="M172 309l-104 104l97 97l105 -103l100 101l95 -95l-100 -102l102 -102l-98 -97l-102 102l-103 -103l-95 95z" unicode="×"/>
<glyph glyph-name="Oslash" horiz-adv-x="666" unicode="Ø" d="M211 338q0 -208 126 -208q64 0 91.5 56t27.5 142q0 36 -5.5 68.5t-18 65.5t-38 52.5t-61.5 19.5q-63 0 -92.5 -56.5t-29.5 -139.5zM244 -115l-139 56l39 103q-110 85 -110 287q0 74 18.5 134t48.5 98.5t70.5 65t83.5 37.5t88 11q21 0 42 -3l38 100l141 -55l-40 -101 q107 -87 107 -287q0 -167 -81 -255t-220 -88q-22 0 -45 3z"/>
<glyph glyph-name="Ugrave" horiz-adv-x="629" unicode="Ù" d="M256 917l174 -166l-37 -51q-117 51 -158 75q-48 28 -48 61q0 42 69 81zM51 665h172v-435q0 -99 94 -99q40 0 64.5 24t24.5 70v440h172v-460q0 -100 -73 -158.5t-192 -58.5q-132 0 -197 56t-65 176v445z"/>
<glyph glyph-name="Uacute" horiz-adv-x="629" unicode="Ú" d="M205 751l174 168q69 -39 69 -82q0 -19 -11 -32.5t-37 -29.5q-65 -37 -158 -74zM51 665h172v-435q0 -99 94 -99q40 0 64.5 24t24.5 70v440h172v-460q0 -100 -73 -158.5t-192 -58.5q-132 0 -197 56t-65 176v445z"/>
<glyph glyph-name="Ucircumflex" horiz-adv-x="629" unicode="Û" d="M200 699l-50 43q84 102 114 129q28 25 52 25q26 0 50 -23q68 -64 118 -129l-49 -45l-119 85zM51 665h172v-435q0 -99 94 -99q40 0 64.5 24t24.5 70v440h172v-460q0 -100 -73 -158.5t-192 -58.5q-132 0 -197 56t-65 176v445z"/>
<glyph glyph-name="Udieresis" horiz-adv-x="629" unicode="Ü" d="M128 784q0 31 21 51.5t56 20.5q34 0 55.5 -20.5t21.5 -51.5t-21.5 -51.5t-55.5 -20.5q-35 0 -56 20.5t-21 51.5zM347 784q0 31 21.5 51.5t56.5 20.5q34 0 55.5 -20.5t21.5 -51.5t-22 -51.5t-56 -20.5q-35 0 -56 20.5t-21 51.5zM51 665h172v-435q0 -99 94 -99 q40 0 64.5 24t24.5 70v440h172v-460q0 -100 -73 -158.5t-192 -58.5q-132 0 -197 56t-65 176v445z"/>
<glyph glyph-name="Yacute" horiz-adv-x="594" unicode="Ý" d="M193 751l174 168q69 -39 69 -82q0 -19 -11 -32.5t-37 -29.5q-65 -37 -158 -74zM422 665h179l-222 -409v-256h-171v255l-215 410h189l115 -240h4z"/>
<glyph glyph-name="Thorn" horiz-adv-x="573" unicode="Þ" d="M228 255h39q53 0 80.5 19.5t27.5 68.5t-24.5 68.5t-74.5 19.5h-48v-176zM228 121v-121h-172v665h172v-100h72q119 0 185.5 -54t66.5 -157q0 -112 -75 -172.5t-198 -60.5h-51z"/>
<glyph glyph-name="germandbls" horiz-adv-x="618" unicode="ß" d="M395 -16q-73 0 -135 24l34 121q53 -23 90 -23q48 0 48 41q0 23 -24 41.5t-52 32t-52 44t-24 74.5q0 36 19 70t41.5 55t41.5 47t19 48q0 55 -88 55q-93 0 -93 -86v-738h-167v734q0 33 6 61t23 57t45 49t76.5 32.5t112.5 12.5q119 0 180.5 -43t61.5 -114q0 -37 -19.5 -70.5 t-42.5 -54t-42.5 -44.5t-19.5 -44q0 -22 25.5 -42t56.5 -36t56.5 -51t25.5 -82q0 -80 -55.5 -125.5t-147.5 -45.5z"/>
<glyph glyph-name="agrave" horiz-adv-x="541" unicode="à" d="M247 820l124 -205l-48 -41q-95 70 -135 111q-34 34 -34 58q0 53 93 77zM324 161v241q-19 7 -46 7q-45 0 -66 -46t-21 -118q0 -141 72 -141q28 0 44.5 17t16.5 40zM490 487v-379l11 -108h-142l-7 47l-6 1q-40 -63 -129 -63q-192 0 -192 248q0 136 69 215t202 79 q89 0 194 -40z"/>
<glyph glyph-name="aacute" horiz-adv-x="541" unicode="á" d="M197 615l124 205q35 -9 63.5 -28t28.5 -49q0 -24 -33 -58q-49 -48 -135 -111zM324 161v241q-19 7 -46 7q-45 0 -66 -46t-21 -118q0 -141 72 -141q28 0 44.5 17t16.5 40zM490 487v-379l11 -108h-142l-7 47l-6 1q-40 -63 -129 -63q-192 0 -192 248q0 136 69 215t202 79 q89 0 194 -40z"/>
<glyph glyph-name="acircumflex" horiz-adv-x="541" unicode="â" d="M160 578l-54 43q51 77 110 146q20 23 33 31t33 8q21 0 34 -8t32 -31q54 -62 113 -146l-54 -43l-125 105zM324 161v241q-19 7 -46 7q-45 0 -66 -46t-21 -118q0 -141 72 -141q28 0 44.5 17t16.5 40zM490 487v-379l11 -108h-142l-7 47l-6 1q-40 -63 -129 -63 q-192 0 -192 248q0 136 69 215t202 79q89 0 194 -40z"/>
<glyph glyph-name="atilde" horiz-adv-x="541" unicode="ã" d="M140 622l-10 89q39 31 87 31q28 0 72.5 -13.5t67.5 -13.5q32 0 65 19l9 -94q-34 -20 -70 -20q-23 0 -73 12t-71 12q-39 0 -77 -22zM324 161v241q-19 7 -46 7q-45 0 -66 -46t-21 -118q0 -141 72 -141q28 0 44.5 17t16.5 40zM490 487v-379l11 -108h-142l-7 47l-6 1 q-40 -63 -129 -63q-192 0 -192 248q0 136 69 215t202 79q89 0 194 -40z"/>
<glyph glyph-name="adieresis" horiz-adv-x="541" unicode="ä" d="M95 677q0 30 21 51t56 21q34 0 55.5 -21t21.5 -51q0 -32 -21.5 -52.5t-55.5 -20.5q-35 0 -56 20.5t-21 52.5zM313 677q0 30 21.5 51t56.5 21q34 0 55.5 -21t21.5 -51q0 -32 -22 -52.5t-56 -20.5q-35 0 -56 20.5t-21 52.5zM324 161v241q-19 7 -46 7q-45 0 -66 -46 t-21 -118q0 -141 72 -141q28 0 44.5 17t16.5 40zM490 487v-379l11 -108h-142l-7 47l-6 1q-40 -63 -129 -63q-192 0 -192 248q0 136 69 215t202 79q89 0 194 -40z"/>
<glyph glyph-name="aring" horiz-adv-x="541" unicode="å" d="M254 651q0 -33 32 -33q31 0 31 33q0 34 -31 34q-32 0 -32 -34zM187 651q0 41 28 68.5t71 27.5q47 0 73 -26t26 -66q0 -44 -28 -71.5t-73 -27.5q-46 0 -71.5 26.5t-25.5 68.5zM324 161v241q-19 7 -46 7q-45 0 -66 -46t-21 -118q0 -141 72 -141q28 0 44.5 17t16.5 40z M490 487v-379l11 -108h-142l-7 47l-6 1q-40 -63 -129 -63q-192 0 -192 248q0 136 69 215t202 79q89 0 194 -40z"/>
<glyph glyph-name="ae" horiz-adv-x="744" unicode="æ" d="M586 369q0 19 -11 30t-28 11q-38 0 -61 -32.5t-25 -85.5q47 3 86 23t39 54zM277 410q-44 0 -65 -46.5t-21 -115.5q0 -144 73 -144q34 0 53 26q-18 50 -18 112q0 87 38 155q-33 13 -60 13zM556 527q81 0 128 -39.5t47 -116.5q0 -51 -26 -87.5t-69.5 -55t-82.5 -26.5 t-84 -11q2 -36 28.5 -59t69.5 -23q60 0 124 42l45 -110q-8 -7 -28 -18t-68 -25t-98 -14q-116 0 -175 61q-66 -62 -148 -62q-54 0 -93.5 20.5t-60.5 57t-30.5 79t-9.5 94.5q0 135 69.5 214t200.5 79q70 0 140 -29q55 29 121 29z"/>
<glyph glyph-name="ccedilla" horiz-adv-x="462" unicode="ç" d="M293 117q48 0 105 40l59 -113q-71 -56 -177 -59l-12 -42q45 -5 71.5 -27.5t26.5 -59.5q0 -58 -40.5 -82t-92.5 -24q-53 0 -99 18l20 68q36 -13 67 -13q50 0 50 31q0 35 -92 35l33 101q-89 16 -138 82t-49 178q0 71 21.5 126t57.5 87t78.5 48t89.5 16q130 0 196 -104 l-102 -87q-43 59 -87 59q-41 0 -63.5 -35.5t-22.5 -102.5q0 -140 100 -140z"/>
<glyph glyph-name="egrave" horiz-adv-x="470" unicode="è" d="M220 820l124 -205l-48 -41q-95 70 -135 111q-34 34 -34 58q0 53 93 77zM312 369q0 19 -10.5 30t-28.5 11q-37 0 -60.5 -33t-25.5 -85q47 3 86 23t39 54zM282 527q81 0 128 -39.5t47 -116.5q0 -51 -26 -87.5t-69.5 -55t-82.5 -26.5t-84 -11q3 -36 29 -59t70 -23 q60 0 124 42l44 -110q-6 -6 -26.5 -17.5t-68 -25.5t-97.5 -14q-126 0 -185.5 68.5t-59.5 189.5q0 75 27.5 138.5t87.5 105t142 41.5z"/>
<glyph glyph-name="eacute" horiz-adv-x="470" unicode="é" d="M165 615l124 205q35 -9 63.5 -28t28.5 -49q0 -24 -33 -58q-49 -48 -135 -111zM312 369q0 19 -10.5 30t-28.5 11q-37 0 -60.5 -33t-25.5 -85q47 3 86 23t39 54zM282 527q81 0 128 -39.5t47 -116.5q0 -51 -26 -87.5t-69.5 -55t-82.5 -26.5t-84 -11q3 -36 29 -59t70 -23 q60 0 124 42l44 -110q-6 -6 -26.5 -17.5t-68 -25.5t-97.5 -14q-126 0 -185.5 68.5t-59.5 189.5q0 75 27.5 138.5t87.5 105t142 41.5z"/>
<glyph glyph-name="ecircumflex" horiz-adv-x="470" unicode="ê" d="M140 578l-54 43q51 77 110 146q20 23 33 31t33 8q21 0 34 -8t32 -31q54 -62 113 -146l-54 -43l-125 105zM312 369q0 19 -10.5 30t-28.5 11q-37 0 -60.5 -33t-25.5 -85q47 3 86 23t39 54zM282 527q81 0 128 -39.5t47 -116.5q0 -51 -26 -87.5t-69.5 -55t-82.5 -26.5 t-84 -11q3 -36 29 -59t70 -23q60 0 124 42l44 -110q-6 -6 -26.5 -17.5t-68 -25.5t-97.5 -14q-126 0 -185.5 68.5t-59.5 189.5q0 75 27.5 138.5t87.5 105t142 41.5z"/>
<glyph glyph-name="edieresis" horiz-adv-x="470" unicode="ë" d="M75 677q0 30 21 51t56 21q34 0 55.5 -21t21.5 -51q0 -32 -21.5 -52.5t-55.5 -20.5q-35 0 -56 20.5t-21 52.5zM293 677q0 30 21.5 51t56.5 21q34 0 55.5 -21t21.5 -51q0 -32 -22 -52.5t-56 -20.5q-35 0 -56 20.5t-21 52.5zM312 369q0 19 -10.5 30t-28.5 11 q-37 0 -60.5 -33t-25.5 -85q47 3 86 23t39 54zM282 527q81 0 128 -39.5t47 -116.5q0 -51 -26 -87.5t-69.5 -55t-82.5 -26.5t-84 -11q3 -36 29 -59t70 -23q60 0 124 42l44 -110q-6 -6 -26.5 -17.5t-68 -25.5t-97.5 -14q-126 0 -185.5 68.5t-59.5 189.5q0 75 27.5 138.5 t87.5 105t142 41.5z"/>
<glyph glyph-name="igrave" horiz-adv-x="267" unicode="ì" d="M113 820l124 -205l-48 -41q-95 70 -135 111q-34 34 -34 58q0 53 93 77zM221 0h-168v512h168v-512z"/>
<glyph glyph-name="iacute" horiz-adv-x="267" unicode="í" d="M41 615l124 205q35 -9 63.5 -28t28.5 -49q0 -24 -33 -58q-49 -48 -135 -111zM221 0h-168v512h168v-512z"/>
<glyph glyph-name="icircumflex" horiz-adv-x="267" unicode="î" d="M14 578l-54 43q51 77 110 146q20 23 33 31t33 8q21 0 34 -8t32 -31q54 -62 113 -146l-54 -43l-125 105zM221 0h-168v512h168v-512z"/>
<glyph glyph-name="idieresis" horiz-adv-x="267" unicode="ï" d="M-49 677q0 30 21 51t56 21q34 0 55.5 -21t21.5 -51q0 -32 -21.5 -52.5t-55.5 -20.5q-35 0 -56 20.5t-21 52.5zM169 677q0 30 21.5 51t56.5 21q34 0 55.5 -21t21.5 -51q0 -32 -22 -52.5t-56 -20.5q-35 0 -56 20.5t-21 52.5zM221 0h-168v512h168v-512z"/>
<glyph glyph-name="eth" horiz-adv-x="530" unicode="ð" d="M202 210q0 -96 62 -96q69 0 69 143q0 32 -1 44q-35 19 -63 19q-67 0 -67 -110zM124 594l33 125q102 -12 168 -54l94 65l69 -101l-67 -46q84 -119 84 -304q0 -136 -60 -215t-184 -79q-117 0 -174 59.5t-57 163.5q0 113 59 176t147 63q55 0 93 -25q-25 144 -205 172z"/>
<glyph glyph-name="ntilde" horiz-adv-x="542" unicode="ñ" d="M134 622l-10 89q39 31 87 31q28 0 72.5 -13.5t67.5 -13.5q32 0 65 19l9 -94q-34 -20 -70 -20q-23 0 -73 12t-71 12q-39 0 -77 -22zM219 0h-166v409l-12 103h139l10 -55q52 70 146 70q76 0 118 -44t42 -133v-350h-168v321q0 40 -8.5 59t-35.5 19q-30 0 -47.5 -21 t-17.5 -54v-324z"/>
<glyph glyph-name="ograve" horiz-adv-x="521" unicode="ò" d="M235 820l124 -205l-48 -41q-95 70 -135 111q-34 34 -34 58q0 53 93 77zM24 252q0 75 22.5 131t59.5 86t78 44t85 14q29 0 55.5 -4t61 -20t59 -42t41.5 -76t17 -117q0 -136 -70 -210t-178 -74q-110 0 -170.5 67t-60.5 201zM262 106q36 0 52 36t16 111q0 79 -15.5 116.5 t-52.5 37.5q-68 0 -68 -136q0 -77 14 -121t54 -44z"/>
<glyph glyph-name="oacute" horiz-adv-x="521" unicode="ó" d="M172 615l124 205q35 -9 63.5 -28t28.5 -49q0 -24 -33 -58q-49 -48 -135 -111zM24 252q0 75 22.5 131t59.5 86t78 44t85 14q29 0 55.5 -4t61 -20t59 -42t41.5 -76t17 -117q0 -136 -70 -210t-178 -74q-110 0 -170.5 67t-60.5 201zM262 106q36 0 52 36t16 111 q0 79 -15.5 116.5t-52.5 37.5q-68 0 -68 -136q0 -77 14 -121t54 -44z"/>
<glyph glyph-name="ocircumflex" horiz-adv-x="521" unicode="ô" d="M139 578l-54 43q51 77 110 146q20 23 33 31t33 8q21 0 34 -8t32 -31q54 -62 113 -146l-54 -43l-125 105zM24 252q0 75 22.5 131t59.5 86t78 44t85 14q29 0 55.5 -4t61 -20t59 -42t41.5 -76t17 -117q0 -136 -70 -210t-178 -74q-110 0 -170.5 67t-60.5 201zM262 106 q36 0 52 36t16 111q0 79 -15.5 116.5t-52.5 37.5q-68 0 -68 -136q0 -77 14 -121t54 -44z"/>
<glyph glyph-name="otilde" horiz-adv-x="521" unicode="õ" d="M121 622l-10 89q39 31 87 31q28 0 72.5 -13.5t67.5 -13.5q32 0 65 19l9 -94q-34 -20 -70 -20q-24 0 -74 12t-70 12q-39 0 -77 -22zM24 252q0 75 22.5 131t59.5 86t78 44t85 14q29 0 55.5 -4t61 -20t59 -42t41.5 -76t17 -117q0 -136 -70 -210t-178 -74q-110 0 -170.5 67 t-60.5 201zM262 106q36 0 52 36t16 111q0 79 -15.5 116.5t-52.5 37.5q-68 0 -68 -136q0 -77 14 -121t54 -44z"/>
<glyph glyph-name="odieresis" horiz-adv-x="521" unicode="ö" d="M79 677q0 30 21 51t56 21q34 0 55.5 -21t21.5 -51q0 -32 -21.5 -52.5t-55.5 -20.5q-35 0 -56 20.5t-21 52.5zM297 677q0 30 21.5 51t56.5 21q34 0 55.5 -21t21.5 -51q0 -32 -22 -52.5t-56 -20.5q-35 0 -56 20.5t-21 52.5zM24 252q0 75 22.5 131t59.5 86t78 44t85 14 q29 0 55.5 -4t61 -20t59 -42t41.5 -76t17 -117q0 -136 -70 -210t-178 -74q-110 0 -170.5 67t-60.5 201zM262 106q36 0 52 36t16 111q0 79 -15.5 116.5t-52.5 37.5q-68 0 -68 -136q0 -77 14 -121t54 -44z"/>
<glyph glyph-name="divide" d="M470 376v-133h-405v133h405zM193 511q0 32 20.5 55.5t54.5 23.5q35 0 55.5 -21.5t20.5 -56.5q0 -34 -21 -57.5t-55 -23.5q-36 0 -55.5 22t-19.5 58zM193 115q0 33 20.5 56t54.5 23q35 0 55.5 -21.5t20.5 -56.5q0 -34 -21 -57t-55 -23q-36 0 -55.5 21.5t-19.5 57.5z" unicode="÷"/>
<glyph glyph-name="oslash" horiz-adv-x="521" unicode="ø" d="M262 106q36 0 52 36t16 111q0 79 -15.5 116.5t-52.5 37.5q-68 0 -68 -136q0 -77 14 -121t54 -44zM170 -109l-120 53l43 98q-69 67 -69 210q0 75 22.5 131t59.5 86t78 44t85 14q28 0 53 -4l41 92l121 -53l-44 -98q63 -66 63 -196q0 -136 -70 -210t-178 -74q-22 0 -43 3z "/>
<glyph glyph-name="ugrave" horiz-adv-x="545" unicode="ù" d="M244 820l124 -205l-48 -41q-95 70 -135 111q-34 34 -34 58q0 53 93 77zM326 512h167v-415l11 -97h-141l-7 48h-4q-46 -61 -132 -61q-170 0 -170 181v344h168v-322q0 -39 9 -57.5t38 -18.5q26 0 43.5 19t17.5 49v330z"/>
<glyph glyph-name="uacute" horiz-adv-x="545" unicode="ú" d="M177 615l124 205q35 -9 63.5 -28t28.5 -49q0 -24 -33 -58q-49 -48 -135 -111zM326 512h167v-415l11 -97h-141l-7 48h-4q-46 -61 -132 -61q-170 0 -170 181v344h168v-322q0 -39 9 -57.5t38 -18.5q26 0 43.5 19t17.5 49v330z"/>
<glyph glyph-name="ucircumflex" horiz-adv-x="545" unicode="û" d="M145 578l-54 43q51 77 110 146q20 23 33 31t33 8q21 0 34 -8t32 -31q54 -62 113 -146l-54 -43l-125 105zM326 512h167v-415l11 -97h-141l-7 48h-4q-46 -61 -132 -61q-170 0 -170 181v344h168v-322q0 -39 9 -57.5t38 -18.5q26 0 43.5 19t17.5 49v330z"/>
<glyph glyph-name="udieresis" horiz-adv-x="545" unicode="ü" d="M83 677q0 30 21 51t56 21q34 0 55.5 -21t21.5 -51q0 -32 -21.5 -52.5t-55.5 -20.5q-35 0 -56 20.5t-21 52.5zM301 677q0 30 21.5 51t56.5 21q34 0 55.5 -21t21.5 -51q0 -32 -22 -52.5t-56 -20.5q-35 0 -56 20.5t-21 52.5zM326 512h167v-415l11 -97h-141l-7 48h-4 q-46 -61 -132 -61q-170 0 -170 181v344h168v-322q0 -39 9 -57.5t38 -18.5q26 0 43.5 19t17.5 49v330z"/>
<glyph glyph-name="yacute" horiz-adv-x="540" unicode="ý" d="M174 615l124 205q35 -9 63.5 -28t28.5 -49q0 -24 -33 -58q-49 -48 -135 -111zM226 -100q0 -21 11 -34.5t34 -13.5q59 0 59 110v85q-104 -62 -104 -147zM494 113q0 -110 -3 -140q-22 -239 -241 -239q-84 0 -129 36.5t-45 101.5q0 98 99 170q-125 24 -125 159v311h168v-288 q0 -47 9 -67.5t42 -20.5q25 0 41 18t16 49v309h168v-399z"/>
<glyph glyph-name="thorn" horiz-adv-x="533" unicode="þ" d="M343 253q0 73 -18 111.5t-67 38.5q-22 0 -45 -6v-273q28 -17 55 -17q75 0 75 146zM213 -1v-209h-167v905h167v-180q51 12 93 12q101 0 153.5 -69t52.5 -199q0 -131 -59.5 -202.5t-164.5 -71.5q-45 0 -75 14z"/>
<glyph glyph-name="OE" horiz-adv-x="900" unicode="Œ" d="M211 338q0 -212 138 -212q49 0 79 17v371q-43 19 -82 19q-70 0 -102.5 -55.5t-32.5 -139.5zM346 676q53 0 102 -11h415v-150h-262v-101h225v-150h-225v-114h269v-150h-419q-62 -15 -122 -15q-141 0 -218 89t-77 257q0 74 18.5 134t49 98.5t71.5 64.5t84 37t89 11z"/>
<glyph glyph-name="oe" horiz-adv-x="771" unicode="œ" d="M613 369q0 19 -10.5 30t-28.5 11q-37 0 -60.5 -33t-25.5 -85q47 3 86 23t39 54zM262 106q36 0 52 36t16 111q0 79 -15.5 116.5t-52.5 37.5q-68 0 -68 -136q0 -77 14 -121t54 -44zM583 527q81 0 128 -39.5t47 -116.5q0 -51 -26 -87.5t-69.5 -55t-82.5 -26.5t-84 -11 q3 -36 29 -59t70 -23q61 0 123 42l45 -110q-8 -7 -27 -17.5t-67 -25t-98 -14.5q-108 0 -169 72q-27 -34 -69 -53t-88 -19q-104 0 -162.5 67.5t-58.5 200.5q0 75 21.5 131t57.5 86t75 44t80 14q111 0 160 -80q67 80 165 80z"/>
<glyph glyph-name="Scaron" horiz-adv-x="544" unicode="Š" d="M113 853l50 43l116 -85l119 85l49 -45q-50 -65 -118 -129q-24 -23 -50 -23q-24 0 -52 25q-30 27 -114 129zM12 57l58 141q37 -23 93 -42t97 -19q69 0 69 58q0 19 -15 33.5t-32.5 21.5t-53.5 17q-40 12 -67 24.5t-59 35t-48.5 58t-16.5 83.5q0 98 67.5 153.5t174.5 55.5 q69 0 133.5 -27t110.5 -72l-89 -113q-92 68 -155 68q-26 0 -44.5 -13t-18.5 -39q0 -20 16 -35t34.5 -22t57.5 -20q42 -13 69.5 -26t58 -35.5t46 -58t15.5 -83.5q0 -102 -70 -157.5t-184 -55.5q-69 0 -139 22t-108 47z"/>
<glyph glyph-name="scaron" horiz-adv-x="436" unicode="š" d="M350 806l54 -43q-56 -84 -110 -146q-35 -39 -66 -39q-34 0 -66 39q-50 57 -113 145l54 44l125 -105zM10 40l43 118q31 -20 74 -36t75 -16q48 0 48 38q0 20 -16 30.5t-49 20.5q-37 12 -59.5 21.5t-48 28t-38 46.5t-12.5 67q0 80 56.5 124.5t143.5 44.5q119 0 201 -75 l-76 -96q-67 52 -116 52q-46 0 -46 -36q0 -20 17 -32t52 -23t57 -21t48 -28.5t39 -46.5t13 -66q0 -82 -55 -126.5t-149 -44.5q-63 0 -118 17.5t-84 38.5z"/>
<glyph glyph-name="Ydieresis" horiz-adv-x="594" unicode="Ÿ" d="M113 784q0 31 21 51.5t56 20.5q34 0 55.5 -20.5t21.5 -51.5t-21.5 -51.5t-55.5 -20.5q-35 0 -56 20.5t-21 51.5zM332 784q0 31 21.5 51.5t56.5 20.5q34 0 55.5 -20.5t21.5 -51.5t-22 -51.5t-56 -20.5q-35 0 -56 20.5t-21 51.5zM601 665l-222 -409v-256h-171v255l-215 410 h189l115 -240h4l121 240h179z"/>
<glyph glyph-name="circumflex" horiz-adv-x="500" unicode="ˆ" d="M126 578l-54 43q51 77 110 146q20 23 33 31t33 8q21 0 34 -8t32 -31q54 -62 113 -146l-54 -43l-125 105z"/>
<glyph glyph-name="tilde" horiz-adv-x="500" unicode="˜" d="M108 622l-10 89q39 31 87 31q28 0 72.5 -13.5t67.5 -13.5q32 0 65 19l9 -94q-34 -20 -70 -20q-23 0 -73 12t-71 12q-39 0 -77 -22z"/>
<glyph glyph-name="uni0394" horiz-adv-x="674" unicode="Δ" d="M340 476h-6l-117 -347h241zM668 0h-662l247 657h170z"/>
<glyph glyph-name="uni03BC" horiz-adv-x="578" unicode="μ" d="M516 512v-382q0 -32 25 -32q10 0 28 6l14 -93q-49 -24 -101 -24q-75 0 -91 71q-11 -34 -37.5 -53.5t-61.5 -19.5q-53 0 -81 39v-240h-149v728h157v-294q0 -64 12.5 -90t54.5 -26q38 0 54.5 34t16.5 104v272h159z"/>
<glyph glyph-name="pi" horiz-adv-x="638" unicode="π" d="M606 380h-72v-233q0 -24 6 -34t21 -10q11 0 35 6l20 -96q-48 -25 -115 -25q-124 0 -124 125v267h-106v-380h-156v380h-73v132h564v-132z"/>
<glyph glyph-name="endash" horiz-adv-x="500" unicode="–" d="M0 222v107h500v-107h-500z"/>
<glyph glyph-name="emdash" horiz-adv-x="1000" unicode="—" d="M0 222v107h1000v-107h-1000z"/>
<glyph glyph-name="quoteleft" horiz-adv-x="250" unicode="‘" d="M175 458q-18 -3 -44 -3q-95 0 -95 65q0 72 106 220l87 -31z"/>
<glyph glyph-name="quotesinglbase" horiz-adv-x="228" unicode="‚" d="M214 72l-110 -237l-86 28q15 136 34 208q13 51 61 51t101 -50z"/>
<glyph glyph-name="quotedblleft" horiz-adv-x="450" unicode="“" d="M371 458q-18 -3 -44 -3q-95 0 -95 65q0 72 106 220l87 -31zM171 458q-18 -3 -44 -3q-95 0 -95 65q0 72 106 220l87 -31z"/>
<glyph glyph-name="quotedblright" horiz-adv-x="453" unicode="”" d="M284 726q18 5 59 5q85 -2 85 -62q0 -64 -101 -223l-87 27zM84 726q18 5 59 5q85 -2 85 -62q0 -64 -101 -223l-87 27z"/>
<glyph glyph-name="dagger" horiz-adv-x="486" unicode="†" d="M223 465q-20 -28 -57 -45t-63 -17q-68 0 -68 58q0 60 68 60t120 -56zM263 465q61 56 123 56q65 0 65 -60q0 -58 -70 -58q-29 0 -67 19.5t-51 42.5zM243 486q-23 19 -41 52t-18 62q0 74 58 74q60 0 60 -74q0 -27 -16 -59.5t-43 -54.5zM243 444q59 -38 59 -119v-367 q0 -38 -17.5 -73t-41.5 -56q-59 45 -59 132v364q0 78 59 119z"/>
<glyph glyph-name="daggerdbl" horiz-adv-x="486" unicode="‡" d="M223 465q-20 -28 -57 -45t-63 -17q-68 0 -68 58q0 60 68 60t120 -56zM263 465q61 56 123 56q65 0 65 -60q0 -58 -70 -58q-29 0 -67 19.5t-51 42.5zM243 486q-23 19 -41 52t-18 62q0 74 58 74q60 0 60 -74q0 -27 -16 -59.5t-43 -54.5zM243 444q59 -38 59 -119v-162 q0 -68 -59 -119q-59 45 -59 122v159q0 78 59 119zM223 22q-52 -56 -120 -56t-68 60q0 58 68 58q26 0 63 -17t57 -45zM263 22q13 23 51 42.5t67 19.5q70 0 70 -58q0 -60 -65 -60q-62 0 -123 56zM243 1q27 -22 43 -54.5t16 -59.5q0 -74 -60 -74q-58 0 -58 74q0 29 18 62t41 52 z"/>
<glyph glyph-name="ellipsis" horiz-adv-x="871" unicode="…" d="M70 63q0 34 22 56.5t59 22.5q41 0 63 -21t22 -57q0 -35 -21.5 -57.5t-60.5 -22.5q-41 0 -62.5 21.5t-21.5 57.5zM635 63q0 34 22 56.5t59 22.5q41 0 63 -21t22 -57q0 -35 -21.5 -57.5t-60.5 -22.5q-41 0 -62.5 21.5t-21.5 57.5zM354 63q0 34 22 56.5t59 22.5q41 0 63 -21 t22 -57q0 -35 -21.5 -57.5t-60.5 -22.5q-41 0 -62.5 21.5t-21.5 57.5z"/>
<glyph glyph-name="perthousand" horiz-adv-x="958" unicode="‰" d="M137 93l-71 86l440 368l73 -87zM170 419q41 0 41 85q0 81 -39 81q-40 0 -40 -86q0 -80 38 -80zM174 657q62 0 100.5 -38.5t38.5 -113.5q0 -78 -39.5 -117t-105.5 -39q-138 0 -138 154q0 75 40.5 114.5t103.5 39.5zM476 55q42 0 42 84q0 81 -40 81t-40 -86q0 -79 38 -79z M480 292q62 0 100.5 -38t38.5 -114q0 -78 -39 -117t-105 -39q-138 0 -138 154q0 76 40 115t103 39zM786 55q41 0 41 84q0 81 -39 81q-21 0 -30.5 -19t-9.5 -67q0 -79 38 -79zM790 292q62 0 100 -38.5t38 -113.5q0 -78 -39 -117t-105 -39q-138 0 -138 154q0 76 40 115t104 39 z"/>
<glyph glyph-name="guilsinglleft" horiz-adv-x="347" unicode="‹" d="M315 410l-111 -148l104 -159l-60 -56q-51 37 -110.5 93t-79.5 91q-11 18 -11 36q0 28 33 58q85 81 174 145z"/>
<glyph glyph-name="guilsinglright" horiz-adv-x="347" unicode="›" d="M143 262l-112 148l62 60q94 -68 174 -145q33 -30 33 -58q0 -18 -11 -36q-20 -35 -79.5 -91t-110.5 -93l-60 56z"/>
<glyph glyph-name="fraction" horiz-adv-x="197" unicode="⁄" d="M3 -14l-103 44l292 626l105 -43z"/>
<glyph glyph-name="Euro" d="M28 263v124h104q-23 12 -38.5 40.5t-15.5 60.5q0 78 59 123.5t168 45.5q54 0 112 -21.5t99 -62.5l-74 -101q-63 50 -130 50q-34 0 -56.5 -17.5t-22.5 -47.5q0 -29 20 -49.5t66 -20.5h129v-124h-126q-91 0 -91 -71q0 -33 25 -54.5t68 -21.5q79 0 155 52l57 -109 q-104 -76 -241 -76q-112 0 -167 46.5t-55 118.5t59 115h-104z" unicode="€"/>
<glyph glyph-name="trademark" horiz-adv-x="702" unicode="™" d="M559 665h102l18 -336h-90l-7 169h-4l-44 -140h-73l-45 140h-3l-10 -169h-88l20 336h103l60 -197h3zM18 665h279v-87h-91v-249h-101v249h-87v87z"/>
<glyph glyph-name="partialdiff" horiz-adv-x="562" unicode="∂" d="M347 282q-31 24 -71 24q-34 0 -51.5 -26.5t-17.5 -73.5q0 -102 70 -102q71 0 71 144q0 22 -1 34zM121 553l33 118q191 -34 271.5 -134t80.5 -265q0 -61 -12 -110.5t-38 -90.5t-72.5 -63.5t-109.5 -22.5q-117 0 -172.5 62t-55.5 161q0 98 55.5 157.5t143.5 59.5 q55 0 106 -29l2 3q-17 54 -85 97t-147 57z"/>
<glyph glyph-name="product" horiz-adv-x="705" unicode="∏" d="M647 -132h-176v637h-236v-637h-176v789h588v-789z"/>
<glyph glyph-name="summation" horiz-adv-x="567" unicode="∑" d="M558 -132h-543v128l239 267l-231 266v128h515v-152h-280l197 -244l-207 -241h310v-152z"/>
<glyph glyph-name="minus" d="M470 376v-133h-405v133h405z" unicode="−"/>
<glyph glyph-name="radical" horiz-adv-x="682" unicode="√" d="M715 731l-262 -745h-154l-127 365l-90 -45l-47 114l231 113l110 -329l176 527h163z"/>
<glyph glyph-name="infinity" horiz-adv-x="764" unicode="∞" d="M287 346q-33 50 -69 50q-47 0 -47 -48t45 -48q38 0 71 46zM595 349q0 48 -43 48q-31 0 -73 -49q36 -48 73 -48q20 0 31.5 14.5t11.5 34.5zM729 357q0 -76 -44.5 -123.5t-116.5 -47.5q-99 0 -184 91q-87 -93 -177 -93q-82 0 -125.5 45t-43.5 116q0 69 46 118.5t123 49.5 q56 0 96.5 -24t81.5 -77q50 54 91.5 78t97.5 24q75 0 115 -46t40 -111z"/>
<glyph glyph-name="approxequal" horiz-adv-x="679" unicode="≈" d="M456 352q-54 0 -124 34.5t-94 34.5q-43 0 -101 -69l-94 81q40 57 80.5 89.5t95.5 32.5q43 0 114.5 -36.5t106.5 -36.5q50 0 100 69l95 -81q-66 -118 -179 -118zM457 101q-54 0 -124.5 35t-93.5 35q-26 0 -49 -17.5t-52 -51.5l-95 80q42 58 82 90.5t95 32.5 q43 0 114.5 -36.5t106.5 -36.5q50 0 100 68l95 -80q-66 -119 -179 -119z"/>
<glyph glyph-name="notequal" d="M470 262v-133h-189l-20 -77h-134l20 77h-82v133h119l22 79h-141v133h178l22 80h128l-21 -80h98v-133h-133l-21 -79h154z" unicode="≠"/>
<glyph glyph-name="lessequal" d="M479 495l-223 -104l225 -108l-57 -125l-355 175v106l354 179zM468 133v-133h-401v133h401z" unicode="≤"/>
<glyph glyph-name="greaterequal" d="M292 391l-223 104l56 123l354 -179v-106l-355 -175l-57 125zM80 0v133h401v-133h-401z" unicode="≥"/>
<glyph glyph-name="lozenge" horiz-adv-x="582" unicode="◊" d="M383 330l-90 167l-88 -169l91 -171zM545 330l-187 -330h-130l-187 328l188 329h129z"/>
</font>
</defs>
</svg>
