<?xml version="1.0" encoding="UTF-8" standalone="no"?>
<!DOCTYPE svg  PUBLIC '-//W3C//DTD SVG 1.1//EN'  'http://www.w3.org/Graphics/SVG/1.1/DTD/svg11.dtd'>
<svg xmlns="http://www.w3.org/2000/svg">
<defs>
<font id="RockoFLF-Regular" horiz-adv-x="816">
<font-face underline-position="-150" font-weight="500" descent="-200" panose-1="2 0 6 3 2 0 0 2 0 4" units-per-em="1000" unicode-range="U+0020-2122" bbox="-67.0588 -211.059 1270 999" x-height="579" underline-thickness="100" font-family="RockoFLF" ascent="800" cap-height="789"/>
<missing-glyph horiz-adv-x="1000"/>
<glyph glyph-name=".notdef" horiz-adv-x="1000"/>
<glyph glyph-name=".null" horiz-adv-x="0"/>
<glyph glyph-name="nonmarkingreturn" horiz-adv-x="333"/>
<glyph glyph-name="space" horiz-adv-x="263" unicode=" "/>
<glyph glyph-name="exclam" horiz-adv-x="237" unicode="!" d="M177 730v-480q0 -25 -17 -42t-42 -17q-24 0 -42 17t-17 42v480q-1 25 17 42t42 17q25 0 42 -17t17 -42zM46 72q0 30 22 52t50 21q30 1 52 -21t21 -52q1 -28 -21 -50t-52 -22q-28 0 -50 22t-22 50z"/>
<glyph glyph-name="quotedbl" horiz-adv-x="286" unicode='&quot;' d="M183 661l-20 91q-1 4 -1 9q0 18 18 30t34 12q6 0 16 -3t18 -9q8 -5 12 -13q6 -8 6 -17q0 -5 -1 -9l-20 -91q-3 -13 -11 -22t-20 -9t-20 9t-11 22zM41 661l-20 91q-1 4 -1 9q0 18 18 30t34 12q6 0 16 -3t18 -9q8 -5 12 -13q6 -8 6 -17q0 -5 -1 -9l-20 -91q-3 -13 -11 -22 t-20 -9t-20 9t-11 22z"/>
<glyph glyph-name="numbersign" horiz-adv-x="526" unicode="#" d="M224 434v-79q0 -17 -12 -28t-28 -11q-17 0 -28 11t-11 28v79h-79q-16 0 -28 12t-12 28q0 17 12 28t28 11h79v79h-79q-16 0 -28 12t-12 28t12 28t28 11h79v79q0 17 11 28t28 11q16 0 28 -11t12 -28v-79h79v79q0 17 11 28t28 11q16 0 28 -11t12 -28v-79h79q15 1 27 -11 t12 -28t-12 -28t-27 -12h-79v-79h79q15 0 27 -11t12 -28q0 -16 -12 -28t-27 -12h-79v-79q0 -17 -12 -28t-28 -11q-17 0 -28 11t-11 28v79h-79zM224 592v-79h79v79h-79z"/>
<glyph glyph-name="dollar" horiz-adv-x="544" unicode="$" d="M251 477v140q-21 -1 -41 -5t-34 -10q-16 -8 -26 -21t-9 -32q0 -15 9 -27t24 -19q15 -9 35 -15t42 -11zM251 56v56q-65 4 -107 26t-68 47q-26 26 -36 52t-11 39q0 22 16 36t35 14q13 0 24 -6t17 -23q17 -43 48 -67t82 -32v177q-41 8 -79 18t-66 28q-30 17 -48 45t-17 71 q0 43 18 75q17 32 47 52t68 30t77 9v53q1 10 7 16t16 7q10 -1 16 -7t7 -16v-55q45 -3 79 -19t58 -38t36 -43q12 -22 12 -35q0 -22 -18 -36t-39 -14q-13 0 -24 6t-17 21q-8 19 -16 31t-18 20t-22 13t-31 8v-148q42 -9 82 -21q41 -12 71 -32t48 -48q18 -30 19 -75 q0 -47 -18 -81q-19 -34 -49 -56t-70 -32t-83 -11v-55q-1 -10 -7 -16t-16 -7q-10 1 -16 7t-7 16zM297 197q43 1 75 24t32 63q0 18 -9 32t-24 22q-15 10 -34 16t-40 11v-168z"/>
<glyph glyph-name="percent" horiz-adv-x="699" unicode="%" d="M603 178q0 52 -17 80t-52 29q-35 -1 -52 -29t-17 -80t17 -80t52 -29q35 1 52 29t17 80zM534 -13q-70 1 -108 49t-37 142q-1 94 37 143t108 49q71 0 108 -49t37 -143t-37 -142t-108 -49zM233 611q0 53 -17 81t-52 28t-52 -28t-17 -81t17 -81t52 -28t52 28t17 81zM164 420 q-70 0 -107 48t-37 143q0 94 37 143t107 49q71 0 108 -49t37 -143q0 -95 -37 -143t-108 -48zM592 760l-407 -775q-5 -13 -17 -19t-25 -6q-19 0 -33 13t-14 33q0 12 6 23l406 775q6 12 18 18t24 7q6 -1 14 -3t16 -7t12 -15q5 -10 5 -22q0 -13 -5 -22z"/>
<glyph glyph-name="ampersand" horiz-adv-x="630" unicode="&amp;" d="M400 163l-155 210q-59 -35 -91 -72t-33 -93q0 -27 11 -51t29 -42q18 -19 42 -29t50 -10q27 0 51 9t42 22t32 29t22 27zM190 448q-12 16 -26 35t-26 41t-21 48q-8 26 -8 56q1 37 15 69q14 31 39 55t58 38t70 13q39 -1 73 -13t58 -36t38 -56q14 -33 14 -74q0 -34 -12 -63 t-33 -53q-19 -24 -45 -45q-26 -20 -52 -36l117 -155q5 16 5 28t3 27q3 23 18 35t33 12q20 0 38 -15q15 -13 15 -39v-9q-4 -39 -14 -73t-24 -63l76 -101q11 -14 11 -34q0 -23 -14 -38t-37 -15q-13 -1 -25 5t-20 17l-53 72q-19 -18 -41 -35t-46 -30q-26 -13 -56 -21t-65 -8 q-51 -1 -94 15t-73 44t-48 70q-18 41 -18 92q0 44 14 80t38 65t54 52q31 23 64 43zM276 501q40 20 68 55t27 80q0 20 -8 34t-20 24q-13 9 -27 13t-27 4q-33 0 -57 -21t-23 -60q1 -30 21 -62t46 -67z"/>
<glyph glyph-name="quotesingle" horiz-adv-x="144" unicode="&apos;" d="M41 661l-20 91q-1 4 -1 9q0 18 18 30t34 12q6 0 16 -3t18 -9q8 -5 12 -13q6 -8 6 -17q0 -5 -1 -9l-20 -91q-3 -13 -11 -22t-20 -9t-20 9t-11 22z"/>
<glyph glyph-name="parenleft" horiz-adv-x="317" unicode="(" d="M291 42q14 -14 14 -32q1 -24 -19 -44t-45 -20q-21 0 -38 18q-44 46 -78 94t-57 100q-24 52 -36 110t-12 127t12 127t36 110t57 100q34 48 78 94q17 18 38 18q11 0 23 -6t21 -14t15 -20t5 -24q0 -18 -14 -32q-69 -68 -111 -154t-42 -199t42 -200t111 -153z"/>
<glyph glyph-name="parenright" horiz-adv-x="316" unicode=")" d="M26 42q68 66 110 153t42 200t-42 200t-110 153q-14 14 -14 33q0 12 5 23t14 20q9 8 21 14t23 6q20 0 38 -18q44 -46 78 -94q33 -48 57 -100t36 -110t12 -127t-12 -127t-36 -110t-58 -100t-77 -94q-17 -18 -38 -18q-11 0 -23 6t-21 14q-9 9 -14 20t-5 23q0 19 14 33z"/>
<glyph glyph-name="asterisk" horiz-adv-x="373" unicode="*" d="M226 750v-79l68 40q7 5 20 5q16 0 28 -10t11 -29q0 -11 -5 -21t-14 -14l-68 -39l68 -40q19 -11 19 -34q0 -11 -9 -25t-31 -14q-5 0 -9 1t-10 4l-68 40v-79q0 -16 -12 -28t-27 -12q-17 0 -29 12t-11 28v79l-68 -40q-8 -5 -20 -5q-11 0 -25 8t-14 31t19 34l69 40l-69 39 q-19 11 -19 34q0 14 10 27t30 13q11 0 19 -5l68 -40v79q-1 17 11 28t29 11q15 0 27 -11t12 -28z"/>
<glyph glyph-name="plus" horiz-adv-x="418" unicode="+" d="M255 349v-106q1 -19 -13 -33t-33 -13q-20 -1 -33 13t-13 33v106h-105q-18 0 -32 13t-14 33q0 19 14 33t32 13h105v105q0 18 13 32t33 14q19 0 33 -14t13 -32v-105h105q18 1 32 -13t14 -33q0 -20 -14 -33t-32 -13h-105z"/>
<glyph glyph-name="comma" horiz-adv-x="190" unicode="," d="M20 72q0 31 22 52t52 21q12 0 26 -5q14 -6 25 -16t18 -26t7 -40q0 -38 -18 -78t-49 -73q-9 -10 -21 -10q-12 -1 -22 9t-10 22q0 10 7 18q13 14 22 26t14 28q-29 0 -51 22t-22 50z"/>
<glyph glyph-name="hyphen" horiz-adv-x="448" unicode="-" d="M382 349h-316q-18 0 -32 13t-14 33q0 19 14 33t32 13h316q18 1 32 -13t14 -33q0 -20 -14 -33t-32 -13z"/>
<glyph glyph-name="period" horiz-adv-x="185" unicode="." d="M20 72q0 30 22 52t51 21q29 1 51 -21t21 -52q1 -28 -21 -50t-51 -22t-51 22t-22 50z"/>
<glyph glyph-name="slash" horiz-adv-x="524" unicode="/" d="M507 760l-407 -775q-6 -13 -18 -19t-24 -6q-22 0 -34 16t-12 31q0 13 5 22l406 775q5 12 17 18t25 7q6 -1 14 -3q7 -2 15 -7t13 -15t5 -22q0 -13 -5 -22z"/>
<glyph glyph-name="zero" horiz-adv-x="619" unicode="0" d="M493 370q1 139 -45 215t-139 76q-92 0 -138 -76t-46 -215q0 -140 46 -216t138 -75q93 -1 139 75t45 216zM309 -13q-141 -1 -215 97t-74 286t74 286t215 97q141 1 215 -97t75 -286q-1 -188 -75 -286t-215 -97z"/>
<glyph glyph-name="one" horiz-adv-x="293" unicode="1" d="M102 643q16 15 25 32t18 31t20 24q11 9 30 9q21 0 37 -15t15 -37v-634q0 -21 -15 -37t-37 -16q-21 0 -37 16t-16 37v479h-89q-17 0 -29 11t-11 28q-1 17 9 25t24 16l28 12q16 6 28 19z"/>
<glyph glyph-name="two" horiz-adv-x="580" unicode="2" d="M37 533q0 49 23 90q22 41 60 69t85 45q47 16 94 16q56 1 104 -17t83 -49q34 -31 54 -75t20 -95q0 -59 -24 -99t-65 -70t-96 -60q-55 -29 -117 -68q-24 -16 -44 -34t-34 -34t-22 -30t-7 -22q0 -8 7 -8h330q18 0 32 -14t14 -32t-14 -32t-32 -14h-402q-28 0 -47 20t-19 46 t18 56t44 62q28 30 60 58t62 47q48 31 93 57t80 53t56 57t21 68q0 37 -13 63q-13 27 -35 43t-49 24q-28 8 -58 7t-58 -9t-50 -24q-21 -16 -35 -40t-14 -54q0 -32 -16 -48t-37 -16q-20 0 -36 16t-16 47z"/>
<glyph glyph-name="three" horiz-adv-x="597" unicode="3" d="M297 667q-61 -1 -105 -27t-60 -94q-6 -19 -18 -28t-26 -9q-22 0 -36 14t-14 43q0 18 13 50t43 62t80 53q50 22 123 22q55 -1 101 -15t78 -40t50 -64q18 -36 18 -80q0 -22 -5 -46t-18 -44q-13 -21 -35 -38t-55 -27q21 -3 47 -15t47 -34q22 -22 37 -56t15 -86 q0 -56 -23 -98q-22 -42 -60 -69t-86 -41t-99 -13q-71 0 -125 21t-90 53q-38 32 -56 70t-18 71q0 26 14 38t32 13q17 -1 31 -11t18 -30q5 -30 21 -56t40 -44t56 -30q32 -10 69 -10q31 0 61 8t52 26q24 16 38 42t14 59q0 82 -50 115t-146 33q-19 0 -28 13t-9 28t9 28t28 13 q96 0 136 29t39 87q0 25 -12 45q-13 20 -33 36t-46 24q-26 9 -57 9z"/>
<glyph glyph-name="four" horiz-adv-x="584" unicode="4" d="M347 566l-223 -296h223v296zM13 250q0 14 3 23t11 20l328 426q5 8 17 14t25 6q23 0 39 -16t17 -39v-414h72q19 0 33 -14t13 -32q1 -20 -13 -33t-33 -13h-72v-125q1 -21 -15 -37t-38 -16t-38 16t-15 37v125h-261q-30 0 -52 21t-21 51z"/>
<glyph glyph-name="five" horiz-adv-x="588" unicode="5" d="M191 739h238q20 -1 35 -15t15 -35q0 -20 -15 -35t-35 -15h-229l-40 -175q8 4 20 11t30 15t44 12q25 6 56 6q60 0 108 -21t80 -57q34 -36 52 -82q18 -48 18 -101q0 -61 -22 -109t-60 -82t-86 -51q-50 -18 -105 -18q-72 -1 -124 23q-51 24 -85 56t-50 64q-16 33 -16 51 q0 21 16 35t35 14q13 0 25 -7t18 -23q23 -52 64 -83t113 -31q33 0 65 11t56 31t37 51q14 30 14 68q0 40 -14 70q-13 31 -37 51t-56 30t-65 11q-36 0 -62 -8t-45 -19q-19 -10 -32 -22t-23 -19q-9 -7 -17 -9t-17 -3q-21 1 -34 17t-13 39q0 5 2 15l59 268q3 15 7 28q4 12 12 22 t23 16t40 5z"/>
<glyph glyph-name="six" horiz-adv-x="598" unicode="6" d="M20 366q0 80 20 150t58 124q38 52 94 82t129 31q60 1 103 -19t71 -46t41 -52t13 -40q0 -22 -16 -34t-35 -12q-12 0 -22 5t-17 16q-27 40 -59 66t-85 26q-40 0 -69 -14q-30 -15 -50 -37t-33 -50t-21 -56t-10 -56q-2 -26 -2 -45q8 13 26 27t42 28q24 12 55 20t67 8 q44 0 90 -17t84 -49t60 -77q24 -45 24 -102q0 -63 -21 -111t-57 -80t-84 -48t-102 -17q-62 0 -116 23q-54 22 -94 70t-62 119t-22 167zM314 74q34 0 64 12t54 35q22 21 36 51t14 64t-14 64t-36 53q-24 22 -56 35t-68 13q-34 0 -64 -12t-51 -33q-22 -20 -35 -50t-13 -64 q-1 -36 13 -66t37 -54q23 -22 53 -35t66 -13z"/>
<glyph glyph-name="seven" horiz-adv-x="526" unicode="7" d="M13 689q0 21 15 35t35 15h398q21 0 37 -15t16 -37q0 -17 -6 -30t-15 -23t-21 -22q-12 -10 -23 -23q-36 -40 -77 -101q-42 -62 -76 -134t-57 -152t-23 -160q0 -22 -17 -40t-41 -18t-41 18t-17 40q0 42 12 93t35 106q22 55 51 111t61 108q31 52 65 99q34 46 66 80h-327 q-20 0 -35 15t-15 35z"/>
<glyph glyph-name="eight" horiz-adv-x="628" unicode="8" d="M20 222q0 42 19 76t45 58t49 38q24 14 35 14q-44 18 -76 56t-31 94q0 48 19 84q18 36 52 60t80 38q46 13 102 13q55 0 101 -13q46 -14 80 -38t53 -60t19 -84q-1 -28 -9 -52t-22 -42q-14 -19 -34 -33t-42 -23q10 0 34 -14t50 -38t45 -58t19 -76q0 -51 -20 -94 q-20 -42 -58 -74t-92 -50t-124 -17q-65 -1 -119 17t-93 50q-38 32 -60 74q-22 43 -22 94zM450 606q-13 20 -34 34t-48 20q-27 7 -54 7t-54 -7q-27 -6 -48 -20t-34 -34t-14 -48v-4q0 -26 12 -45q12 -21 34 -35t50 -22t54 -8t54 8t50 22t34 35q12 20 12 45q0 30 -14 52z M502 217q0 39 -16 66t-44 45q-26 18 -60 24q-34 8 -68 8t-68 -8t-60 -24q-26 -18 -44 -45q-16 -27 -16 -66t16 -67t44 -45q26 -17 60 -25t68 -8t68 8t60 25t44 45q16 28 16 67z"/>
<glyph glyph-name="nine" horiz-adv-x="598" unicode="9" d="M578 374q0 -82 -20 -152t-58 -122t-94 -83q-56 -30 -129 -30q-61 0 -107 23q-46 24 -76 54t-44 60t-15 46q0 23 17 36t36 13q12 1 22 -5t15 -19q9 -26 23 -48q14 -21 32 -37t44 -25q25 -9 59 -9q27 0 59 10t60 37t47 77t19 131q-8 -9 -24 -23t-41 -26q-23 -12 -55 -22 q-32 -9 -70 -9q-44 0 -90 17t-84 49t-60 77q-24 45 -24 102q0 63 21 111q21 49 57 81t84 48t101 17q63 1 117 -23t93 -71q41 -47 63 -118t22 -167zM283 666q-34 0 -64 -12t-53 -35q-22 -21 -36 -51t-14 -64q0 -35 14 -65q14 -31 36 -53q24 -22 56 -35t68 -13q34 0 64 12 t51 34q22 22 35 50q13 29 13 63q1 37 -13 67t-37 53t-54 36t-66 13z"/>
<glyph glyph-name="colon" horiz-adv-x="225" unicode=":" d="M40 72q0 30 22 52t51 21q29 1 51 -21t21 -52q1 -28 -21 -50t-51 -22t-51 22t-22 50zM40 506q0 30 22 52t51 21q29 1 51 -21t21 -52q1 -28 -21 -50t-51 -22t-51 22t-22 50z"/>
<glyph glyph-name="semicolon" horiz-adv-x="230" unicode=";" d="M40 506q0 30 22 52t51 21q29 1 51 -21t21 -52q1 -28 -21 -50t-51 -22t-51 22t-22 50zM40 72q0 31 22 52t52 21q12 0 26 -5q14 -6 25 -16t18 -26t7 -40q0 -38 -18 -78t-49 -73q-9 -10 -21 -10q-12 -1 -22 9t-10 22q0 10 7 18q13 14 22 26t14 28q-29 0 -51 22t-22 50z"/>
<glyph glyph-name="less" horiz-adv-x="254" unicode="&lt;" d="M28 429l127 127q13 13 33 13q17 0 31.5 -11.5t14.5 -33.5q0 -20 -14 -34l-95 -95l95 -96q14 -14 14 -34t-14 -32.5t-33 -12.5t-32 13l-127 127q-16 16 -16 35q0 18 16 34z"/>
<glyph glyph-name="equal" horiz-adv-x="445" unicode="=" d="M394 434h-342q-16 0 -28 12t-12 28q0 17 12 28t28 11h342q17 0 28 -11t11 -28q0 -16 -11 -28t-28 -12zM394 276h-342q-16 0 -28 12t-12 28q0 17 12 28t28 11h342q17 0 28 -11t11 -28q0 -16 -11 -28t-28 -12z"/>
<glyph glyph-name="greater" horiz-adv-x="254" unicode="&gt;" d="M226 429q16 -16 16 -34q0 -19 -16 -35l-127 -127q-13 -13 -32 -13t-33 12.5t-14 32.5t14 34l95 96l-95 95q-14 14 -14 34q0 22 14.5 33.5t31.5 11.5q20 0 33 -13z"/>
<glyph glyph-name="question" horiz-adv-x="542" unicode="?" d="M280 711q-70 1 -108 -37t-52 -98q-4 -22 -18 -32t-29 -10q-21 0 -37 15t-16 41q0 23 15 59q15 37 47 71t80 58q49 24 118 25q46 0 90 -14t78 -40t54 -65t20 -88t-16 -84t-38 -62q-23 -26 -50 -48t-50 -44q-22 -22 -38 -48q-16 -25 -16 -59q0 -21 -16 -37t-37 -15 q-22 -1 -37 15t-15 37q-1 46 15 79t39 59t51 47q28 22 50 44t38 48t16 63q0 26 -12 48t-30 38q-19 16 -44 25t-52 9zM189 72q0 30 21 52t51 21q29 1 51 -21t22 -52q0 -28 -22 -50t-51 -22q-30 0 -51 22t-21 50z"/>
<glyph glyph-name="at" horiz-adv-x="619" unicode="@" d="M599 395q0 -51 -16 -95q-15 -44 -39 -76t-50 -50t-48 -18q-16 0 -30 7t-24 19t-16 26t-5 29v47q-19 -20 -43 -27t-51 -7q-17 0 -35 5t-31 15q-15 10 -23 24q-8 15 -8 36q0 24 10 40t25 28q16 10 37 16t44 8q26 2 41 6t23 9t9 11q2 6 2 15q1 21 -19 29t-40 8q-18 0 -29 -3 t-18 -8t-11 -12t-8 -15q-6 -11 -19 -11q-11 0 -19 7t-8 18q0 4 2 14t14 22q10 12 32 22t64 9q52 0 82 -20t30 -60v-226q0 -11 6 -19t17 -7q13 1 30 17t33 42t26 59t10 66q0 49 -18 92t-52 75q-32 32 -75 51t-92 19t-92 -19t-75 -51t-52 -75q-18 -43 -18 -92t18 -92t52 -75 q32 -32 75 -52q43 -18 92 -18q11 0 19 -8t8 -18q0 -11 -8 -19t-19 -8q-59 0 -111 23t-92 62t-63 92t-23 113q0 61 23 113t62 91t91 62t113 23q60 0 113 -23t92 -62t62 -91t23 -113zM371 393l-13 -3q-14 -3 -35 -5q-21 -1 -41 -7t-32 -16q-14 -10 -14 -32t17 -30t36 -7 q15 0 29 3q14 2 26 10t20 20t7 32v35z"/>
<glyph glyph-name="A" horiz-adv-x="693" unicode="A" d="M339 803q31 0 53 -18t33 -48l251 -646q5 -13 5 -25q0 -9 -3 -20q-3 -12 -10 -22q-8 -10 -20 -17t-30 -7q-21 0 -39 13t-26 34l-66 190h-288l-64 -200q-6 -17 -22 -27t-35 -10q-26 0 -46 18t-20 44q0 10 3 19l238 656q11 30 33 48t53 18zM335 672l-103 -329h218z"/>
<glyph glyph-name="B" horiz-adv-x="699" unicode="B" d="M417 0h-292q-15 0 -29 6t-25 15q-11 10 -18 25t-7 33v632q0 32 23 55t56 23h289q56 0 98 -16q42 -15 71 -43t44 -66t15 -80q0 -38 -10 -66t-28 -48q-16 -20 -36 -34q-20 -12 -42 -18q42 -14 70 -36t45 -47q17 -26 24 -56t7 -60q0 -49 -20 -89t-54 -69t-82 -45 q-46 -16 -99 -16zM393 362h-229v-257h244q80 1 112 33t32 88q0 64 -44 100t-115 36zM409 684h-245v-223h235q25 0 49 8q24 9 42 23t29 34t11 46q0 48 -31 80t-90 32z"/>
<glyph glyph-name="C" horiz-adv-x="724" unicode="C" d="M379 698q-50 0 -94 -22q-45 -22 -77 -60q-32 -40 -51 -96t-19 -125t19 -125t51 -96t77 -62q44 -22 94 -21q43 -1 77 13t59 36t41 50t25 55q6 21 21 29t32 8q23 0 43 -15t20 -42q0 -22 -18 -62q-18 -39 -56 -79q-39 -40 -99 -69t-145 -29q-89 0 -157 34t-112 91t-68 131 q-22 74 -22 153t22 153t68 130q44 56 112 91q68 34 157 34q69 0 127 -26q58 -27 102 -63q42 -36 66 -77t23 -71q0 -26 -20 -42t-43 -16q-17 0 -32 8t-21 29q-9 28 -25 55t-41 49q-25 21 -59 35t-77 14z"/>
<glyph glyph-name="D" horiz-adv-x="711" unicode="D" d="M362 0h-237q-15 0 -29 6t-25 15q-11 10 -18 25t-7 33v632q0 32 23 55t56 23h237q59 0 118 -20q59 -21 106 -67t76 -122t29 -185q0 -111 -29 -187t-76 -122t-106 -66t-118 -20zM339 684h-175v-579h175q59 1 103 21t73 58t43 90q14 54 14 121q0 65 -14 119t-43 92t-73 58 t-103 20z"/>
<glyph glyph-name="E" horiz-adv-x="658" unicode="E" d="M586 0h-461q-15 0 -29 6t-25 15q-11 10 -18 25t-7 33v632q0 32 23 55t56 23h453q22 0 37 -15t15 -37q0 -21 -15 -37t-37 -16h-414v-217h389q22 1 37 -15t15 -38q0 -20 -15 -36t-37 -16h-389v-257h422q20 1 36 -15t16 -38t-16 -37t-36 -15z"/>
<glyph glyph-name="F" horiz-adv-x="582" unicode="F" d="M164 362v-303q0 -23 -17 -41t-42 -18q-23 0 -41 18t-18 41v652q0 32 23 55t56 23h384q21 0 37 -15t16 -37q0 -21 -16 -37t-37 -16h-345v-217h314q22 1 37 -15t15 -38q0 -20 -15 -36t-37 -16h-314z"/>
<glyph glyph-name="G" horiz-adv-x="742" unicode="G" d="M379 698q-50 0 -94 -22q-45 -22 -77 -60q-32 -40 -51 -96t-19 -125t19 -125t51 -96t77 -62q44 -22 94 -21q51 -1 93 19t72 53t46 77t17 90h-140q-22 0 -37 16t-15 37t15 37t37 16h187q25 0 39 -11q15 -11 21 -26t7 -32t1 -29q0 -64 -26 -127t-74 -113q-46 -50 -108 -81 t-135 -31q-89 0 -157 34t-112 91t-68 131q-22 74 -22 153t22 153t68 130q44 56 112 91q68 34 157 34q88 0 148 -25q61 -24 97 -58t52 -68t16 -52q0 -24 -17 -38t-40 -13q-17 1 -34 9t-28 26q-13 24 -29 44t-38 36t-52 25t-75 9z"/>
<glyph glyph-name="H" horiz-adv-x="724" unicode="H" d="M559 358h-395v-299q0 -23 -17 -41t-42 -18q-23 0 -41 18t-18 41v671q0 25 18 42t41 17q25 0 42 -17t17 -42v-267h395v267q-1 25 17 42t42 17t42 -17t18 -42v-671q0 -23 -18 -41t-42 -18t-42 18t-17 41v299z"/>
<glyph glyph-name="I" horiz-adv-x="210" unicode="I" d="M164 730v-671q0 -23 -17 -41t-42 -18q-23 0 -41 18t-18 41v671q0 25 18 42t41 17q25 0 42 -17t17 -42z"/>
<glyph glyph-name="J" horiz-adv-x="532" unicode="J" d="M249 91q49 -1 83 29t35 89v521q-1 25 17 42t43 17q23 0 41 -17t18 -42v-521q0 -105 -59 -164t-178 -59q-51 0 -95 16t-76 44t-48 70q-18 42 -18 93q0 23 18 41t41 18q25 0 43 -18t17 -41q0 -29 10 -51q11 -22 27 -37t38 -23t43 -7z"/>
<glyph glyph-name="K" horiz-adv-x="672" unicode="K" d="M566 20l-282 368l-120 -116v-213q0 -23 -17 -41t-42 -18q-23 0 -41 18t-18 41v671q0 25 18 42t41 17q25 0 42 -17t17 -42v-312l370 357q14 14 36 14q27 0 40 -18t13 -35q0 -22 -16 -37l-246 -238l289 -377q10 -13 10 -32q0 -16 -6 -26t-14 -16t-17 -8t-15 -2 q-26 0 -42 20z"/>
<glyph glyph-name="L" horiz-adv-x="598" unicode="L" d="M164 730v-625h369q21 1 37 -15t16 -38t-16 -37t-37 -15h-408q-15 0 -29 6t-25 15q-11 10 -18 25t-7 33v651q0 25 18 42t41 17q25 0 42 -17t17 -42z"/>
<glyph glyph-name="M" horiz-adv-x="842" unicode="M" d="M633 709q13 33 33 57t56 23q30 1 52 -21t22 -52v-663q0 -21 -16 -37t-37 -16q-22 0 -37 16t-15 37v513l-195 -508q-10 -26 -28 -42t-47 -16t-47 16t-28 42l-195 508v-513q0 -21 -15 -37t-37 -16q-21 0 -37 16t-16 37v663q0 30 22 52t52 21q36 1 56 -23t33 -57l212 -548z "/>
<glyph glyph-name="N" horiz-adv-x="709" unicode="N" d="M604 0q-28 0 -47 12t-34 36l-359 533v-522q0 -23 -17 -41t-42 -18q-23 0 -41 18t-18 41v671q0 25 18 42t41 17q28 -1 47 -13t35 -35l358 -537v526q0 25 17 42t42 17t42 -17t17 -42v-671q0 -23 -17 -41t-42 -18z"/>
<glyph glyph-name="O" d="M678 395q0 69 -21 125t-57 95t-86 61q-49 22 -106 21q-57 1 -106 -21q-50 -22 -86 -61t-57 -95t-21 -125t21 -125t57 -96t86 -60q49 -22 106 -22t106 22q50 22 86 60q36 40 57 96t21 125zM408 -14q-88 0 -160 33t-122 89t-78 130t-28 157q0 82 28 156t78 130t122 89 t160 33t160 -33t122 -89t78 -130t28 -156q0 -83 -28 -157t-78 -130t-122 -89t-160 -33z" unicode="O"/>
<glyph glyph-name="P" horiz-adv-x="658" unicode="P" d="M164 337v-278q0 -23 -17 -41t-42 -18q-23 0 -41 18t-18 41v652q0 32 23 55t56 23h287q47 1 88 -17t72 -49q30 -31 48 -72t18 -88t-18 -88t-48 -72q-31 -31 -72 -49t-88 -17h-248zM399 684h-235v-242h235q25 0 47 10t38 26t26 38t10 47t-10 47t-26 38t-38 26t-47 10z"/>
<glyph glyph-name="Q" d="M796 395q0 -43 -8 -87t-26 -84q-18 -42 -44 -80q-28 -38 -68 -73l55 -75q8 -10 8 -29q-1 -28 -17 -41t-33 -13q-12 0 -23 5t-19 16l-62 82q-43 -17 -81 -23t-70 -6q-88 0 -160 33q-72 32 -122 88t-78 130t-28 157q0 82 28 156t78 130t122 89t160 33t160 -33t122 -89 t78 -130t28 -156zM408 92q21 0 41 3t44 11l-19 25q-10 13 -10 31t13 35t40 17q12 0 23 -4t19 -16l25 -35q54 53 74 111t20 125q0 69 -21 125t-57 95t-86 61q-49 22 -106 21q-57 1 -106 -21q-50 -22 -86 -61t-57 -95t-21 -125t21 -125t57 -96t86 -60q49 -22 106 -22z" unicode="Q"/>
<glyph glyph-name="R" horiz-adv-x="713" unicode="R" d="M686 563q0 -27 -10 -55t-28 -52q-20 -24 -48 -43q-28 -18 -67 -25q25 -6 44 -19t33 -29t20 -34q8 -18 10 -32l22 -210v-5q0 -21 -14 -39q-16 -20 -44 -20q-25 0 -42 15t-19 39l-15 171q-4 31 -16 53t-32 34q-20 13 -43 19q-24 6 -50 6h-223v-278q0 -23 -17 -41t-42 -18 q-23 0 -41 18t-18 41v652q0 32 23 55t56 23h334q47 0 89 -18q42 -19 72 -49t48 -72t18 -87zM446 684h-282v-242h282q25 0 47 10q23 10 39 26t26 38t9 47q1 25 -9 47t-26 38t-39 26q-22 10 -47 10z"/>
<glyph glyph-name="S" horiz-adv-x="685" unicode="S" d="M658 228q0 -61 -24 -106t-64 -75q-41 -30 -96 -45t-117 -15q-89 -1 -151 25t-102 62q-39 36 -57 78q-18 40 -18 70q1 36 19 51t38 15q17 0 31 -10t17 -34q6 -38 26 -67t51 -49q30 -20 67 -29q37 -10 76 -10q30 -1 64 7t62 24t44 40q18 25 18 60q0 38 -20 63t-54 42 t-77 29t-88 23t-88 27t-77 40t-54 60t-20 89q0 50 22 89t59 66q38 27 90 41t114 14q61 0 111 -15t86 -40t57 -56q20 -31 20 -62q1 -26 -17 -42t-39 -15q-15 1 -28 9t-21 27q-12 31 -32 49t-42 28q-24 10 -50 14t-50 4q-36 0 -66 -8t-54 -20q-22 -14 -34 -34t-13 -44 q1 -34 21 -56t54 -37t77 -26t89 -23t88 -28q43 -16 77 -43q35 -26 55 -64t20 -93z"/>
<glyph glyph-name="T" horiz-adv-x="624" unicode="T" d="M253 684h-187q-22 0 -38 16t-15 37q-1 22 15 37t38 15h492q22 0 38 -15t15 -37q1 -21 -15 -37t-38 -16h-187v-625q1 -23 -17 -41t-42 -18q-25 0 -42 18t-17 41v625z"/>
<glyph glyph-name="U" horiz-adv-x="724" unicode="U" d="M559 263v467q-1 25 17 42t42 17t42 -17t18 -42v-467q0 -77 -26 -130t-70 -85t-102 -47q-58 -14 -118 -14q-62 0 -119 14q-57 15 -101 47t-70 85t-26 130v467q0 25 18 42t41 17q25 0 42 -17t17 -42v-467q0 -47 16 -80t44 -53t64 -29t74 -9t74 9t62 29q28 20 44 53t17 80z "/>
<glyph glyph-name="V" horiz-adv-x="654" unicode="V" d="M251 56l-236 654q-3 10 -3 20q0 6 2 16t7 20t17 16q12 7 32 7q18 0 34 -10t22 -28l201 -593l201 593q6 18 22 28t34 10q9 0 19 -3q10 -4 19 -10q8 -6 14 -18t6 -28q0 -10 -3 -20l-236 -654q-9 -26 -29 -41t-47 -15t-47 15t-29 41z"/>
<glyph glyph-name="W" horiz-adv-x="988" unicode="W" d="M785 49q-7 -23 -25 -36t-43 -13q-24 0 -42 12t-24 36l-157 610l-157 -610q-6 -24 -24 -36t-41 -12q-26 0 -44 13t-25 36l-189 664q-2 10 -2 16q0 7 2 17t10 20q6 10 18 16t29 6q20 0 36 -11t21 -31l147 -561l135 532q8 31 30 49t54 17q32 1 54 -17t30 -49l136 -532 l147 561q5 20 21 31t35 11q27 0 43 -18t16 -40v-9q0 -3 -2 -8z"/>
<glyph glyph-name="X" horiz-adv-x="631" unicode="X" d="M39 707q-9 13 -9 30q0 7 3 17t9 16q6 8 16 14t24 5q28 0 44 -22l189 -273l190 273q7 11 19 17t24 5q17 -1 35 -13t18 -39q0 -17 -10 -30l-212 -305l223 -320q9 -14 9 -30t-13 -34t-40 -18q-28 0 -43 22l-200 288l-199 -288q-8 -10 -20 -16t-24 -6q-22 0 -37 16t-15 36 q0 16 9 30l222 320z"/>
<glyph glyph-name="Y" horiz-adv-x="681" unicode="Y" d="M660 707l-260 -373v-275q0 -23 -18 -41t-42 -18t-42 18t-17 41v275l-260 373q-9 13 -9 30q0 23 16 37t36 15q12 1 24 -5t19 -17l233 -334l234 334q8 11 20 17t23 5q7 -1 16 -3t17 -8t14 -16t5 -25q0 -17 -9 -30z"/>
<glyph glyph-name="Z" horiz-adv-x="718" unicode="Z" d="M634 669l-440 -564h444q22 1 38 -15t15 -38q1 -22 -15 -37t-38 -15h-519q-29 0 -51 22t-22 50q0 16 4 27t15 23l435 562h-383q-22 0 -37 16t-15 37q0 22 15 37t37 15h464q29 0 51 -21t21 -51q0 -15 -5 -26t-14 -22z"/>
<glyph glyph-name="bracketleft" horiz-adv-x="336" unicode="[" d="M46 -26v842q0 16 5 34t17 35q12 16 32 26t51 10h105q22 1 38 -15t15 -38q1 -22 -15 -37t-38 -15h-52q-19 0 -36 -12t-17 -41v-737q-1 -20 13 -36t40 -16h52q22 0 38 -16t15 -37q1 -21 -15 -37t-38 -16h-105q-17 0 -35 4t-34 17t-26 33t-10 52z"/>
<glyph glyph-name="backslash" horiz-adv-x="524" unicode="\" d="M423 -15l-406 775q-5 9 -5 22q0 6 2 14t8 16t14 12q8 5 22 5q12 -1 24 -7t18 -18l407 -775q5 -9 5 -22q0 -15 -11 -31t-36 -16q-13 0 -25 6t-17 19z"/>
<glyph glyph-name="bracketright" horiz-adv-x="329" unicode="]" d="M283 816v-842q1 -19 -5 -38t-18 -34q-12 -14 -33 -24q-20 -10 -49 -10h-105q-21 0 -37 16t-16 37t16 37t37 16h53q20 0 36 13t16 39v737q0 7 -2 17t-9 17q-6 7 -16 13t-25 6h-53q-21 0 -37 15t-16 37t16 38t37 15h105q19 -1 38 -7t34 -18t24 -33q9 -20 9 -47z"/>
<glyph glyph-name="asciicircum" horiz-adv-x="240" unicode="^" d="M140 793l72 -72q8 -8 8 -18q0 -7 -6 -17t-20 -10q-12 0 -20 8l-54 54l-54 -54q-8 -8 -20 -8q-8 0 -17 6t-9 20q0 11 8 19l72 72q10 10 20 10t20 -10z"/>
<glyph glyph-name="underscore" horiz-adv-x="684" unicode="_" d="M684 -184h-631q-21 0 -37 15t-16 37t16 38t37 15h631q22 1 38 -15t15 -38q1 -22 -15 -37t-38 -15z"/>
<glyph glyph-name="grave" horiz-adv-x="186" unicode="`" d="M115 651l-79 51q-8 5 -12 14t-4 19q0 7 3 17t10 18t17 14t25 5q22 0 32 -16l51 -79q8 -11 8 -23q0 -8 -6 -18t-21 -10q-13 0 -24 8z"/>
<glyph glyph-name="a" horiz-adv-x="545" unicode="a" d="M401 287l-25 -7q-18 -6 -44 -9t-54 -7t-53 -10q-26 -6 -47 -18q-22 -12 -34 -29q-12 -18 -12 -46q0 -23 10 -37t24 -22q15 -8 34 -12t38 -4q29 0 58 6q28 6 52 22q24 15 38 40t15 62v71zM151 425q-7 -11 -17 -17t-21 -6q-20 0 -37 13t-17 36q0 9 5 22q9 21 24 41 q14 20 40 37q26 15 64 25t91 10q103 0 163 -40t60 -120v-373q0 -21 -15 -37t-37 -16t-38 16t-15 37v16q-39 -41 -87 -55t-102 -14q-34 0 -68 10t-62 29q-28 20 -45 50t-17 72q0 49 19 81t51 53t74 32t87 16q53 5 83 13t45 18t19 23t3 29q0 19 -11 33t-28 23q-17 10 -38 14 t-41 4q-36 0 -58 -6t-36 -16q-15 -10 -23 -24t-15 -29z"/>
<glyph glyph-name="b" horiz-adv-x="579" unicode="b" d="M461 289q-1 41 -11 77t-30 64t-50 46q-30 17 -67 17t-67 -17q-30 -18 -50 -46t-30 -64t-11 -77q1 -39 11 -76t30 -65t50 -45t67 -17t67 17t50 45t30 65t11 76zM151 62v-9q0 -21 -15 -37t-37 -16q-21 0 -37 16t-16 37v684q0 22 16 37t37 15q22 0 37 -15t15 -37v-237 q5 6 17 19t31 27q20 14 50 23q30 10 71 10q54 0 98 -21q44 -22 76 -60t48 -92q17 -54 17 -117q0 -64 -19 -117q-20 -54 -52 -92t-76 -59t-92 -21q-30 0 -53 3t-42 11t-37 19q-18 12 -37 29z"/>
<glyph glyph-name="c" horiz-adv-x="550" unicode="c" d="M296 -7q-60 -1 -110 21t-87 61t-58 93t-21 121t21 121t58 94q37 38 87 60t110 22t104 -18t72 -41q28 -24 43 -50q14 -26 14 -44q0 -23 -16 -35t-36 -13q-14 0 -26 7t-17 24q-4 16 -16 31t-30 27t-40 19q-24 7 -52 7q-32 0 -62 -12t-54 -36q-24 -26 -40 -66 q-15 -40 -15 -97t15 -97q16 -40 40 -65t54 -37t62 -11q28 0 52 7t40 19q18 12 30 27t16 31q5 17 17 24t26 7q21 0 37 -12t16 -35q0 -11 -10 -37t-36 -51q-26 -26 -72 -46t-116 -20z"/>
<glyph glyph-name="d" horiz-adv-x="579" unicode="d" d="M118 289q0 -39 10 -76t32 -65q20 -28 49 -45t67 -17t68 17t49 45q21 28 31 65t10 76q0 41 -10 77t-31 64q-19 28 -49 46q-30 17 -68 17t-67 -17q-29 -18 -49 -46t-32 -64q-10 -36 -10 -77zM428 62q-20 -17 -38 -29q-18 -11 -36 -19q-19 -8 -42 -11t-53 -3q-49 0 -93 21 t-76 59t-51 92q-19 53 -19 117q0 63 17 117t49 92t75 60q44 21 98 21q41 0 71 -10q30 -9 50 -23t32 -27t16 -19v237q0 22 15 37t37 15t38 -15t15 -37v-684q1 -21 -15 -37t-38 -16t-37 16t-15 37v9z"/>
<glyph glyph-name="e" horiz-adv-x="582" unicode="e" d="M293 500q-37 0 -63 -11t-44 -27t-27 -37q-10 -20 -15 -37q-5 -18 -6 -30t-1 -14h324q0 31 -10 59q-11 27 -31 49t-52 35t-75 13zM502 258h-366q0 -2 2 -16t6 -35q6 -21 16 -43t29 -41t45 -31t64 -13q31 0 53 5t39 15q17 9 31 25t28 37q8 12 18 17t21 5q18 0 33 -13 t15 -33q0 -12 -13 -36t-41 -48t-74 -42q-45 -18 -110 -18q-66 0 -118 24q-52 25 -88 65t-54 94t-18 113q0 61 19 115t55 95q36 39 85 63q50 24 112 24q57 0 107 -17t86 -49t57 -80q21 -47 21 -107q0 -37 -18 -56t-42 -19z"/>
<glyph glyph-name="f" horiz-adv-x="324" unicode="f" d="M233 789h18q21 0 37 -15t16 -37q0 -21 -16 -37t-37 -16h-18q-5 0 -15 -4t-10 -21v-93h50q18 0 32 -14t14 -32q0 -20 -14 -33t-32 -13h-50v-421q0 -21 -16 -37t-37 -16q-22 0 -37 16t-15 37v421h-37q-18 0 -32 13t-14 33q0 18 14 32t32 14h37v93q1 23 9 46t24 42t41 31 q24 12 56 11z"/>
<glyph glyph-name="g" horiz-adv-x="585" unicode="g" d="M118 289q0 -99 44 -151t121 -52t121 52t43 151q1 100 -43 152t-121 52t-121 -52t-44 -152zM441 517v9q0 22 15 38t37 15q21 1 37 -15t16 -38v-513q0 -50 -20 -91q-20 -40 -56 -70q-35 -30 -82 -46t-101 -17q-59 1 -101 15t-70 34t-41 40t-13 32q0 20 13 35t31 15t36 -19 q13 -15 26 -27q14 -12 30 -19q16 -8 38 -12t51 -4q32 -1 60 7t49 24t33 42t12 61v66q-10 -11 -25 -25t-36 -25q-21 -13 -49 -21t-65 -8q-54 0 -100 17t-78 52t-50 90t-18 130q0 77 20 131t54 90t78 52q44 17 94 17q62 0 104 -19t71 -43z"/>
<glyph glyph-name="h" horiz-adv-x="559" unicode="h" d="M151 349v-296q0 -21 -15 -37t-37 -16q-21 0 -37 16t-16 37v684q0 22 16 37t37 15q22 0 37 -15t15 -37v-235q32 37 69 57t89 20q46 0 85 -14q39 -13 67 -39q27 -26 43 -62t16 -82v-329q0 -21 -16 -37t-37 -16q-22 0 -37 16t-15 37v329q1 24 -9 44t-26 35t-37 23t-44 9 q-30 1 -57 -11q-28 -12 -48 -32t-32 -45q-12 -26 -11 -56z"/>
<glyph glyph-name="i" horiz-adv-x="183" unicode="i" d="M144 526v-473q0 -21 -15 -37t-37 -16t-38 16t-15 37v473q-1 22 15 38t38 15q22 1 37 -15t15 -38zM32 730q0 25 18 42t42 17t42 -17t17 -42q1 -24 -17 -42t-42 -17q-24 -1 -42 17t-18 42z"/>
<glyph glyph-name="j" horiz-adv-x="197" unicode="j" d="M39 730q-1 25 17 42t43 17q23 0 41 -17t18 -42q0 -24 -18 -42t-41 -17q-25 -1 -43 17t-17 42zM151 526v-605q-1 -27 -11 -51t-28 -42t-41 -28q-24 -10 -51 -11h-34q-22 -1 -38 15t-15 38q-1 22 15 38t38 15h7q53 0 53 52v579q0 22 16 38t37 15q22 1 37 -15t15 -38z"/>
<glyph glyph-name="k" horiz-adv-x="535" unicode="k" d="M151 355l245 213q14 11 31 11q16 0 31 -12t15 -34q0 -20 -16 -34l-153 -132l202 -286q9 -14 9 -30q0 -13 -5 -23t-13 -16t-17 -9t-17 -3q-13 0 -24 5t-19 16l-192 278l-77 -66v-180q0 -21 -15 -37t-37 -16q-21 0 -37 16t-16 37v684q0 22 16 37t37 15q22 0 37 -15t15 -37 v-382z"/>
<glyph glyph-name="l" horiz-adv-x="197" unicode="l" d="M151 737v-684q0 -21 -15 -37t-37 -16q-21 0 -37 16t-16 37v684q0 22 16 37t37 15q22 0 37 -15t15 -37z"/>
<glyph glyph-name="m" horiz-adv-x="815" unicode="m" d="M608 579q36 -1 66 -11t54 -31q22 -21 35 -52t13 -72v-360q0 -21 -15 -37t-37 -16t-38 16t-15 37v355q0 35 -23 60t-61 25q-33 -1 -57 -13t-40 -33t-22 -48q-8 -27 -8 -56v-290q0 -21 -15 -37t-37 -16t-38 16t-15 37v355q0 35 -22 60t-62 25q-33 -1 -57 -13t-40 -33 t-22 -48q-8 -27 -8 -56v-290q0 -21 -15 -37t-37 -16t-38 16t-15 37v473q-1 22 15 38t38 15q22 1 37 -15t15 -38v-22q6 7 18 20t30 25q20 12 46 21t62 9q50 -1 86 -27t56 -65q26 49 68 71t98 21z"/>
<glyph glyph-name="n" horiz-adv-x="547" unicode="n" d="M316 579q38 -1 72 -11t61 -31t43 -52t16 -72v-360q0 -21 -16 -37t-37 -16q-22 0 -37 16t-15 37v348q-1 21 -11 39t-26 30t-38 17q-20 6 -40 6q-33 1 -60 -11q-28 -12 -46 -32t-28 -48t-10 -59v-290q0 -21 -15 -37t-37 -16t-38 16t-15 37v473q-1 22 15 38t38 15 q22 1 37 -15t15 -38v-18q10 10 24 22t36 23q20 11 48 19t64 7z"/>
<glyph glyph-name="o" horiz-adv-x="592" unicode="o" d="M467 289q0 55 -13 95q-14 40 -36 66t-54 38t-68 12t-68 -12t-54 -38t-36 -66q-13 -40 -13 -95t13 -95q14 -40 36 -64q22 -26 54 -38t68 -13q36 1 68 13t54 38t36 64q13 40 13 95zM296 -7q-60 0 -110 20q-50 19 -87 57t-58 93t-21 126t21 126t58 93t87 58t110 20t110 -20 t87 -58t58 -93t21 -126t-21 -126t-58 -93t-87 -57q-50 -20 -110 -20z"/>
<glyph glyph-name="p" horiz-adv-x="579" unicode="p" d="M303 86q37 0 67 17t50 45t30 65t11 76q-1 41 -11 77t-30 64t-50 46q-30 17 -67 17t-67 -17q-30 -18 -50 -46t-30 -64t-11 -77q1 -39 11 -76t30 -65t50 -45t67 -17zM151 526v-9q19 17 37 29t37 20t42 10q23 3 53 3q48 0 92 -21q44 -22 76 -60t52 -92q19 -54 19 -117 q0 -64 -17 -117q-16 -54 -48 -92t-76 -59t-98 -21q-36 0 -62 8t-46 18t-34 24t-27 26v-234q0 -22 -15 -38t-37 -15q-21 -1 -37 15t-16 38v684q0 22 16 38t37 15q22 1 37 -15t15 -38z"/>
<glyph glyph-name="q" horiz-adv-x="579" unicode="q" d="M276 86q38 0 68 17t49 45q21 28 31 65t10 76q0 41 -10 77t-31 64q-19 28 -49 46q-30 17 -68 17t-67 -17q-29 -18 -49 -46t-32 -64q-10 -36 -10 -77q0 -39 10 -76t32 -65q20 -28 49 -45t67 -17zM428 526q0 22 15 38t37 15q22 1 38 -15t15 -38v-684q1 -22 -15 -38t-38 -15 q-22 -1 -37 15t-15 38v234l-26 -26t-34 -24t-46 -18t-63 -8q-54 0 -98 21q-43 21 -75 59t-49 92q-17 53 -17 117q0 63 19 117t51 92t76 60q44 21 93 21q30 0 53 -3q23 -2 42 -10q18 -8 36 -20t38 -29v9z"/>
<glyph glyph-name="r" horiz-adv-x="333" unicode="r" d="M144 322v-269q0 -21 -15 -37t-37 -16t-38 16t-15 37v473q-1 22 15 38t38 15q22 1 37 -15t15 -38v-19q4 4 15 16q11 13 27 25t38 22q20 10 43 9q21 1 37 -15t16 -38q0 -20 -16 -36t-37 -16q-38 0 -62 -18q-23 -18 -37 -41q-14 -24 -19 -50t-5 -43z"/>
<glyph glyph-name="s" horiz-adv-x="539" unicode="s" d="M513 174q0 -50 -20 -84t-53 -56t-77 -32t-92 -9q-69 1 -115 21t-76 48t-42 54q-13 27 -13 41q1 23 17 37t35 15q12 0 23 -7t17 -22q17 -43 55 -72t107 -29q32 -1 55 7q24 8 38 20t21 28t7 33q0 34 -27 51t-67 27q-40 11 -88 19t-87 24q-40 16 -67 48q-27 30 -27 84 q0 78 57 122t159 44q57 0 96 -12t64 -31q10 -7 21 -19t21 -26q11 -14 17 -26q6 -13 6 -23q0 -23 -18 -37t-39 -13q-13 1 -24 7t-17 20q-8 19 -17 33t-23 23q-14 10 -36 14q-20 4 -51 4q-61 0 -89 -20t-27 -48q0 -22 16 -36q17 -14 43 -22q26 -10 60 -16t69 -16q35 -8 69 -20 t60 -30q26 -20 43 -48q16 -28 16 -70z"/>
<glyph glyph-name="t" horiz-adv-x="329" unicode="t" d="M208 691v-125h55q19 0 33 -14t13 -32q1 -20 -13 -33t-33 -13h-55v-421q0 -21 -16 -37t-37 -16q-22 0 -37 16t-15 37v421h-37q-18 0 -32 13t-14 33q0 18 14 32t32 14h37v125q0 22 15 37t37 15q21 0 37 -15t16 -37z"/>
<glyph glyph-name="u" horiz-adv-x="547" unicode="u" d="M231 0q-37 0 -71 10t-62 32q-27 21 -43 52t-16 72v360q-1 22 15 38t38 15q22 1 37 -15t15 -38v-348q0 -23 10 -40q10 -16 28 -28q16 -12 36 -18t41 -6q33 0 60 12t45 31t29 47q10 28 10 60v290q0 22 15 38t37 15q21 1 37 -15t16 -38v-473q0 -21 -16 -37t-37 -16 q-22 0 -37 16t-15 37v18q-11 -9 -25 -21t-35 -24q-21 -10 -49 -18t-63 -8z"/>
<glyph glyph-name="v" horiz-adv-x="512" unicode="v" d="M256 0q-29 0 -49 16t-30 42l-161 451q-3 9 -3 17q0 7 3 16q3 10 9 18t16 14t24 5q17 1 31 -9t19 -26l141 -424l140 424q5 16 19 26t31 9q6 -1 16 -3t17 -8q8 -6 14 -16t6 -26q0 -8 -3 -17l-162 -451q-10 -26 -30 -42t-48 -16z"/>
<glyph glyph-name="w" horiz-adv-x="811" unicode="w" d="M648 58q-8 -26 -28 -42t-46 -16q-28 0 -46 16t-26 42l-97 353l-97 -353q-8 -26 -26 -42t-45 -16q-28 0 -47 16t-27 42l-147 452q-3 7 -3 17q0 7 2 15q1 8 7 16t16 15q10 6 27 6q17 1 31 -9t20 -27l122 -407l100 375q8 23 24 41t43 18t43 -17t24 -42l100 -375l123 407 q5 17 19 27t31 9q7 -1 16 -3t17 -8t14 -16t6 -25q0 -10 -3 -17z"/>
<glyph glyph-name="x" horiz-adv-x="505" unicode="x" d="M196 300l-154 195q-11 14 -11 32q0 19 13 35t37 17q28 0 45 -25l127 -183l126 183q17 25 45 25q24 -1 37 -17t13 -35q0 -18 -11 -32l-154 -195l165 -213q11 -14 11 -33q0 -22 -16 -38t-40 -16q-13 0 -23 4t-17 15l-136 211l-137 -211q-8 -11 -18 -15t-21 -4q-9 0 -19 2 t-18 10q-8 6 -14 16t-6 26q0 19 11 33z"/>
<glyph glyph-name="y" horiz-adv-x="562" unicode="y" d="M223 -61l25 70l-230 494q-5 12 -5 22q0 7 3 17t9 18q5 8 15 14t24 5q18 1 32 -9t21 -27l174 -418l152 413q7 18 21 30t33 11q18 1 35 -13t17 -43q0 -5 -1 -10t-3 -10l-230 -592q-9 -19 -19 -41t-26 -39t-42 -28t-63 -11h-48q-19 0 -33 14t-14 33q0 20 14 34t33 14h31 q10 0 20 1q10 2 20 6t19 14t16 31z"/>
<glyph glyph-name="z" horiz-adv-x="527" unicode="z" d="M44 526q0 22 16 38t37 15h306q27 1 47 -19t19 -47q0 -13 -4 -22t-12 -19l-289 -367h291q21 1 37 -15t15 -38q1 -22 -15 -37t-37 -15h-369q-26 0 -46 20t-20 46q0 12 4 21t11 19l292 368h-230q-21 0 -37 15t-16 37z"/>
<glyph glyph-name="braceleft" horiz-adv-x="429" unicode="{" d="M192 316h52v-290q0 -20 14 -36t39 -16h53q22 0 37 -16t15 -37t-15 -37t-37 -16h-106q-16 0 -34 4t-34 17t-26 33t-11 52v237h-6q-19 0 -38 6q-19 7 -34 19t-25 32t-9 48v158q-1 18 5 36t18 34t32 25q20 10 51 10h6v237q0 16 5 34t17 35q13 16 33 26t50 10h106 q22 1 37 -15t15 -38t-15 -37t-37 -15h-53q-19 0 -36 -12t-17 -41v-289h-52q-19 0 -36 -12t-17 -41v-52q1 -19 13 -36t40 -17z"/>
<glyph glyph-name="bar" horiz-adv-x="197" unicode="|" d="M151 789v-789q1 -22 -15 -38t-38 -15q-22 -1 -37 15t-15 38v789q0 21 15 37t37 16t38 -16t15 -37z"/>
<glyph glyph-name="braceright" horiz-adv-x="429" unicode="}" d="M237 316q29 0 41 17t12 36v52q0 29 -17 41t-36 12h-52v289q0 29 -17 41t-36 12h-53q-22 0 -37 15t-15 37t15 38t37 15h106q31 0 51 -10t32 -26q12 -17 17 -35t5 -34v-237h6q30 0 50 -10q20 -9 33 -25q11 -16 17 -34t6 -36v-158q0 -28 -10 -48t-24 -32q-15 -12 -34 -19 q-19 -6 -38 -6h-6v-237q0 -32 -10 -52t-27 -33t-35 -17t-33 -4h-106q-22 0 -37 16t-15 37t15 37t37 16h53q26 0 40 16t13 36v290h52z"/>
<glyph glyph-name="asciitilde" horiz-adv-x="397" unicode="~" d="M74 664q-22 0 -38 16t-16 37q0 15 8 29t20 24t28 14q16 5 32 5q11 0 23 -3l118 -32q2 -1 4 -1h5q10 -1 17 5t13 13t15 13q8 6 21 5q22 0 38 -15t15 -37q1 -15 -7 -29t-20 -24t-29 -14q-16 -5 -32 -5q-11 0 -23 3l-118 32q-6 2 -8 2q-11 0 -17 -6q-7 -6 -13 -13t-14 -13 t-22 -6z"/>
<glyph glyph-name="exclamdown" horiz-adv-x="237" unicode="¡" d="M177 539v-480q0 -23 -17 -41t-42 -18q-24 0 -42 18t-17 41v480q-1 25 17 43t42 17q25 1 42 -17t17 -43zM118 645q-28 0 -50 21t-22 51t22 51t50 21q30 0 52 -21t21 -51q1 -30 -21 -51t-52 -21z"/>
<glyph glyph-name="cent" horiz-adv-x="549" unicode="¢" d="M270 199v418q-23 -5 -48 -17t-47 -35q-22 -24 -36 -62t-14 -95q1 -58 15 -96t36 -62t48 -36t46 -15zM314 747v-44q58 -1 98 -20t66 -44t39 -50q12 -25 12 -38q0 -23 -16 -35t-36 -13q-14 0 -26 7t-17 24q-10 32 -42 56t-78 28v-420q46 4 78 28t42 56q5 16 17 24t26 7 q19 -1 35 -13t17 -35q0 -15 -13 -41t-40 -50q-28 -24 -68 -44q-40 -18 -94 -18v-62q0 -10 -6 -16t-16 -6t-16 6t-6 16v63q-48 3 -94 25t-80 59q-34 38 -56 91q-20 53 -20 120q0 68 20 120t54 89t80 59t96 27v44q0 9 6 15t16 7q10 -1 16 -7t6 -15z"/>
<glyph glyph-name="sterling" horiz-adv-x="554" unicode="£" d="M299 708q-35 0 -59 -10t-40 -26q-16 -18 -22 -40q-7 -22 -7 -48q-1 -45 11 -78t18 -59h132q18 -1 30 -13t12 -29t-12 -29t-30 -13h-104q7 -30 11 -56t4 -49q1 -38 -9 -68t-27 -53q-6 -8 3 -8q8 1 16 1t15 1q29 1 49 -7t38 -18t35 -16q18 -8 45 -8q18 0 28 4t16 6l12 8 t18 3q20 0 34 -13t14 -36q0 -9 -6 -21t-20 -22t-34 -17t-49 -7q-39 1 -61 9t-39 18t-37 18t-54 9q-15 -1 -29 -5q-13 -4 -27 -10t-26 -10t-25 -5q-13 0 -24 6q-11 7 -19 15t-12 17t-5 15q1 18 13 32t28 34t28 47q12 28 12 70q0 25 -6 53t-17 63h-59q-18 1 -30 13t-12 29 t12 29t30 13h30q-3 9 -9 25t-11 34t-9 38q-4 19 -4 35q0 54 20 96q20 43 54 71q35 28 79 42t92 15q60 0 104 -20t72 -49q28 -30 41 -64t13 -62q0 -26 -16 -37t-37 -11q-17 0 -32 9t-20 27q-3 18 -11 38t-22 36t-38 27t-59 11z"/>
<glyph glyph-name="currency" horiz-adv-x="598" unicode="¤" d="M299 404q-24 0 -45 -9q-20 -9 -36 -25t-25 -36q-9 -21 -9 -45t9 -45q9 -20 25 -36t36 -25q21 -9 45 -9t45 9q20 9 36 25t25 36q9 21 9 45t-9 45q-9 20 -25 36t-36 25q-21 9 -45 9zM124 399l-90 90q-14 14 -14 33q0 18 14 32t32 14q19 0 33 -14l90 -90q24 16 52 24t58 8 q31 0 59 -8t51 -24l90 90q14 14 33 14q18 0 32 -14t14 -32q0 -19 -14 -33l-90 -90q16 -24 24 -52t8 -58t-8 -58t-24 -52l90 -90q14 -14 14 -33q0 -18 -14 -32t-32 -14q-19 0 -33 14l-89 90q-24 -16 -52 -24t-59 -8t-59 8t-51 24l-90 -90q-14 -14 -33 -14q-18 0 -32 14 t-14 32q0 19 14 33l90 90q-16 24 -24 52t-8 58q0 31 8 59t24 51z"/>
<glyph glyph-name="yen" horiz-adv-x="682" unicode="¥" d="M661 707l-186 -266h64q17 1 28 -11t11 -29t-11 -28t-28 -11h-119l-19 -28v-25h111q16 0 28 -11t12 -28q0 -16 -12 -28t-28 -12h-111v-171q1 -23 -17 -41t-43 -18q-23 0 -41 18t-18 41v171h-112q-16 0 -28 12t-11 28q-1 17 11 28t28 11h112v25l-19 28h-119q-17 0 -28 11 t-11 28t11 29t28 11h64l-186 266q-10 13 -10 30q0 7 2 15t8 16t16 15q10 6 27 6q11 1 23 -5t20 -17l233 -334l234 334q15 22 43 22q16 0 34 -12t18 -40q0 -17 -9 -30z"/>
<glyph glyph-name="brokenbar" horiz-adv-x="197" unicode="¦" d="M151 736v-264q1 -22 -15 -38t-38 -15q-22 -1 -37 15t-15 38v264q0 22 15 38t37 15q22 1 38 -15t15 -38zM151 317v-264q1 -21 -15 -37t-38 -16t-37 16t-15 37v264q0 21 15 37t37 16t38 -16t15 -37z"/>
<glyph glyph-name="section" horiz-adv-x="574" unicode="§" d="M91 360q-29 16 -47 46t-17 65q-1 45 27 79t70 45q-2 6 -2 12v13q0 34 13 64t35 52t53 36q30 13 64 13t64 -13q31 -14 53 -36t35 -52t13 -64q0 -14 -9 -23t-23 -9t-23 9t-9 23q0 22 -8 40t-22 32t-32 21q-18 8 -39 8q-35 0 -59 -24t-24 -59q0 -24 12 -44t33 -30l235 -136 q29 -17 46 -46t17 -64q1 -46 -27 -80t-70 -44q2 -5 2 -11v-13q0 -34 -13 -64t-35 -52t-53 -36q-30 -13 -64 -13t-64 13q-31 14 -53 36t-35 52t-13 64q0 14 9 23t23 9t23 -9t9 -23q0 -22 8 -40t22 -32t32 -21q18 -8 39 -8q35 0 59 24t24 59q0 24 -10 42t-29 29zM175 504 q-5 2 -9 4t-11 2q-17 0 -28 -11t-11 -28q0 -22 20 -34l265 -154q8 -4 18 -4q17 0 28 11t11 28q0 23 -18 33z"/>
<glyph glyph-name="dieresis" horiz-adv-x="298" unicode="¨" d="M162 732q0 23 17 40t41 17t41 -17t17 -40q0 -24 -17 -41t-41 -17t-41 17t-17 41zM20 732q0 23 17 40t41 17t41 -17t17 -40q0 -24 -17 -41t-41 -17t-41 17t-17 41z"/>
<glyph glyph-name="copyright" horiz-adv-x="829" unicode="©" d="M412 576q-30 0 -56 -13t-46 -37t-31 -56q-11 -34 -11 -75t11 -75t31 -58t46 -36q26 -13 56 -13q27 0 47 8q21 7 35 21t24 30t15 33q5 11 13 17t19 5q15 0 27 -9t12 -26q0 -18 -14 -42t-38 -46t-60 -38t-80 -16q-54 0 -94 20t-68 55q-26 34 -40 78t-13 92q-1 48 13 92 q14 43 40 77t68 54q40 20 94 21q44 0 80 -16q36 -17 60 -39t38 -46t14 -41t-12 -25t-27 -9q-11 0 -19 5t-13 17q-5 17 -15 33t-24 29q-15 13 -35 21t-47 8zM86 395q0 -68 26 -128q26 -61 70 -105t104 -70t128 -26t128 26t104 70t71 105q26 60 26 128t-26 128q-27 61 -71 105 t-104 70t-128 26t-128 -26t-104 -70t-70 -105q-26 -60 -26 -128zM414 0q-81 0 -153 31q-71 31 -125 85t-85 125q-31 72 -31 154q0 81 31 153t85 126t125 84q72 31 153 31q82 0 154 -31q72 -30 126 -84t84 -126q31 -72 31 -153q0 -82 -31 -154q-30 -71 -84 -125t-126 -85 t-154 -31z"/>
<glyph glyph-name="ordfeminine" horiz-adv-x="352" unicode="ª" d="M27 213v40h285v-40h-285zM249 465l-15 -4q-17 -5 -42 -7t-48 -8q-24 -6 -40 -19t-16 -38q0 -27 20 -37t43 -9q17 0 35 4t32 13t22 24t9 38v43zM99 547q-8 -14 -23 -14q-11 0 -21 8t-10 21q-1 9 5 23t21 27t41 22t66 9q62 1 98 -23t37 -72v-224q1 -14 -9 -23t-23 -9t-23 9 t-9 23v10q-23 -26 -53 -34t-60 -8q-22 0 -42 6t-36 17q-16 13 -28 31q-10 18 -10 43q0 29 12 49t30 32t44 18t53 10q32 3 50 8t27 11q9 5 11 13t2 18q0 24 -23 34t-48 10q-20 0 -34 -4t-22 -10t-13 -14t-10 -17z"/>
<glyph glyph-name="guillemotleft" horiz-adv-x="254" unicode="«" d="M28 429l127 127q13 13 33 13q17 0 31.5 -11.5t14.5 -33.5q0 -20 -14 -34l-95 -95l95 -96q14 -14 14 -34t-14 -32.5t-33 -12.5t-32 13l-127 127q-16 16 -16 35q0 18 16 34zM244 429l127 127q13 13 33 13q17 0 31.5 -11.5t14.5 -33.5q0 -20 -14 -34l-95 -95l95 -96 q14 -14 14 -34t-14 -32.5t-33 -12.5t-32 13l-127 127q-16 16 -16 35q0 18 16 34z"/>
<glyph glyph-name="logicalnot" horiz-adv-x="434" unicode="¬" d="M414 395v-138q0 -19 -14 -33t-32 -13q-20 -1 -33 13t-13 33v92h-256q-18 0 -32 13t-14 33q0 19 14 33t32 13h302q18 1 32 -13t14 -33z"/>
<glyph glyph-name="registered" horiz-adv-x="606" unicode="®" d="M443 579q0 -23 -15 -43t-38 -25q-6 -2 -6 -3l6 -2q9 -2 21 -14t14 -29l9 -84q0 -9 -6 -17t-16 -8q-10 -1 -18 5t-8 16l-6 69q-2 20 -16 32t-40 12h-89v-111q0 -11 -7 -17t-17 -6t-17 6t-7 17v261q0 9 8 20t24 11h134q37 0 63 -26t27 -64zM347 627h-112v-96h112 q21 0 35 14t14 34t-14 34t-35 14zM66 507q0 -49 18 -92t52 -75q32 -32 75 -52q43 -18 92 -18t92 18t75 52q32 32 50 75t19 92q-1 49 -19 92t-50 75t-75 50t-92 19q-49 -1 -92 -19t-75 -50t-52 -75q-18 -43 -18 -92zM303 224q-59 0 -111 22t-89 61q-39 37 -61 89t-22 111 q0 57 22 109t61 90q37 38 89 61q52 22 111 22q58 0 110 -22q52 -23 90 -61q39 -38 61 -90t22 -109q0 -59 -22 -111t-61 -89q-38 -39 -90 -61t-110 -22z"/>
<glyph glyph-name="macron" horiz-adv-x="448" unicode="¯" d="M382 697h-316q-18 0 -32 13t-14 33q0 19 14 33t32 13h316q18 1 32 -13t14 -33q0 -20 -14 -33t-32 -13z"/>
<glyph glyph-name="degree" horiz-adv-x="356" unicode="°" d="M178 737q-46 -1 -76 -31t-30 -75t30 -75t76 -31q46 1 76 31t30 75t-30 75t-76 31zM178 789q34 -1 62 -13t50 -34t34 -50t12 -61t-12 -61t-34 -50t-50 -34t-62 -13q-34 1 -62 13t-50 34t-34 50t-12 61t12 61t34 50t50 34t62 13z"/>
<glyph glyph-name="plusminus" horiz-adv-x="436" unicode="±" d="M370 128h-304q-18 0 -32 13t-14 33q0 18 14 32t32 14h304q18 0 32 -14t14 -32q0 -20 -14 -33t-32 -13zM263 418v-106q1 -18 -13 -32t-33 -14q-20 0 -33 14t-13 32v106h-105q-18 0 -32 13t-14 33q0 18 14 32t32 14h105v105q0 19 13 33t33 13q19 1 33 -13t13 -33v-105h105 q18 0 32 -14t14 -32q0 -20 -14 -33t-32 -13h-105z"/>
<glyph glyph-name="twosuperior" horiz-adv-x="364" unicode="²" d="M30 657q0 30 14 54q14 23 36 41t51 28q28 10 56 9q35 -1 63 -11t49 -28t33 -45q12 -26 12 -57q0 -36 -14 -60t-40 -42q-24 -18 -57 -36q-33 -17 -70 -41q-30 -19 -47 -41t-17 -35h202q11 -1 19 -9t8 -19t-8 -19t-19 -9h-241q-16 -1 -28 11t-12 29q0 15 10 33t27 38 q15 18 35 34t38 29q29 19 56 35t48 31q22 16 34 34t12 41q0 44 -28 63t-65 19q-19 0 -35 -5t-30 -15t-21 -24q-8 -14 -8 -32q0 -19 -10 -29t-22 -10q-11 -1 -21 9t-10 29z"/>
<glyph glyph-name="threesuperior" horiz-adv-x="374" unicode="³" d="M186 737q-36 1 -62 -15t-37 -57q-2 -11 -10 -17t-16 -6q-13 0 -21 9t-9 26q0 11 8 30t26 37q17 18 47 32t74 13q68 0 108 -33t41 -87q0 -26 -14 -53t-54 -40q13 -2 28 -9t28 -20t22 -34t9 -51q0 -34 -14 -59t-36 -41t-51 -25q-29 -8 -59 -8q-42 1 -74 13t-55 32 q-21 20 -33 42t-12 42q0 16 8 24t20 7q10 -1 18 -7t11 -18q7 -36 37 -60t75 -24q19 0 37 5t31 15q15 10 23 26t8 35q0 49 -30 69t-88 20q-10 0 -16 8t-6 17t6 17t16 7q58 -1 82 17t23 53q-1 29 -27 49t-62 19z"/>
<glyph glyph-name="acute" horiz-adv-x="186" unicode="´" d="M47 642q-13 0 -20 8t-7 20t8 23l51 79q11 17 31 17q22 0 39 -16t17 -40q0 -22 -16 -32l-79 -51q-11 -8 -24 -8z"/>
<glyph glyph-name="mu" horiz-adv-x="567" unicode="µ" d="M141 27q-10 -34 -23 -64q-13 -31 -27 -53q-15 -22 -29 -36t-26 -13q-16 0 -16 20q0 13 6 27t14 42t13 80q6 50 6 136v360q-1 22 15 38t38 15q22 1 37 -15t15 -38v-348q0 -23 10 -40q10 -16 28 -28q16 -12 36 -18t41 -6q33 0 59 12t46 31q18 19 28 47t10 60v290 q0 22 16 38t37 15q21 1 37 -15t16 -38v-526q0 -22 -16 -38t-37 -15q-21 -1 -37 15t-16 38v71q-10 -9 -24 -21t-35 -24q-21 -10 -49 -18t-63 -8q-29 0 -57 6t-53 21z"/>
<glyph glyph-name="paragraph" horiz-adv-x="658" unicode="¶" d="M435 684v-625q1 -23 -17 -41t-42 -18q-25 0 -42 18t-17 41v278h-71q-47 -1 -88 17t-72 49q-30 31 -48 72t-18 88t18 88t48 72q31 31 72 49t88 17h287q33 0 56 -23t23 -55v-652q0 -23 -18 -41t-41 -18q-25 0 -42 18t-17 41v625h-59z"/>
<glyph glyph-name="onesuperior" horiz-adv-x="199" unicode="¹" d="M73 732q9 9 15 19q6 11 10 19q6 8 12 14t19 5t22 -9t9 -22v-380q0 -14 -9 -23t-22 -9t-23 9t-9 23v287h-53q-10 1 -17 7t-7 17q0 10 6 15t13 9q8 3 17 7t17 12z"/>
<glyph glyph-name="ordmasculine" horiz-adv-x="372" unicode="º" d="M289 466q0 66 -29 96t-74 30q-46 0 -74 -30t-28 -96t28 -96t74 -31q45 1 74 31t29 96zM186 288q-36 0 -66 12t-52 34t-36 56q-12 34 -12 76t12 75t36 55q22 22 52 35q30 12 66 12t66 -12q30 -13 52 -35t36 -55q12 -33 12 -75t-12 -76t-36 -56q-22 -22 -52 -34t-66 -12z M20 213v40h332v-40h-332z"/>
<glyph glyph-name="guillemotright" horiz-adv-x="254" unicode="»" d="M226 429q16 -16 16 -34q0 -19 -16 -35l-127 -127q-13 -13 -32 -13t-33 12.5t-14 32.5t14 34l95 96l-95 95q-14 14 -14 34q0 22 14.5 33.5t31.5 11.5q20 0 33 -13zM442 429q16 -16 16 -34q0 -19 -16 -35l-127 -127q-13 -13 -32 -13t-33 12.5t-14 32.5t14 34l95 96l-95 95 q-14 14 -14 34q0 22 14.5 33.5t31.5 11.5q20 0 33 -13z"/>
<glyph glyph-name="onequarter" horiz-adv-x="814" unicode="¼" d="M626 424l-167 -222h167v222zM375 188q0 17 11 32l246 319q4 7 12 11t19 4q18 0 30 -12t12 -29v-311h54q15 0 25 -10t10 -24t-10 -24t-25 -10h-54v-94q1 -16 -11 -28t-29 -12q-15 0 -27 12t-12 28v94h-196q-23 0 -39 16t-16 38zM115 29l406 775q5 10 15 16t21 6 q17 0 29 -12t11 -28q0 -9 -5 -19l-407 -775q-5 -9 -14 -15t-20 -6q-17 -1 -29 11t-11 29q0 10 4 18zM87 717q13 13 19 25t13 22t15 18q8 7 23 7t27 -11t12 -28v-476q0 -16 -12 -28t-27 -12q-17 0 -29 12t-11 28v360h-67q-12 0 -21 8t-9 21t7 19t17 11t22 10t21 14z"/>
<glyph glyph-name="onehalf" horiz-adv-x="880" unicode="½" d="M115 29l406 775q5 10 15 16t21 6q17 0 29 -12t11 -28q0 -9 -5 -19l-407 -775q-5 -9 -14 -15t-20 -6q-17 -1 -29 11t-11 29q0 10 4 18zM461 400q-1 38 17 68t46 52t63 33q35 12 71 12q42 0 78 -13q36 -12 62 -36t40 -56t15 -72q0 -44 -18 -74q-19 -30 -49 -53t-72 -45 t-87 -51q-38 -23 -59 -51t-21 -39q0 -6 5 -6h247q15 -1 25 -11t10 -24t-10 -24t-25 -10h-301q-21 0 -35 14t-14 36q0 19 13 42q13 24 33 46q21 22 45 43t47 36q35 23 69 43t60 39q26 21 42 43t16 51q0 27 -10 47t-26 32t-37 18t-43 6t-44 -6t-38 -19q-16 -12 -26 -30 t-10 -41q0 -24 -12 -36t-28 -12q-14 0 -26 12t-13 36zM87 717q13 13 19 25t13 22t15 18q8 7 23 7t27 -11t12 -28v-476q0 -16 -12 -28t-27 -12q-17 0 -29 12t-11 28v360h-67q-12 0 -21 8t-9 21t7 19t17 11t22 10t21 14z"/>
<glyph glyph-name="threequarters" horiz-adv-x="1037" unicode="¾" d="M228 724q-47 0 -79 -20t-45 -70q-2 -14 -12 -21t-21 -7q-17 0 -27 10t-10 32q0 14 10 38t32 47t60 39t92 17q42 0 76 -11q34 -10 58 -30t38 -48q13 -28 13 -60q0 -16 -4 -34q-3 -18 -13 -34t-26 -28q-16 -13 -42 -21q16 -3 36 -11t36 -26q16 -16 27 -42t11 -64 q0 -42 -17 -74t-45 -52t-65 -30q-36 -10 -74 -10q-53 0 -93 16t-68 40t-42 52t-14 54q0 18 11 28t24 10q12 0 23 -8t14 -23q8 -45 45 -75t94 -30q23 0 45 6t40 19t28 31t11 45q1 63 -37 87t-110 24q-14 0 -21 10t-7 21t7 21t21 10q72 0 102 22t29 65q0 17 -9 33 q-8 16 -24 28t-36 18t-42 6zM849 424l-167 -222h167v222zM598 188q0 17 11 32l246 319q5 7 13 11t18 4q18 0 30 -12t12 -29v-311h54q14 0 24 -10t11 -24q-1 -14 -11 -24t-24 -10h-54v-94q0 -16 -12 -28t-28 -12t-28 12t-11 28v94h-196q-23 0 -39 16t-16 38zM338 29l406 775 q4 10 14 16t22 6q16 0 28 -12t12 -28q0 -9 -5 -19l-407 -775q-5 -9 -14 -15t-20 -6q-16 -1 -28 11t-12 29q0 10 4 18z"/>
<glyph glyph-name="questiondown" horiz-adv-x="542" unicode="¿" d="M262 79q67 0 106 38t53 97q5 22 19 32t29 10q21 0 37 -15t16 -41q0 -32 -18 -69t-53 -69q-34 -32 -82 -54t-107 -21q-46 0 -90 14t-78 40q-34 27 -54 65t-20 87t16 84t38 62q23 27 50 49t50 44q22 22 38 47t16 59q0 22 15 38t37 15q22 1 38 -15t15 -38q1 -46 -15 -79 t-40 -59t-50 -46q-26 -22 -50 -44t-40 -49q-16 -26 -15 -62q-1 -26 11 -48t31 -38t44 -25t53 -9zM221 717q-1 30 21 51t51 21t51 -21t22 -51t-22 -51t-51 -21t-51 21t-21 51z"/>
<glyph glyph-name="Agrave" horiz-adv-x="693" unicode="À" d="M330 850l-79 51q-8 5 -12 14t-4 19q0 8 3 18t10 17t17 13t25 6q22 0 32 -16l51 -79q8 -11 8 -23q1 -8 -5 -18t-22 -10q-13 0 -24 8zM339 803q31 0 53 -18t33 -48l251 -646q5 -13 5 -25q0 -9 -3 -20q-3 -12 -10 -22q-8 -10 -20 -17t-30 -7q-21 0 -39 13t-26 34l-66 190 h-288l-64 -200q-6 -17 -22 -27t-35 -10q-26 0 -46 18t-20 44q0 10 3 19l238 656q11 30 33 48t53 18zM335 672l-103 -329h218z"/>
<glyph glyph-name="Aacute" horiz-adv-x="693" unicode="Á" d="M364 851q-11 -8 -24 -8q-16 0 -22 10t-5 18q0 12 8 23l51 79q10 16 32 16q15 1 25 -5t17 -14t10 -18t3 -17q0 -10 -4 -19t-12 -14zM339 803q31 0 53 -18t33 -48l251 -646q5 -13 5 -25q0 -9 -3 -20q-3 -12 -10 -22q-8 -10 -20 -17t-30 -7q-21 0 -39 13t-26 34l-66 190 h-288l-64 -200q-6 -17 -22 -27t-35 -10q-26 0 -46 18t-20 44q0 10 3 19l238 656q11 30 33 48t53 18zM335 672l-103 -329h218z"/>
<glyph glyph-name="Acircumflex" horiz-adv-x="693" unicode="Â" d="M364 959l73 -73q7 -7 7 -18t-6 -19t-20 -8q-11 0 -19 8l-54 55l-55 -55q-8 -8 -19 -8q-3 0 -15 4t-11 22q0 9 8 19l72 73q9 9 20 9q10 0 19 -9zM339 803q31 0 53 -18t33 -48l251 -646q5 -13 5 -25q0 -9 -3 -20q-3 -12 -10 -22q-8 -10 -20 -17t-30 -7q-21 0 -39 13t-26 34 l-66 190h-288l-64 -200q-6 -17 -22 -27t-35 -10q-26 0 -46 18t-20 44q0 10 3 19l238 656q11 30 33 48t53 18zM335 672l-103 -329h218z"/>
<glyph glyph-name="Atilde" horiz-adv-x="693" unicode="Ã" d="M244 841q-17 1 -30 13t-13 29q1 25 23 41t48 16h9t9 -2l94 -25q10 -3 17 1t13 10l12 12t18 5q18 -1 30 -13t12 -29q0 -26 -22 -42t-47 -16q-10 0 -19 3l-95 26q-11 3 -17 -1q-6 -5 -12 -11l-12 -12t-18 -5zM339 803q31 0 53 -18t33 -48l251 -646q5 -13 5 -25q0 -9 -3 -20 q-3 -12 -10 -22q-8 -10 -20 -17t-30 -7q-21 0 -39 13t-26 34l-66 190h-288l-64 -200q-6 -17 -22 -27t-35 -10q-26 0 -46 18t-20 44q0 10 3 19l238 656q11 30 33 48t53 18zM335 672l-103 -329h218z"/>
<glyph glyph-name="Adieresis" horiz-adv-x="693" unicode="Ä" d="M339 803q31 0 53 -18t33 -48l251 -646q5 -13 5 -25q0 -9 -3 -20q-3 -12 -10 -22q-8 -10 -20 -17t-30 -7q-21 0 -39 13t-26 34l-66 190h-288l-64 -200q-6 -17 -22 -27t-35 -10q-26 0 -46 18t-20 44q0 10 3 19l238 656q11 30 33 48t53 18zM335 672l-103 -329h218zM357 900 q0 24 17 41t41 17t41 -17t17 -41t-17 -41t-41 -17t-41 17t-17 41zM215 900q0 24 17 41t41 17t41 -17t17 -41t-17 -41t-41 -17t-41 17t-17 41z"/>
<glyph glyph-name="Aring" horiz-adv-x="693" unicode="Å" d="M341 973q-21 1 -37 -15t-16 -38t16 -38t37 -15q21 -1 37 15t16 38t-16 38t-37 15zM341 999q33 0 56 -23t23 -56t-23 -56t-56 -23t-56 23t-23 56t23 56t56 23zM339 803q31 0 53 -18t33 -48l251 -646q5 -13 5 -25q0 -9 -3 -20q-3 -12 -10 -22q-8 -10 -20 -17t-30 -7 q-21 0 -39 13t-26 34l-66 190h-288l-64 -200q-6 -17 -22 -27t-35 -10q-26 0 -46 18t-20 44q0 10 3 19l238 656q11 30 33 48t53 18zM335 672l-103 -329h218z"/>
<glyph glyph-name="AE" horiz-adv-x="1068" unicode="Æ" d="M995 0h-434q-14 0 -28 4q-13 4 -25 14t-19 25t-7 36v164h-205l-159 -221q-16 -22 -45 -22q-25 0 -43 18t-18 42q0 18 10 32l477 667q12 17 30 23t32 7h426q21 0 37 -15t16 -37q0 -21 -16 -37t-37 -16h-386v-217h361q22 1 38 -15t15 -38q1 -20 -15 -36t-38 -16h-361v-257 h394q21 1 37 -15t16 -38t-16 -37t-37 -15zM482 531l-130 -182h130v182z"/>
<glyph glyph-name="Ccedilla" horiz-adv-x="724" unicode="Ç" d="M353 -12q-83 4 -145 40t-104 91t-63 127t-21 149q0 79 22 153t68 130q44 56 112 91q68 34 157 34q69 0 127 -26q58 -27 102 -63q42 -36 66 -77t23 -71q0 -26 -20 -42t-43 -16q-17 0 -32 8t-21 29q-9 28 -25 55q-16 26 -41 48t-59 36t-77 13q-50 1 -94 -21 q-45 -22 -77 -61t-51 -95t-19 -125t19 -125t51 -96t77 -60q44 -22 94 -22q43 0 77 14t59 34q25 22 41 50t25 55q6 21 21 29t32 8q23 0 43 -15t20 -42q0 -13 -7 -35t-22 -48q-14 -26 -38 -51q-24 -26 -56 -48t-74 -37t-95 -18v-53q-1 -31 -19 -55t-60 -24h-39q-11 0 -19 8 t-7 19q-1 11 7 19t19 7h39q7 0 17 5t10 21v53z"/>
<glyph glyph-name="Egrave" horiz-adv-x="658" unicode="È" d="M325 850l-79 51q-8 5 -12 14t-4 19q0 8 3 18t10 17t17 13t25 6q22 0 32 -16l51 -79q8 -11 8 -23q0 -8 -6 -18t-21 -10q-13 0 -24 8zM586 0h-461q-15 0 -29 6t-25 15q-11 10 -18 25t-7 33v632q0 32 23 55t56 23h453q22 0 37 -15t15 -37q0 -21 -15 -37t-37 -16h-414v-217 h389q22 1 37 -15t15 -38q0 -20 -15 -36t-37 -16h-389v-257h422q20 1 36 -15t16 -38t-16 -37t-36 -15z"/>
<glyph glyph-name="Eacute" horiz-adv-x="658" unicode="É" d="M586 0h-461q-15 0 -29 6t-25 15q-11 10 -18 25t-7 33v632q0 32 23 55t56 23h453q22 0 37 -15t15 -37q0 -21 -15 -37t-37 -16h-414v-217h389q22 1 37 -15t15 -38q0 -20 -15 -36t-37 -16h-389v-257h422q20 1 36 -15t16 -38t-16 -37t-36 -15zM311 853q-11 -8 -24 -8 q-15 0 -21 10t-6 18q0 12 8 23l51 79q10 16 32 16q15 1 25 -5t17 -14t10 -18t3 -17q0 -10 -4 -19t-12 -14z"/>
<glyph glyph-name="Ecircumflex" horiz-adv-x="658" unicode="Ê" d="M356 959l73 -73q7 -7 7 -18t-6 -19t-20 -8q-11 0 -19 8l-54 55l-55 -55q-8 -8 -19 -8q-3 0 -15 4t-11 22q0 9 8 19l72 73q9 9 20 9q10 0 19 -9zM586 0h-461q-15 0 -29 6t-25 15q-11 10 -18 25t-7 33v632q0 32 23 55t56 23h453q22 0 37 -15t15 -37q0 -21 -15 -37t-37 -16 h-414v-217h389q22 1 37 -15t15 -38q0 -20 -15 -36t-37 -16h-389v-257h422q20 1 36 -15t16 -38t-16 -37t-36 -15z"/>
<glyph glyph-name="Edieresis" horiz-adv-x="658" unicode="Ë" d="M586 0h-461q-15 0 -29 6t-25 15q-11 10 -18 25t-7 33v632q0 32 23 55t56 23h453q22 0 37 -15t15 -37q0 -21 -15 -37t-37 -16h-414v-217h389q22 1 37 -15t15 -38q0 -20 -15 -36t-37 -16h-389v-257h422q20 1 36 -15t16 -38t-16 -37t-36 -15zM353 900q0 24 17 41t41 17 q23 0 40 -17t17 -41t-17 -41t-40 -17q-24 0 -41 17t-17 41zM211 900q0 24 17 41t40 17q24 0 41 -17t17 -41t-17 -41t-41 -17q-23 0 -40 17t-17 41z"/>
<glyph glyph-name="Igrave" horiz-adv-x="211" unicode="Ì" d="M93 849l-79 51q-8 5 -12 14t-4 19q0 7 3 17t10 18t17 14t25 5q22 0 32 -16l51 -79q8 -11 8 -23q0 -8 -6 -18t-21 -10q-13 0 -24 8zM165 730v-671q0 -23 -17 -41t-42 -18q-24 0 -42 18t-17 41v671q-1 25 17 42t42 17q25 0 42 -17t17 -42z"/>
<glyph glyph-name="Iacute" horiz-adv-x="210" unicode="Í" d="M128 853q-11 -8 -24 -8q-16 0 -22 10t-5 18q0 12 8 23l51 79q10 16 32 16q15 1 25 -5t17 -14t10 -18t3 -17q0 -10 -4 -19t-12 -14zM164 730v-671q0 -23 -17 -41t-42 -18q-23 0 -41 18t-18 41v671q0 25 18 42t41 17q25 0 42 -17t17 -42z"/>
<glyph glyph-name="Icircumflex" horiz-adv-x="210" unicode="Î" d="M125 958l72 -72q8 -8 8 -18q0 -6 -6 -16t-20 -11q-12 0 -20 8l-54 54l-54 -54q-8 -8 -20 -8q-8 0 -17 6t-9 20q0 11 8 19l72 72q10 10 20 10t20 -10zM164 730v-671q0 -23 -17 -41t-42 -18q-23 0 -41 18t-18 41v671q0 25 18 42t41 17q25 0 42 -17t17 -42z"/>
<glyph glyph-name="Idieresis" horiz-adv-x="210" unicode="Ï" d="M164 730v-671q0 -23 -17 -41t-42 -18q-23 0 -41 18t-18 41v671q0 25 18 42t41 17q25 0 42 -17t17 -42zM118 900q0 24 17 41t41 17q22 0 40 -17t18 -41t-18 -41t-40 -17q-24 0 -41 17t-17 41zM-24 900q0 24 17 41t41 17q23 0 40 -17t17 -41t-17 -41t-40 -17q-24 0 -41 17 t-17 41z"/>
<glyph glyph-name="Eth" horiz-adv-x="805" unicode="Ð" d="M140 345h-70q-22 1 -36 15t-14 35t14 35t36 15h70v266q0 32 23 55t56 23h237q59 0 118 -20q59 -21 106 -67t76 -122t29 -185q0 -111 -29 -187t-76 -122t-106 -66t-118 -20h-237q-15 0 -29 6t-25 15q-11 10 -18 25t-7 33v266zM258 445h100q22 -1 36 -15t14 -35t-14 -35 t-36 -15h-100v-240h175q59 1 103 21t73 58t43 90q14 54 14 121q0 65 -14 119t-43 92t-73 58t-103 20h-175v-239z"/>
<glyph glyph-name="Ntilde" horiz-adv-x="709" unicode="Ñ" d="M604 0q-28 0 -47 12t-34 36l-359 533v-522q0 -23 -17 -41t-42 -18q-23 0 -41 18t-18 41v671q0 25 18 42t41 17q28 -1 47 -13t35 -35l358 -537v526q0 25 17 42t42 17t42 -17t17 -42v-671q0 -23 -17 -41t-42 -18zM257 841q-17 1 -30 13t-13 29q0 25 22 41t49 16h9t9 -2 l94 -25q10 -3 17 1t13 10q7 6 13 12t17 5q18 -1 30 -13t12 -29q1 -26 -21 -42t-48 -16q-10 0 -19 3l-95 26q-11 3 -17 -1q-6 -5 -12 -11q-7 -6 -13 -12t-17 -5z"/>
<glyph glyph-name="Ograve" d="M403 850l-79 51q-8 5 -12 14t-4 19q0 8 3 18t10 17t17 13t25 6q22 0 32 -16l51 -79q8 -11 8 -23q0 -8 -6 -18t-21 -10q-13 0 -24 8zM678 395q0 69 -21 125t-57 95t-86 61q-49 22 -106 21q-57 1 -106 -21q-50 -22 -86 -61t-57 -95t-21 -125t21 -125t57 -96t86 -60 q49 -22 106 -22t106 22q50 22 86 60q36 40 57 96t21 125zM408 -14q-88 0 -160 33t-122 89t-78 130t-28 157q0 82 28 156t78 130t122 89t160 33t160 -33t122 -89t78 -130t28 -156q0 -83 -28 -157t-78 -130t-122 -89t-160 -33z" unicode="Ò"/>
<glyph glyph-name="Oacute" d="M422 850q-11 -8 -24 -8q-16 0 -22 10t-5 18q0 12 8 23l51 79q10 16 32 16q15 0 25 -6t17 -13t10 -17t3 -18q0 -10 -4 -19t-12 -14zM678 395q0 69 -21 125t-57 95t-86 61q-49 22 -106 21q-57 1 -106 -21q-50 -22 -86 -61t-57 -95t-21 -125t21 -125t57 -96t86 -60 q49 -22 106 -22t106 22q50 22 86 60q36 40 57 96t21 125zM408 -14q-88 0 -160 33t-122 89t-78 130t-28 157q0 82 28 156t78 130t122 89t160 33t160 -33t122 -89t78 -130t28 -156q0 -83 -28 -157t-78 -130t-122 -89t-160 -33z" unicode="Ó"/>
<glyph glyph-name="Ocircumflex" d="M429 958l72 -72q8 -8 8 -18q0 -6 -6 -16t-20 -11q-12 0 -20 8l-54 54l-54 -54q-8 -8 -20 -8q-8 0 -17 6t-9 20q0 11 8 19l72 72q10 10 20 10t20 -10zM678 395q0 69 -21 125t-57 95t-86 61q-49 22 -106 21q-57 1 -106 -21q-50 -22 -86 -61t-57 -95t-21 -125t21 -125 t57 -96t86 -60q49 -22 106 -22t106 22q50 22 86 60q36 40 57 96t21 125zM408 -14q-88 0 -160 33t-122 89t-78 130t-28 157q0 82 28 156t78 130t122 89t160 33t160 -33t122 -89t78 -130t28 -156q0 -83 -28 -157t-78 -130t-122 -89t-160 -33z" unicode="Ô"/>
<glyph glyph-name="Otilde" d="M305 841q-17 1 -30 13t-13 29q0 25 22 41t49 16h9t9 -2l94 -25q10 -3 17 1t13 10q7 6 13 12t17 5q18 -1 30 -13t12 -29q1 -26 -21 -42t-48 -16q-10 0 -19 3l-95 26q-11 3 -17 -1q-6 -5 -12 -11q-7 -6 -13 -12t-17 -5zM678 395q0 69 -21 125t-57 95t-86 61q-49 22 -106 21 q-57 1 -106 -21q-50 -22 -86 -61t-57 -95t-21 -125t21 -125t57 -96t86 -60q49 -22 106 -22t106 22q50 22 86 60q36 40 57 96t21 125zM408 -14q-88 0 -160 33t-122 89t-78 130t-28 157q0 82 28 156t78 130t122 89t160 33t160 -33t122 -89t78 -130t28 -156q0 -83 -28 -157 t-78 -130t-122 -89t-160 -33z" unicode="Õ"/>
<glyph glyph-name="Odieresis" d="M678 395q0 69 -21 125t-57 95t-86 61q-49 22 -106 21q-57 1 -106 -21q-50 -22 -86 -61t-57 -95t-21 -125t21 -125t57 -96t86 -60q49 -22 106 -22t106 22q50 22 86 60q36 40 57 96t21 125zM408 -14q-88 0 -160 33t-122 89t-78 130t-28 157q0 82 28 156t78 130t122 89 t160 33t160 -33t122 -89t78 -130t28 -156q0 -83 -28 -157t-78 -130t-122 -89t-160 -33zM421 900q0 24 17 41t41 17t41 -17t17 -41t-17 -41t-41 -17t-41 17t-17 41zM279 900q0 24 17 41t41 17t41 -17t17 -41t-17 -41t-41 -17t-41 17t-17 41z" unicode="Ö"/>
<glyph glyph-name="multiply" horiz-adv-x="346" unicode="×" d="M238 395l75 -75q13 -13 13 -32q0 -6 -2 -14t-7 -15t-14 -12t-23 -5q-19 0 -32 13l-75 75l-74 -74q-14 -14 -33 -14q-14 0 -30 12t-16 34q0 19 14 33l74 74l-74 74q-14 14 -14 33q0 14 12 30t34 16q19 0 33 -14l74 -74l74 74q14 14 33 14q20 0 33 -15t13 -31 q0 -19 -14 -33z"/>
<glyph glyph-name="Oslash" d="M101 138q-23 30 -39 64t-24 67q-10 33 -14 65t-4 61q0 82 28 156t78 130t122 89t160 33q62 0 123 -19t121 -66l54 56q13 15 34 15q18 0 32 -13t15 -34q0 -20 -13 -33l-57 -61q45 -62 62 -128t17 -125q0 -83 -28 -157t-78 -130t-122 -88q-72 -33 -160 -33q-62 0 -122 18 t-119 64l-53 -55q-13 -14 -34 -14q-20 0 -34 12t-14 34q0 18 13 33zM243 149q41 -31 83 -44t82 -13q57 0 106 22q50 22 86 60q36 40 57 96t21 125q0 34 -8 79t-33 90zM138 395q0 -38 8 -83t35 -90l395 416q-42 32 -84 46t-84 13q-57 1 -106 -21q-50 -22 -86 -61t-57 -95 t-21 -125z" unicode="Ø"/>
<glyph glyph-name="Ugrave" horiz-adv-x="724" unicode="Ù" d="M345 850l-79 51q-8 5 -12 14t-4 19q0 8 3 18t10 17t17 13t25 6q22 0 32 -16l51 -79q8 -11 8 -23q0 -8 -6 -18t-21 -10q-13 0 -24 8zM559 263v467q-1 25 17 42t42 17t42 -17t18 -42v-467q0 -77 -26 -130t-70 -85t-102 -47q-58 -14 -118 -14q-62 0 -119 14q-57 15 -101 47 t-70 85t-26 130v467q0 25 18 42t41 17q25 0 42 -17t17 -42v-467q0 -47 16 -80t44 -53t64 -29t74 -9t74 9t62 29q28 20 44 53t17 80z"/>
<glyph glyph-name="Uacute" horiz-adv-x="724" unicode="Ú" d="M365 849q-11 -8 -24 -8q-15 0 -21 10t-6 18q0 12 8 23l51 79q10 16 32 16q15 1 25 -5t17 -14t10 -18t3 -17q0 -10 -4 -19t-12 -14zM559 263v467q-1 25 17 42t42 17t42 -17t18 -42v-467q0 -77 -26 -130t-70 -85t-102 -47q-58 -14 -118 -14q-62 0 -119 14q-57 15 -101 47 t-70 85t-26 130v467q0 25 18 42t41 17q25 0 42 -17t17 -42v-467q0 -47 16 -80t44 -53t64 -29t74 -9t74 9t62 29q28 20 44 53t17 80z"/>
<glyph glyph-name="Ucircumflex" horiz-adv-x="724" unicode="Û" d="M383 958l72 -72q8 -8 8 -18q0 -6 -6 -16t-20 -11q-12 0 -20 8l-54 54l-54 -54q-8 -8 -20 -8q-8 0 -17 6t-9 20q0 11 8 19l72 72q10 10 20 10t20 -10zM559 263v467q-1 25 17 42t42 17t42 -17t18 -42v-467q0 -77 -26 -130t-70 -85t-102 -47q-58 -14 -118 -14q-62 0 -119 14 q-57 15 -101 47t-70 85t-26 130v467q0 25 18 42t41 17q25 0 42 -17t17 -42v-467q0 -47 16 -80t44 -53t64 -29t74 -9t74 9t62 29q28 20 44 53t17 80z"/>
<glyph glyph-name="Udieresis" horiz-adv-x="724" unicode="Ü" d="M559 263v467q-1 25 17 42t42 17t42 -17t18 -42v-467q0 -77 -26 -130t-70 -85t-102 -47q-58 -14 -118 -14q-62 0 -119 14q-57 15 -101 47t-70 85t-26 130v467q0 25 18 42t41 17q25 0 42 -17t17 -42v-467q0 -47 16 -80t44 -53t64 -29t74 -9t74 9t62 29q28 20 44 53t17 80z M375 900q0 24 17 41t41 17t41 -17t17 -41t-17 -41t-41 -17t-41 17t-17 41zM233 900q0 24 17 41t41 17t41 -17t17 -41t-17 -41t-41 -17t-41 17t-17 41z"/>
<glyph glyph-name="Yacute" horiz-adv-x="681" unicode="Ý" d="M364 850q-11 -8 -24 -8q-16 0 -22 10t-5 18q0 12 8 23l51 79q10 16 32 16q15 0 25 -6t17 -13t10 -17t3 -18q0 -10 -4 -19t-12 -14zM660 707l-260 -373v-275q0 -23 -18 -41t-42 -18t-42 18t-17 41v275l-260 373q-9 13 -9 30q0 23 16 37t36 15q12 1 24 -5t19 -17l233 -334 l234 334q8 11 20 17t23 5q7 -1 16 -3t17 -8t14 -16t5 -25q0 -17 -9 -30z"/>
<glyph glyph-name="Thorn" horiz-adv-x="658" unicode="Þ" d="M164 621h248q47 1 88 -17t72 -49q30 -31 48 -72t18 -88t-18 -88t-48 -72q-31 -31 -72 -49t-88 -17h-248v-110q0 -23 -17 -41t-42 -18q-23 0 -41 18t-18 41v671q0 24 18 42t41 17q25 1 42 -17t17 -42v-109zM399 516h-235v-242h235q25 0 47 10t38 26t26 38t10 47t-10 47 t-26 38t-38 26t-47 10z"/>
<glyph glyph-name="germandbls" horiz-adv-x="775" unicode="ß" d="M417 489q-23 -9 -33 -24t-11 -33q0 -22 16 -36q17 -14 43 -22q26 -10 60 -16t69 -16q35 -8 69 -20t60 -30q26 -20 43 -48q16 -28 16 -70q0 -50 -20 -84t-53 -56t-77 -32t-92 -9q-69 1 -115 21t-76 48t-42 54q-13 27 -13 41q1 23 17 37t35 15q12 0 23 -7t17 -22 q17 -43 55 -72t107 -29q32 -1 55 7q24 8 38 20t21 28t7 33q0 34 -27 51t-67 27q-40 11 -88 19t-87 24q-40 16 -67 48q-27 30 -27 84q0 50 24 86t69 57q23 10 37 19q13 9 21 17t10 16t3 17q0 22 -15 37t-37 15h-152q-5 0 -15 -4t-10 -21v-606q0 -21 -16 -37t-37 -16 q-22 0 -37 16t-15 37v421h-37q-18 0 -32 13t-14 33q0 18 14 32t32 14h37v93q1 23 9 46t24 42t41 31q24 12 56 11h179q32 1 56 -11t40 -31t26 -42q8 -23 8 -46q0 -35 -5 -59t-19 -44t-38 -35q-24 -16 -63 -32z"/>
<glyph glyph-name="agrave" horiz-adv-x="545" unicode="à" d="M401 287l-25 -7q-18 -6 -44 -9t-54 -7t-53 -10q-26 -6 -47 -18q-22 -12 -34 -29q-12 -18 -12 -46q0 -23 10 -37t24 -22q15 -8 34 -12t38 -4q29 0 58 6q28 6 52 22q24 15 38 40t15 62v71zM151 425q-7 -11 -17 -17t-21 -6q-20 0 -37 13t-17 36q0 9 5 22q9 21 24 41 q14 20 40 37q26 15 64 25t91 10q103 0 163 -40t60 -120v-373q0 -21 -15 -37t-37 -16t-38 16t-15 37v16q-39 -41 -87 -55t-102 -14q-34 0 -68 10t-62 29q-28 20 -45 50t-17 72q0 49 19 81t51 53t74 32t87 16q53 5 83 13t45 18t19 23t3 29q0 19 -11 33t-28 23q-17 10 -38 14 t-41 4q-36 0 -58 -6t-36 -16q-15 -10 -23 -24t-15 -29zM325 671q0 -14 -8 -18t-13 -4q-10 0 -19 6l-63 41q-13 9 -13 26q1 12 5 20t11 14t14 8t13 2q17 0 26 -13l41 -63q6 -9 6 -19z"/>
<glyph glyph-name="aacute" horiz-adv-x="545" unicode="á" d="M401 287l-25 -7q-18 -6 -44 -9t-54 -7t-53 -10q-26 -6 -47 -18q-22 -12 -34 -29q-12 -18 -12 -46q0 -23 10 -37t24 -22q15 -8 34 -12t38 -4q29 0 58 6q28 6 52 22q24 15 38 40t15 62v71zM151 425q-7 -11 -17 -17t-21 -6q-20 0 -37 13t-17 36q0 9 5 22q9 21 24 41 q14 20 40 37q26 15 64 25t91 10q103 0 163 -40t60 -120v-373q0 -21 -15 -37t-37 -16t-38 16t-15 37v16q-39 -41 -87 -55t-102 -14q-34 0 -68 10t-62 29q-28 20 -45 50t-17 72q0 49 19 81t51 53t74 32t87 16q53 5 83 13t45 18t19 23t3 29q0 19 -11 33t-28 23q-17 10 -38 14 t-41 4q-36 0 -58 -6t-36 -16q-15 -10 -23 -24t-15 -29zM239 670q0 10 6 19l41 63q9 13 26 13q6 0 13 -2q7 -1 14 -7t11 -14t5 -21q0 -17 -13 -26l-63 -41q-9 -6 -19 -6q-5 0 -13 4t-8 18z"/>
<glyph glyph-name="acircumflex" horiz-adv-x="545" unicode="â" d="M401 287l-25 -7q-18 -6 -44 -9t-54 -7t-53 -10q-26 -6 -47 -18q-22 -12 -34 -29q-12 -18 -12 -46q0 -23 10 -37t24 -22q15 -8 34 -12t38 -4q29 0 58 6q28 6 52 22q24 15 38 40t15 62v71zM151 425q-7 -11 -17 -17t-21 -6q-20 0 -37 13t-17 36q0 9 5 22q9 21 24 41 q14 20 40 37q26 15 64 25t91 10q103 0 163 -40t60 -120v-373q0 -21 -15 -37t-37 -16t-38 16t-15 37v16q-39 -41 -87 -55t-102 -14q-34 0 -68 10t-62 29q-28 20 -45 50t-17 72q0 49 19 81t51 53t74 32t87 16q53 5 83 13t45 18t19 23t3 29q0 19 -11 33t-28 23q-17 10 -38 14 t-41 4q-36 0 -58 -6t-36 -16q-15 -10 -23 -24t-15 -29zM309 762l73 -73q7 -7 7 -18q-1 -11 -7 -19t-19 -8q-11 0 -19 8l-54 55l-55 -55q-8 -8 -19 -8q-2 0 -14 4t-12 22q0 9 8 19l72 73q9 9 20 9q10 0 19 -9z"/>
<glyph glyph-name="atilde" horiz-adv-x="545" unicode="ã" d="M401 287l-25 -7q-18 -6 -44 -9t-54 -7t-53 -10q-26 -6 -47 -18q-22 -12 -34 -29q-12 -18 -12 -46q0 -23 10 -37t24 -22q15 -8 34 -12t38 -4q29 0 58 6q28 6 52 22q24 15 38 40t15 62v71zM151 425q-7 -11 -17 -17t-21 -6q-20 0 -37 13t-17 36q0 9 5 22q9 21 24 41 q14 20 40 37q26 15 64 25t91 10q103 0 163 -40t60 -120v-373q0 -21 -15 -37t-37 -16t-38 16t-15 37v16q-39 -41 -87 -55t-102 -14q-34 0 -68 10t-62 29q-28 20 -45 50t-17 72q0 49 19 81t51 53t74 32t87 16q53 5 83 13t45 18t19 23t3 29q0 19 -11 33t-28 23q-17 10 -38 14 t-41 4q-36 0 -58 -6t-36 -16q-15 -10 -23 -24t-15 -29zM183 644q-17 0 -30 12t-13 30q0 26 22 42t49 15h9t9 -2l94 -25q11 0 17 4t13 10t13 10t17 4q19 0 31 -12t12 -30q0 -14 -6 -24t-16 -18t-23 -11q-13 -4 -26 -4h-9t-9 2l-95 25q-12 0 -18 -4t-12 -10t-12 -10t-17 -4z "/>
<glyph glyph-name="adieresis" horiz-adv-x="545" unicode="ä" d="M401 287l-25 -7q-18 -6 -44 -9t-54 -7t-53 -10q-26 -6 -47 -18q-22 -12 -34 -29q-12 -18 -12 -46q0 -23 10 -37t24 -22q15 -8 34 -12t38 -4q29 0 58 6q28 6 52 22q24 15 38 40t15 62v71zM151 425q-7 -11 -17 -17t-21 -6q-20 0 -37 13t-17 36q0 9 5 22q9 21 24 41 q14 20 40 37q26 15 64 25t91 10q103 0 163 -40t60 -120v-373q0 -21 -15 -37t-37 -16t-38 16t-15 37v16q-39 -41 -87 -55t-102 -14q-34 0 -68 10t-62 29q-28 20 -45 50t-17 72q0 49 19 81t51 53t74 32t87 16q53 5 83 13t45 18t19 23t3 29q0 19 -11 33t-28 23q-17 10 -38 14 t-41 4q-36 0 -58 -6t-36 -16q-15 -10 -23 -24t-15 -29zM296 703q0 23 17 41t41 17q24 1 41 -17t17 -41q0 -24 -17 -41t-41 -17t-41 17t-17 41zM154 703q0 23 17 41t41 17q24 1 41 -17t17 -41q0 -24 -17 -41t-41 -17t-41 17t-17 41z"/>
<glyph glyph-name="aring" horiz-adv-x="545" unicode="å" d="M281 777q-21 1 -37 -15t-16 -38t16 -38t37 -15q21 -1 37 15t16 38t-16 38t-37 15zM281 803q33 0 56 -23t23 -56t-23 -56t-56 -23t-56 23t-23 56t23 56t56 23zM401 287l-25 -7q-18 -6 -44 -9t-54 -7t-53 -10q-26 -6 -47 -18q-22 -12 -34 -29q-12 -18 -12 -46q0 -23 10 -37 t24 -22q15 -8 34 -12t38 -4q29 0 58 6q28 6 52 22q24 15 38 40t15 62v71zM151 425q-7 -11 -17 -17t-21 -6q-20 0 -37 13t-17 36q0 9 5 22q9 21 24 41q14 20 40 37q26 15 64 25t91 10q103 0 163 -40t60 -120v-373q0 -21 -15 -37t-37 -16t-38 16t-15 37v16q-39 -41 -87 -55 t-102 -14q-34 0 -68 10t-62 29q-28 20 -45 50t-17 72q0 49 19 81t51 53t74 32t87 16q53 5 83 13t45 18t19 23t3 29q0 19 -11 33t-28 23q-17 10 -38 14t-41 4q-36 0 -58 -6t-36 -16q-15 -10 -23 -24t-15 -29z"/>
<glyph glyph-name="ae" horiz-adv-x="950" unicode="æ" d="M661 500q-37 0 -63 -11t-44 -27t-27 -37q-10 -20 -15 -37q-5 -18 -6 -30t-1 -14h324q0 31 -10 59q-11 27 -31 49t-52 35t-75 13zM506 47q-2 -19 -17 -33t-35 -14q-22 0 -38 16t-15 37v16q-39 -41 -87 -55t-102 -14q-34 0 -68 10t-62 29q-28 20 -45 50t-17 72q0 49 19 81 t51 53t74 32t87 16q53 5 83 13t45 18t19 23t3 29q0 19 -11 33t-28 23q-17 10 -38 14t-41 4q-36 0 -58 -6t-36 -16q-15 -10 -23 -24t-15 -29q-7 -11 -17 -17t-21 -6q-20 0 -37 13t-17 36q0 9 8 31t32 46t68 40q44 18 116 18q75 0 123 -20t72 -50q42 38 86 54t95 16 q57 0 107 -17t86 -49t57 -80q21 -47 21 -107q0 -37 -18 -56t-41 -19h-365q0 -16 6 -44t24 -56t50 -50t81 -22q31 0 53 5t38 15t31 26q14 16 28 36q8 12 18 17t21 5q20 0 34 -13t14 -33q0 -12 -14 -36t-43 -48t-74 -42t-106 -18q-43 0 -81 10t-80 37zM401 287l-25 -7 q-18 -6 -44 -9t-54 -7t-53 -10q-26 -6 -47 -18q-22 -12 -34 -29q-12 -18 -12 -46q0 -23 10 -37t24 -22q15 -8 34 -12t38 -4q29 0 58 6q28 6 52 22q24 15 38 40t15 62v71z"/>
<glyph glyph-name="ccedilla" horiz-adv-x="550" unicode="ç" d="M322 -6v-33q0 -37 -20 -58t-59 -21h-39q-10 0 -18 8t-8 18t8 18t18 8h39q17 0 22 10t5 17v34q-51 3 -96 25q-46 22 -80 59q-34 38 -54 91t-20 119q0 67 21 121t58 94q37 38 87 60t110 22q69 0 114 -20q46 -20 72 -47q26 -25 37 -51t11 -36q0 -22 -16 -34t-37 -13 q-14 0 -26 7t-17 24q-4 16 -16 31t-30 27t-40 19q-24 7 -52 7q-32 0 -62 -12t-54 -36q-24 -26 -40 -66q-15 -40 -15 -97t15 -97q16 -40 40 -65t54 -37t62 -11q28 0 52 7t40 19q18 12 30 27t16 31q5 17 17 24t26 7q19 0 35 -12t17 -36q0 -12 -10 -36q-9 -24 -33 -48t-64 -44 t-100 -24z"/>
<glyph glyph-name="egrave" horiz-adv-x="582" unicode="è" d="M293 500q-37 0 -63 -11t-44 -27t-27 -37q-10 -20 -15 -37q-5 -18 -6 -30t-1 -14h324q0 31 -10 59q-11 27 -31 49t-52 35t-75 13zM502 258h-366q0 -2 2 -16t6 -35q6 -21 16 -43t29 -41t45 -31t64 -13q31 0 53 5t39 15q17 9 31 25t28 37q8 12 18 17t21 5q18 0 33 -13 t15 -33q0 -12 -13 -36t-41 -48t-74 -42q-45 -18 -110 -18q-66 0 -118 24q-52 25 -88 65t-54 94t-18 113q0 61 19 115t55 95q36 39 85 63q50 24 112 24q57 0 107 -17t86 -49t57 -80q21 -47 21 -107q0 -37 -18 -56t-42 -19zM322 669q0 -14 -8 -18t-13 -4q-10 0 -19 6l-63 41 q-13 9 -13 26q0 12 4 20t12 14q7 6 14 8t13 2q17 0 26 -13l41 -63q6 -9 6 -19z"/>
<glyph glyph-name="eacute" horiz-adv-x="582" unicode="é" d="M293 500q-37 0 -63 -11t-44 -27t-27 -37q-10 -20 -15 -37q-5 -18 -6 -30t-1 -14h324q0 31 -10 59q-11 27 -31 49t-52 35t-75 13zM502 258h-366q0 -2 2 -16t6 -35q6 -21 16 -43t29 -41t45 -31t64 -13q31 0 53 5t39 15q17 9 31 25t28 37q8 12 18 17t21 5q18 0 33 -13 t15 -33q0 -12 -13 -36t-41 -48t-74 -42q-45 -18 -110 -18q-66 0 -118 24q-52 25 -88 65t-54 94t-18 113q0 61 19 115t55 95q36 39 85 63q50 24 112 24q57 0 107 -17t86 -49t57 -80q21 -47 21 -107q0 -37 -18 -56t-42 -19zM260 669q0 10 6 19l41 63q9 13 26 13q6 0 13 -2 t14 -8q8 -6 12 -14t4 -20q0 -17 -13 -26l-63 -41q-9 -6 -19 -6q-5 0 -13 4t-8 18z"/>
<glyph glyph-name="ecircumflex" horiz-adv-x="582" unicode="ê" d="M293 500q-37 0 -63 -11t-44 -27t-27 -37q-10 -20 -15 -37q-5 -18 -6 -30t-1 -14h324q0 31 -10 59q-11 27 -31 49t-52 35t-75 13zM502 258h-366q0 -2 2 -16t6 -35q6 -21 16 -43t29 -41t45 -31t64 -13q31 0 53 5t39 15q17 9 31 25t28 37q8 12 18 17t21 5q18 0 33 -13 t15 -33q0 -12 -13 -36t-41 -48t-74 -42q-45 -18 -110 -18q-66 0 -118 24q-52 25 -88 65t-54 94t-18 113q0 61 19 115t55 95q36 39 85 63q50 24 112 24q57 0 107 -17t86 -49t57 -80q21 -47 21 -107q0 -37 -18 -56t-42 -19zM311 762l73 -73q7 -7 7 -18q-1 -11 -7 -19t-19 -8 q-11 0 -19 8l-54 55l-55 -55q-8 -8 -19 -8q-2 0 -14 4t-12 22q0 9 8 19l72 73q9 9 20 9q10 0 19 -9z"/>
<glyph glyph-name="edieresis" horiz-adv-x="582" unicode="ë" d="M293 500q-37 0 -63 -11t-44 -27t-27 -37q-10 -20 -15 -37q-5 -18 -6 -30t-1 -14h324q0 31 -10 59q-11 27 -31 49t-52 35t-75 13zM502 258h-366q0 -2 2 -16t6 -35q6 -21 16 -43t29 -41t45 -31t64 -13q31 0 53 5t39 15q17 9 31 25t28 37q8 12 18 17t21 5q18 0 33 -13 t15 -33q0 -12 -13 -36t-41 -48t-74 -42q-45 -18 -110 -18q-66 0 -118 24q-52 25 -88 65t-54 94t-18 113q0 61 19 115t55 95q36 39 85 63q50 24 112 24q57 0 107 -17t86 -49t57 -80q21 -47 21 -107q0 -37 -18 -56t-42 -19zM309 703q0 23 17 41t41 17q24 1 41 -17t17 -41 q0 -24 -17 -41t-41 -17t-41 17t-17 41zM167 703q0 23 17 41t41 17q24 1 41 -17t17 -41q0 -24 -17 -41t-41 -17t-41 17t-17 41z"/>
<glyph glyph-name="igrave" horiz-adv-x="184" unicode="ì" d="M118 669q0 -14 -8 -18t-13 -4q-10 0 -19 6l-63 41q-13 9 -13 26q0 12 4 20t12 14q7 6 14 8t13 2q17 0 26 -13l41 -63q6 -9 6 -19zM145 526v-473q1 -21 -15 -37t-38 -16t-38 16t-15 37v473q-1 22 15 38t38 15q22 1 38 -15t15 -38z"/>
<glyph glyph-name="iacute" horiz-adv-x="184" unicode="í" d="M66 669q0 10 6 19l41 63q9 13 26 13q6 0 13 -2t14 -8q8 -6 12 -14t4 -20q0 -17 -13 -26l-63 -41q-9 -6 -19 -6q-5 0 -13 4t-8 18zM145 526v-473q1 -21 -15 -37t-38 -16t-38 16t-15 37v473q-1 22 15 38t38 15q22 1 38 -15t15 -38z"/>
<glyph glyph-name="icircumflex" horiz-adv-x="185" unicode="î" d="M111 762l73 -73q7 -7 7 -18q-1 -11 -7 -19t-19 -8q-11 0 -19 8l-54 55l-55 -55q-8 -8 -19 -8q-2 0 -14 4t-12 22q0 9 8 19l72 73q9 9 20 9q10 0 19 -9zM146 526v-473q0 -21 -16 -37t-37 -16t-37 16t-16 37v473q0 22 16 38t37 15q21 1 37 -15t16 -38z"/>
<glyph glyph-name="idieresis" horiz-adv-x="184" unicode="ï" d="M145 526v-473q1 -21 -15 -37t-38 -16t-38 16t-15 37v473q-1 22 15 38t38 15q22 1 38 -15t15 -38zM105 703q0 23 17 41t41 17q24 1 41 -17t17 -41q0 -24 -17 -41t-41 -17t-41 17t-17 41zM-37 703q0 23 17 41t41 17q24 1 41 -17t17 -41q0 -24 -17 -41t-41 -17t-41 17 t-17 41z"/>
<glyph glyph-name="eth" horiz-adv-x="601" unicode="ð" d="M476 289q0 55 -13 95t-35 66t-54 38t-69 12t-69 -12t-54 -38t-35 -66t-13 -95t13 -95t35 -64q22 -26 54 -38t69 -13q37 1 69 13t54 38t35 64q13 40 13 95zM581 289q0 -71 -21 -126t-58 -93q-38 -38 -88 -57q-50 -20 -109 -20t-109 20q-50 19 -88 57q-37 38 -58 93 t-21 126t21 126t58 93q38 38 88 58t109 20q58 0 109 -20q-22 36 -50 61t-59 41l-37 -37h-61l56 56q-51 17 -103 20t-97 3q-19 0 -31 12t-12 31t12 31t31 12q59 0 129 -6t139 -34l40 40h62l-60 -60q43 -23 81 -59t66 -90q28 -53 44 -127t17 -171z"/>
<glyph glyph-name="ntilde" horiz-adv-x="547" unicode="ñ" d="M316 579q38 -1 72 -11t61 -31t43 -52t16 -72v-360q0 -21 -16 -37t-37 -16q-22 0 -37 16t-15 37v348q-1 21 -11 39t-26 30t-38 17q-20 6 -40 6q-33 1 -60 -11q-28 -12 -46 -32t-28 -48t-10 -59v-290q0 -21 -15 -37t-37 -16t-38 16t-15 37v473q-1 22 15 38t38 15 q22 1 37 -15t15 -38v-18q10 10 24 22t36 23q20 11 48 19t64 7zM185 644q-17 0 -30 12t-13 30q0 26 22 42t49 15h9t9 -2l94 -25q11 0 17 4t13 10t13 10t17 4q19 0 31 -12t12 -30q0 -14 -6 -24t-16 -18t-23 -11q-13 -4 -26 -4h-9t-9 2l-95 25q-12 0 -18 -4t-12 -10t-12 -10 t-17 -4z"/>
<glyph glyph-name="ograve" horiz-adv-x="592" unicode="ò" d="M467 289q0 55 -13 95q-14 40 -36 66t-54 38t-68 12t-68 -12t-54 -38t-36 -66q-13 -40 -13 -95t13 -95q14 -40 36 -64q22 -26 54 -38t68 -13q36 1 68 13t54 38t36 64q13 40 13 95zM296 -7q-60 0 -110 20q-50 19 -87 57t-58 93t-21 126t21 126t58 93t87 58t110 20t110 -20 t87 -58t58 -93t21 -126t-21 -126t-58 -93t-87 -57q-50 -20 -110 -20zM320 669q0 -14 -8 -18t-13 -4q-10 0 -19 6l-63 41q-13 9 -13 26q0 12 4 20t12 14q7 6 14 8t13 2q17 0 26 -13l41 -63q6 -9 6 -19z"/>
<glyph glyph-name="oacute" horiz-adv-x="592" unicode="ó" d="M467 289q0 55 -13 95q-14 40 -36 66t-54 38t-68 12t-68 -12t-54 -38t-36 -66q-13 -40 -13 -95t13 -95q14 -40 36 -64q22 -26 54 -38t68 -13q36 1 68 13t54 38t36 64q13 40 13 95zM296 -7q-60 0 -110 20q-50 19 -87 57t-58 93t-21 126t21 126t58 93t87 58t110 20t110 -20 t87 -58t58 -93t21 -126t-21 -126t-58 -93t-87 -57q-50 -20 -110 -20zM269 667q0 10 6 19l41 63q9 13 26 13q6 0 13 -2t14 -8t11 -14t5 -20q0 -17 -13 -26l-63 -41q-9 -6 -19 -6q-5 0 -13 4t-8 18z"/>
<glyph glyph-name="ocircumflex" horiz-adv-x="592" unicode="ô" d="M467 289q0 55 -13 95q-14 40 -36 66t-54 38t-68 12t-68 -12t-54 -38t-36 -66q-13 -40 -13 -95t13 -95q14 -40 36 -64q22 -26 54 -38t68 -13q36 1 68 13t54 38t36 64q13 40 13 95zM296 -7q-60 0 -110 20q-50 19 -87 57t-58 93t-21 126t21 126t58 93t87 58t110 20t110 -20 t87 -58t58 -93t21 -126t-21 -126t-58 -93t-87 -57q-50 -20 -110 -20zM316 762l73 -73q7 -7 7 -18t-6 -19t-20 -8q-11 0 -19 8l-54 55l-55 -55q-8 -8 -19 -8q-3 0 -15 4t-11 22q0 9 8 19l72 73q9 9 20 9q10 0 19 -9z"/>
<glyph glyph-name="otilde" horiz-adv-x="592" unicode="õ" d="M467 289q0 55 -13 95q-14 40 -36 66t-54 38t-68 12t-68 -12t-54 -38t-36 -66q-13 -40 -13 -95t13 -95q14 -40 36 -64q22 -26 54 -38t68 -13q36 1 68 13t54 38t36 64q13 40 13 95zM296 -7q-60 0 -110 20q-50 19 -87 57t-58 93t-21 126t21 126t58 93t87 58t110 20t110 -20 t87 -58t58 -93t21 -126t-21 -126t-58 -93t-87 -57q-50 -20 -110 -20zM194 644q-17 0 -30 12t-13 30q0 26 22 42t48 15h9t9 -2l95 -25q3 -1 8 -1q8 1 13 5t11 10t11 10q6 4 17 4q18 0 30 -12t12 -30q0 -14 -6 -24t-17 -18q-10 -8 -23 -11q-13 -4 -26 -4q-7 0 -17 2l-94 25 q-3 1 -8 1q-8 -1 -13 -5t-10 -10q-6 -6 -12 -10t-16 -4z"/>
<glyph glyph-name="odieresis" horiz-adv-x="592" unicode="ö" d="M467 289q0 55 -13 95q-14 40 -36 66t-54 38t-68 12t-68 -12t-54 -38t-36 -66q-13 -40 -13 -95t13 -95q14 -40 36 -64q22 -26 54 -38t68 -13q36 1 68 13t54 38t36 64q13 40 13 95zM296 -7q-60 0 -110 20q-50 19 -87 57t-58 93t-21 126t21 126t58 93t87 58t110 20t110 -20 t87 -58t58 -93t21 -126t-21 -126t-58 -93t-87 -57q-50 -20 -110 -20zM311 703q0 23 17 41t40 17q24 1 41 -17t17 -41q0 -24 -17 -41t-41 -17q-23 0 -40 17t-17 41zM168 703q0 23 17 41t41 17q24 1 41 -17t17 -41q0 -24 -17 -41t-41 -17t-41 17t-17 41z"/>
<glyph glyph-name="oslash" horiz-adv-x="598" unicode="ø" d="M184 121q27 -23 53 -33t62 -9q37 1 69 13t54 38t35 64q13 40 13 95q0 22 -3 52t-16 60zM299 -7q-45 -1 -90 13t-89 48l-43 -45q-9 -10 -23 -10t-24 9t-10 23q0 13 10 23l46 49q-32 47 -42 94t-11 92q0 71 21 126t58 93q38 38 88 58t109 20q47 0 91 -14t88 -47l43 45 q10 10 23 10q10 0 22 -8t12 -25q0 -13 -9 -23l-47 -48q32 -48 42 -96t11 -91q0 -71 -21 -126t-58 -93q-38 -38 -88 -57q-50 -20 -109 -20zM128 289v-19t3 -28q2 -16 6 -32t10 -32l267 280q-28 22 -54 32t-61 10q-37 0 -69 -12t-54 -38t-35 -66t-13 -95z"/>
<glyph glyph-name="ugrave" horiz-adv-x="547" unicode="ù" d="M231 0q-37 0 -71 10t-62 32q-27 21 -43 52t-16 72v360q-1 22 15 38t38 15q22 1 37 -15t15 -38v-348q0 -23 10 -40q10 -16 28 -28q16 -12 36 -18t41 -6q33 0 60 12t45 31t29 47q10 28 10 60v290q0 22 15 38t37 15q21 1 37 -15t16 -38v-473q0 -21 -16 -37t-37 -16 q-22 0 -37 16t-15 37v18q-11 -9 -25 -21t-35 -24q-21 -10 -49 -18t-63 -8zM300 669q0 -14 -8 -18t-13 -4q-10 0 -19 6l-63 41q-13 9 -13 26q0 12 4 20t12 14q7 6 14 8t13 2q17 0 26 -13l41 -63q6 -9 6 -19z"/>
<glyph glyph-name="uacute" horiz-adv-x="547" unicode="ú" d="M231 0q-37 0 -71 10t-62 32q-27 21 -43 52t-16 72v360q-1 22 15 38t38 15q22 1 37 -15t15 -38v-348q0 -23 10 -40q10 -16 28 -28q16 -12 36 -18t41 -6q33 0 60 12t45 31t29 47q10 28 10 60v290q0 22 15 38t37 15q21 1 37 -15t16 -38v-473q0 -21 -16 -37t-37 -16 q-22 0 -37 16t-15 37v18q-11 -9 -25 -21t-35 -24q-21 -10 -49 -18t-63 -8zM240 668q0 10 6 19l41 63q9 13 26 13q6 0 13 -2q7 -1 14 -7q8 -6 12 -14t4 -21q0 -17 -13 -26l-63 -41q-9 -6 -19 -6q-5 0 -13 4t-8 18z"/>
<glyph glyph-name="ucircumflex" horiz-adv-x="547" unicode="û" d="M231 0q-37 0 -71 10t-62 32q-27 21 -43 52t-16 72v360q-1 22 15 38t38 15q22 1 37 -15t15 -38v-348q0 -23 10 -40q10 -16 28 -28q16 -12 36 -18t41 -6q33 0 60 12t45 31t29 47q10 28 10 60v290q0 22 15 38t37 15q21 1 37 -15t16 -38v-473q0 -21 -16 -37t-37 -16 q-22 0 -37 16t-15 37v18q-11 -9 -25 -21t-35 -24q-21 -10 -49 -18t-63 -8zM294 762l73 -73q7 -7 7 -18t-6 -19t-20 -8q-11 0 -19 8l-54 55l-55 -55q-8 -8 -19 -8q-3 0 -15 4t-11 22q0 9 8 19l72 73q9 9 20 9q10 0 19 -9z"/>
<glyph glyph-name="udieresis" horiz-adv-x="547" unicode="ü" d="M231 0q-37 0 -71 10t-62 32q-27 21 -43 52t-16 72v360q-1 22 15 38t38 15q22 1 37 -15t15 -38v-348q0 -23 10 -40q10 -16 28 -28q16 -12 36 -18t41 -6q33 0 60 12t45 31t29 47q10 28 10 60v290q0 22 15 38t37 15q21 1 37 -15t16 -38v-473q0 -21 -16 -37t-37 -16 q-22 0 -37 16t-15 37v18q-11 -9 -25 -21t-35 -24q-21 -10 -49 -18t-63 -8zM287 703q0 23 17 41t41 17q24 1 41 -17t17 -41q0 -24 -17 -41t-41 -17t-41 17t-17 41zM145 703q0 23 17 41t41 17q23 1 41 -17t17 -41q1 -24 -17 -41t-41 -17q-24 0 -41 17t-17 41z"/>
<glyph glyph-name="yacute" horiz-adv-x="562" unicode="ý" d="M315 653q-11 -8 -24 -8q-15 0 -21 10t-6 18q0 12 8 23l51 79q10 16 32 16q15 1 25 -5t17 -14t10 -18t3 -17q0 -10 -4 -19t-12 -14zM223 -61l25 70l-230 494q-5 12 -5 22q0 7 3 17t9 18q5 8 15 14t24 5q18 1 32 -9t21 -27l174 -418l152 413q7 18 21 30t33 11q18 1 35 -13 t17 -43q0 -5 -1 -10t-3 -10l-230 -592q-9 -19 -19 -41t-26 -39t-42 -28t-63 -11h-48q-19 0 -33 14t-14 33q0 20 14 34t33 14h31q10 0 20 1q10 2 20 6t19 14t16 31z"/>
<glyph glyph-name="thorn" horiz-adv-x="579" unicode="þ" d="M303 86q37 0 67 17t50 45t30 65t11 76q-1 41 -11 77t-30 64t-50 46q-30 17 -67 17t-67 -17q-30 -18 -50 -46t-30 -64t-11 -77q1 -39 11 -76t30 -65t50 -45t67 -17zM151 736v-219q19 17 37 29t37 20t42 10q23 3 53 3q48 0 92 -21q44 -22 76 -60t52 -92q19 -54 19 -117 q0 -64 -17 -117q-16 -54 -48 -92t-76 -59t-98 -21q-36 0 -62 8t-46 18t-34 24t-27 26v-234q0 -22 -15 -38t-37 -15q-21 -1 -37 15t-16 38v894q0 22 16 38t37 15q22 1 37 -15t15 -38z"/>
<glyph glyph-name="OE" horiz-adv-x="1290" unicode="Œ" d="M678 79v16q-62 -59 -130 -83t-140 -25q-88 0 -160 33q-72 32 -122 88t-78 130t-28 156t28 156t78 130t122 89t160 33q156 0 270 -108v16q0 15 6 29t15 25q10 11 25 18t33 7h452q21 0 37 -15t16 -37q0 -21 -16 -37t-37 -16h-413v-217h388q22 1 38 -15t15 -38 q1 -22 -15 -37t-38 -15h-388v-257h421q21 1 37 -15t16 -38t-16 -37t-37 -15h-460q-31 0 -55 22t-24 57zM678 394q0 69 -21 125q-21 55 -57 95t-86 62q-49 22 -106 21q-57 1 -106 -21q-50 -22 -86 -62t-57 -95q-21 -56 -21 -125t21 -125t57 -95q36 -38 86 -60q49 -22 106 -22 t106 22q50 22 86 60q36 39 57 95t21 125z"/>
<glyph glyph-name="oe" horiz-adv-x="1029" unicode="œ" d="M740 500q-37 0 -63 -11q-25 -11 -43 -27t-28 -37q-10 -20 -15 -37q-5 -18 -6 -30t-1 -14h324q0 31 -10 59q-10 27 -30 49t-53 35q-32 13 -75 13zM746 -7q-72 0 -126 27t-98 86q-44 -60 -98 -86t-128 -27q-60 0 -110 20q-50 19 -87 57t-58 93t-21 126t21 126t58 93t87 58 t110 20q74 0 128 -26t97 -86q42 58 97 85t120 27q56 0 106 -17t86 -49t58 -80q21 -47 21 -107q1 -37 -17 -56t-43 -19h-363q0 -15 6 -45t24 -60t48 -52q32 -22 82 -22q31 0 53 5q23 5 39 15q16 9 30 25t28 37q8 12 18 17t21 5q19 0 33 -13t15 -33q1 -12 -13 -36t-43 -48 t-74 -42t-107 -18zM467 289q0 55 -13 95q-14 40 -36 66t-54 38t-68 12t-68 -12t-54 -38t-36 -66q-13 -40 -13 -95t13 -95q14 -40 36 -64q22 -26 54 -38t68 -13q36 1 68 13t54 38t36 64q13 40 13 95z"/>
<glyph glyph-name="Scaron" horiz-adv-x="685" unicode="Š" d="M658 228q0 -61 -24 -106t-64 -75q-41 -30 -96 -45t-117 -15q-89 -1 -151 25t-102 62q-39 36 -57 78q-18 40 -18 70q1 36 19 51t38 15q17 0 31 -10t17 -34q6 -38 26 -67t51 -49q30 -20 67 -29q37 -10 76 -10q30 -1 64 7t62 24t44 40q18 25 18 60q0 38 -20 63t-54 42 t-77 29t-88 23t-88 27t-77 40t-54 60t-20 89q0 50 22 89t59 66q38 27 90 41t114 14q61 0 111 -15t86 -40t57 -56q20 -31 20 -62q1 -26 -17 -42t-39 -15q-15 1 -28 9t-21 27q-12 31 -32 49t-42 28q-24 10 -50 14t-50 4q-36 0 -66 -8t-54 -20q-22 -14 -34 -34t-13 -44 q1 -34 21 -56t54 -37t77 -26t89 -23t88 -28q43 -16 77 -43q35 -26 55 -64t20 -93zM249 945q0 11 7 18t18 7t18 -7t7 -18q1 -21 15 -35t35 -15q21 1 35 15t15 35q0 11 7 18t18 7t18 -7t7 -18q0 -42 -29 -71t-71 -29t-71 29t-29 71z"/>
<glyph glyph-name="scaron" horiz-adv-x="539" unicode="š" d="M153 749q0 11 7 18t18 7t18 -7t7 -18q1 -21 15 -35t35 -15q21 1 35 15t15 35q0 11 7 18t18 7t18 -7t7 -18q0 -42 -29 -71t-71 -29t-71 29t-29 71zM513 174q0 -50 -20 -84t-53 -56t-77 -32t-92 -9q-69 1 -115 21t-76 48t-42 54q-13 27 -13 41q1 23 17 37t35 15q12 0 23 -7 t17 -22q17 -43 55 -72t107 -29q32 -1 55 7q24 8 38 20t21 28t7 33q0 34 -27 51t-67 27q-40 11 -88 19t-87 24q-40 16 -67 48q-27 30 -27 84q0 78 57 122t159 44q57 0 96 -12t64 -31q10 -7 21 -19t21 -26q11 -14 17 -26q6 -13 6 -23q0 -23 -18 -37t-39 -13q-13 1 -24 7 t-17 20q-8 19 -17 33t-23 23q-14 10 -36 14q-20 4 -51 4q-61 0 -89 -20t-27 -48q0 -22 16 -36q17 -14 43 -22q26 -10 60 -16t69 -16q35 -8 69 -20t60 -30q26 -20 43 -48q16 -28 16 -70z"/>
<glyph glyph-name="Ydieresis" horiz-adv-x="681" unicode="Ÿ" d="M660 707l-260 -373v-275q0 -23 -18 -41t-42 -18t-42 18t-17 41v275l-260 373q-9 13 -9 30q0 23 16 37t36 15q12 1 24 -5t19 -17l233 -334l234 334q8 11 20 17t23 5q7 -1 16 -3t17 -8t14 -16t5 -25q0 -17 -9 -30zM357 900q0 24 17 41t41 17t41 -17t17 -41t-17 -41t-41 -17 t-41 17t-17 41zM215 900q0 24 17 41t41 17t41 -17t17 -41t-17 -41t-41 -17t-41 17t-17 41z"/>
<glyph glyph-name="circumflex" horiz-adv-x="240" unicode="ˆ" d="M140 793l72 -72q8 -8 8 -18q0 -7 -6 -17t-20 -10q-12 0 -20 8l-54 54l-54 -54q-8 -8 -20 -8q-8 0 -17 6t-9 20q0 11 8 19l72 72q10 10 20 10t20 -10z"/>
<glyph glyph-name="tilde" horiz-adv-x="397" unicode="˜" d="M74 664q-22 0 -38 16t-16 37q0 15 8 29t20 24t28 14q16 5 32 5q11 0 23 -3l118 -32q2 -1 4 -1h5q10 -1 17 5t13 13t15 13q8 6 21 5q22 0 38 -15t15 -37q1 -15 -7 -29t-20 -24t-29 -14q-16 -5 -32 -5q-11 0 -23 3l-118 32q-6 2 -8 2q-11 0 -17 -6q-7 -6 -13 -13t-14 -13 t-22 -6z"/>
<glyph glyph-name="endash" horiz-adv-x="540" unicode="–" d="M474 349h-408q-18 0 -32 13t-14 33q0 19 14 33t32 13h408q18 1 32 -13t14 -33q0 -20 -14 -33t-32 -13z"/>
<glyph glyph-name="emdash" horiz-adv-x="1040" unicode="—" d="M974 349h-908q-18 0 -32 13t-14 33q0 19 14 33t32 13h908q18 1 32 -13t14 -33q0 -20 -14 -33t-32 -13z"/>
<glyph glyph-name="quoteleft" horiz-adv-x="186" unicode="‘" d="M115 795q11 8 24 8q15 0 21 -10t6 -18q0 -12 -8 -23l-51 -79q-10 -16 -32 -16q-15 -1 -25 5t-17 14t-10 18t-3 17q0 10 4 19t12 14z"/>
<glyph glyph-name="quotesinglbase" horiz-adv-x="190" unicode="‚" d="M20 72q0 31 22 52t52 21q12 0 26 -5q14 -6 25 -16t18 -26t7 -40q0 -38 -18 -78t-49 -73q-9 -10 -21 -10q-12 -1 -22 9t-10 22q0 10 7 18q13 14 22 26t14 28q-29 0 -51 22t-22 50z"/>
<glyph glyph-name="quotedblleft" horiz-adv-x="346" unicode="“" d="M275 795q11 8 24 8q15 0 21 -10t6 -18q0 -12 -8 -23l-51 -79q-10 -16 -32 -16q-15 -1 -25 5t-17 14t-10 18t-3 17q0 10 4 19t12 14zM115 795q11 8 24 8q15 0 21 -10t6 -18q0 -12 -8 -23l-51 -79q-10 -16 -32 -16q-15 -1 -25 5t-17 14t-10 18t-3 17q0 10 4 19t12 14z"/>
<glyph glyph-name="quotedblright" horiz-adv-x="346" unicode="”" d="M71 665q-11 -8 -24 -8q-15 0 -21 10t-6 18q0 12 8 23l51 79q10 16 32 16q15 1 25 -5t17 -14t10 -18t3 -17q0 -10 -4 -19t-12 -14zM231 665q-11 -8 -24 -8q-15 0 -21 10t-6 18q0 12 8 23l51 79q10 16 32 16q15 1 25 -5t17 -14t10 -18t3 -17q0 -10 -4 -19t-12 -14z"/>
<glyph glyph-name="dagger" horiz-adv-x="374" unicode="†" d="M233 546v-285q0 -19 -13 -33t-32 -13q-20 -1 -34 13t-13 33v285h-75q-18 0 -32 13t-14 33q0 18 14 32t32 14h75v105q-1 19 13 33t34 13q19 1 32 -13t13 -33v-105h75q18 0 32 -14t14 -32q0 -20 -14 -33t-32 -13h-75z"/>
<glyph glyph-name="daggerdbl" horiz-adv-x="434" unicode="‡" d="M263 500v-158h105q18 0 32 -14t14 -32t-14 -32t-32 -14h-105v-105q0 -20 -13 -33t-32 -13q-20 0 -34 13t-13 33v105h-105q-18 0 -32 14t-14 32t14 32t32 14h105v158h-105q-18 0 -32 14t-14 32t14 32t32 14h105v105q-1 20 13 33t34 13q19 0 32 -13t13 -33v-105h105 q18 0 32 -14t14 -32t-14 -32t-32 -14h-105z"/>
<glyph glyph-name="ellipsis" horiz-adv-x="527" unicode="…" d="M20 72q0 30 22 52t51 21q29 1 51 -21t21 -52q1 -28 -21 -50t-51 -22t-51 22t-22 50zM191 72q-1 30 21 52t52 21q28 1 50 -21t22 -52q0 -28 -22 -50t-50 -22q-30 0 -52 22t-21 50zM362 72q0 30 22 52t51 21q29 1 51 -21t21 -52q1 -28 -21 -50t-51 -22t-51 22t-22 50z"/>
<glyph glyph-name="perthousand" horiz-adv-x="1029" unicode="‰" d="M933 178q0 52 -17 80t-52 29q-35 -1 -52 -29t-17 -80t17 -80t52 -29q35 1 52 29t17 80zM864 -13q-70 1 -108 49t-37 142q-1 94 37 143t108 49q71 0 108 -49t37 -143t-37 -142t-108 -49zM603 178q0 52 -17 80t-52 29q-35 -1 -52 -29t-17 -80t17 -80t52 -29q35 1 52 29 t17 80zM534 -13q-70 1 -108 49t-37 142q-1 94 37 143t108 49q71 0 108 -49t37 -143t-37 -142t-108 -49zM233 611q0 53 -17 81t-52 28t-52 -28t-17 -81t17 -81t52 -28t52 28t17 81zM164 420q-70 0 -107 48t-37 143q0 94 37 143t107 49q71 0 108 -49t37 -143q0 -95 -37 -143 t-108 -48zM592 760l-407 -775q-5 -13 -17 -19t-25 -6q-19 0 -33 13t-14 33q0 12 6 23l406 775q6 12 18 18t24 7q6 -1 14 -3t16 -7t12 -15q5 -10 5 -22q0 -13 -5 -22z"/>
<glyph glyph-name="guilsinglleft" horiz-adv-x="254" unicode="‹" d="M28 429l127 127q13 13 33 13q18 1 32 -11t14 -34q0 -20 -14 -34l-95 -95l95 -96q14 -14 14 -34q0 -21 -14 -33t-33 -12t-32 13l-127 127q-16 16 -16 35q0 18 16 34z"/>
<glyph glyph-name="guilsinglright" horiz-adv-x="254" unicode="›" d="M226 429q16 -16 16 -34q0 -19 -16 -35l-127 -127q-13 -13 -32 -13t-33 12t-14 33q0 20 14 34l95 96l-95 95q-14 14 -14 34q0 22 14 34t32 11q20 0 33 -13z"/>
<glyph glyph-name="trademark" horiz-adv-x="1134" unicode="™" d="M969 731q9 23 25 41t41 17q21 1 37 -15t16 -39v-486q0 -15 -11 -27t-27 -12t-28 12t-11 27v377l-143 -373q-8 -19 -21 -31t-34 -12q-20 0 -33 12t-21 31l-143 373v-377q0 -15 -12 -27t-27 -12t-27 12t-12 27v486q0 23 16 39t39 15q26 1 41 -17t24 -41l155 -403zM188 712 h-137q-16 0 -27 11t-11 28q0 16 11 27t27 11h361q16 0 28 -11t11 -27q1 -17 -11 -28t-28 -11h-137v-458q-1 -18 -13 -31t-30 -13t-31 13t-13 31v458z"/>
</font>
</defs>
</svg>
